<?xml version="1.0" encoding="utf-8"?>
<!-- Generator: Adobe Illustrator 22.0.1, SVG Export Plug-In . SVG Version: 6.00 Build 0)  -->
<svg version="1.1" id="Layer_1" xmlns="http://www.w3.org/2000/svg" xmlns:xlink="http://www.w3.org/1999/xlink" x="0px" y="0px"
	 viewBox="0 0 131.9 132.8" style="enable-background:new 0 0 131.9 132.8;" xml:space="preserve">
<style type="text/css">
	.st0{fill:#809FFF;}
	.st1{fill:#005A97;stroke:#005A97;stroke-miterlimit:10;}
	.st2{fill:#005A97;}
</style>
<g>
	<path class="st0" d="M121,1.8H11.8C6.3,1.8,1.7,6.4,1.7,11.9v79.4c0,5.6,4.5,10.1,10.1,10.1h39.7v12.7c-7.4,0.7-13.2,7-13.2,14.6
		c0,1.4,1.1,2.5,2.5,2.5H92c1.4,0,2.5-1.1,2.5-2.5c0-7.8-6.1-14.1-13.7-14.6v-12.6h11.8c1.4,0,2.5-1.1,2.5-2.5s-1.1-2.5-2.5-2.5
		H11.8c-2.8,0-5.1-2.3-5.1-5.1V11.9c0-2.8,2.3-5.1,5.1-5.1H121c2.8,0,5.1,2.3,5.1,5.1v79.4c0,2.8-2.3,5.1-5.1,5.1h-9.4
		c-1.4,0-2.5,1.1-2.5,2.5s1.1,2.5,2.5,2.5h9.4c5.6,0,10.1-4.5,10.1-10.1V11.9C131.1,6.4,126.6,1.8,121,1.8z M89.2,126.1H43.7
		c1.1-4.1,4.8-7.1,9.3-7.1h27C84.3,119.1,88,122.1,89.2,126.1z M75.8,114H56.6v-12.6h19.2V114z"/>
	<path class="st0" d="M121,82.7V14.5c0-1.4-1.1-2.5-2.5-2.5H78.3c-1.4,0-2.5,1.1-2.5,2.5s1.1,2.5,2.5,2.5h37.6v63.2h-99V17h38.8
		c1.4,0,2.5-1.1,2.5-2.5s-1.1-2.5-2.5-2.5H14.4c-1.4,0-2.5,1.1-2.5,2.5v68.2c0,1.4,1.1,2.5,2.5,2.5h104.1
		C119.9,85.2,121,84.1,121,82.7z"/>
	<path class="st0" d="M68.7,16.3c0.5-0.5,0.7-1.1,0.7-1.8c0-0.7-0.3-1.3-0.7-1.8s-1.1-0.7-1.8-0.7s-1.3,0.3-1.8,0.7
		s-0.7,1.1-0.7,1.8s0.3,1.3,0.7,1.8c0.5,0.5,1.1,0.7,1.8,0.7S68.2,16.7,68.7,16.3z"/>
	<g>
		<g>
			<path class="st1" d="M99.4,44.4C99.3,42,99.3,42,97,41.3c-0.3-0.1-0.6-0.2-0.9-0.3c-1-0.2-1.4-0.8-1.8-1.6
				c-0.6-1.3-0.6-2.3,0.2-3.4c0.2-0.3,0.4-0.8,0.6-1.1c0.5-0.8,0.4-1.5-0.2-2.1c-0.6-0.7-1.3-1.5-2-2.1c-2.8-2.6-2.3-2.2-5.2-0.7
				c-0.9,0.5-1.7,0.5-2.7,0.1c-1.3-0.5-1.9-1.3-2.1-2.6c-0.1-0.5-0.3-1-0.5-1.5c-0.2-0.6-0.6-0.9-1.1-1c-1.6-0.2-3.2-0.2-4.8-0.1
				c-1.3,0.1-2.1,0.6-2.2,1.9c-0.3,1.8-1.1,3-3,3.5c-0.5,0.1-1,0.3-1.5,0c-0.7-0.4-1.5-0.8-2.3-1.2c-0.7-0.3-1.3-0.3-1.9,0.2
				c-1.1,0.9-2.1,1.8-3,2.9c-1.3,1.5-1.3,1.6-0.4,3.3c0.2,0.4,0.4,0.8,0.6,1.2c0.8,1.6-0.1,3.9-1.8,4.5c-3.4,1.1-3.4,1.1-3.4,4.8
				c0,0.1,0,0.1,0,0.2c0.4,3.9-0.1,3.2,3.2,4.2c1,0.3,1.5,0.8,1.9,1.7c0.6,1.3,0.5,2.3-0.2,3.4c-0.2,0.4-0.4,0.8-0.6,1.1
				c-0.5,0.7-0.4,1.4,0.2,2c1.1,1.3,2.2,2.5,3.5,3.5c0.7,0.5,1.3,0.6,2.1,0.2c0.7-0.4,1.4-0.8,2.1-1.1c0.3-0.2,0.6-0.4,0.9-0.3
				c0.9,0.4,1.9,0.6,2.6,1.3h0.1v0.1c0.3,0.3,0.5,0.8,0.7,1.4c0.5,2.2,0.2,2.7,2.7,2.8H81c0.1-0.1,0.3-0.1,0.5-0.1
				c0.5,0,0.8-0.4,1-0.9c0.1-0.4,0.3-0.8,0.3-1.1c0.2-1.8,1.2-2.8,3-3.2c0.5-0.1,0.9-0.2,1.4,0.1c0.7,0.4,1.5,0.8,2.2,1.2
				c0.7,0.4,1.3,0.3,1.9-0.2c1.3-1,2.5-2.2,3.5-3.5c0.3-0.4,0.5-0.8,0.5-1.3c0-0.4-0.2-0.8-0.3-0.9c-0.1-0.2-1.3-2.1-1.1-3.7
				c0.1-0.8,0.6-1.6,1.3-2.1c0.3-0.2,0.7-0.4,1.2-0.4c0.6-0.1,1.1-0.3,1.6-0.5c0.7-0.2,1-0.6,1.1-1.3C99.4,47,99.5,45.7,99.4,44.4z
				 M97.2,46.7c0,0.7-0.3,1.1-0.9,1.2c-2.2,0.3-3.5,1.3-4.2,3.6c-0.5,1.6-0.8,2.8,0.2,4.3c0.3,0.5,1,1.2,0.6,1.8
				c-0.6,1-1.4,1.8-2.4,2.5c-0.3,0.2-0.6-0.1-0.8-0.2c-1.8-1.4-3.7-1.7-5.7-0.3c-0.3,0.2-0.7,0.3-1.1,0.4c-0.6,0.2-1,0.5-1.1,1.2
				c-0.1,0.5-0.3,1-0.4,1.4c-0.6,1.9-0.6,1.9-2.6,1.9c-2,0-2,0-2.5-1.9c-0.1-0.2-0.1-0.4-0.2-0.6c-0.2-1.2-0.8-2.1-2.1-2.3
				c-0.5-0.1-0.9-0.2-1.3-0.5c-1.3-1-2.5-0.6-3.7,0.1c-1.9,1.1-1.9,1-3.4-0.5c-1.2-1.3-1.3-1.3-0.4-2.8c0.9-1.5,0.9-2.7,0.2-4.4
				c-0.8-2-1.8-3.2-3.9-3.5c-0.9-0.1-1.2-0.6-1.2-1.5c0-3.2-0.2-2.8,2.4-3.5c1.2-0.4,2.1-0.9,2.3-2.2c0.1-0.6,0.4-1.3,0.8-1.8
				c0.5-0.8,0.5-1.6,0-2.4c-0.2-0.3-0.4-0.6-0.5-1c-0.2-0.6-1-1.1-0.6-1.7c0.6-1,1.5-1.9,2.5-2.5c0.3-0.2,0.6,0,0.8,0.2
				c1.9,1.4,3.6,1.4,5.8,0.3c1.4-0.7,2.3-1.3,2.6-2.9c0.1-0.5,0.2-0.9,0.4-1.3c0.8-1.2,2.1-0.4,3.2-0.6c0.6-0.1,1,0.1,1.2,0.8
				c0.2,0.8,0.5,1.5,0.7,2.3c0.2,0.7,0.6,1.2,1.3,1.4c0.9,0.3,1.8,0.6,2.7,1.1c0.7,0.4,1.4,0.4,2.1,0c0.3-0.2,0.5-0.3,0.8-0.4
				c2.1-1.1,2.1-1.1,3.7,0.7c1.1,1.1,1.1,1.1,0.3,2.6c-0.2,0.4-0.5,0.9-0.7,1.3c-0.4,0.7-0.4,1.4,0,2.1c0.4,0.7,0.8,1.5,1,2.3
				c0.3,1,0.9,1.5,1.9,1.8C97.3,43.7,97.3,43.7,97.2,46.7z"/>
			<path class="st1" d="M58.6,61.8c-0.1,0.4-0.2,1-0.3,1.6c-0.3,1.5-0.4,2.1-2.3,2.2c-0.9,0-1.5,0.9-1.2,1.8
				c0.6,1.7,0.6,1.8-1.2,3.1c-0.4,0.3-0.8,0.5-1.2,0.7c-0.6,0.4-1.2,0.3-1.7-0.2c-0.2-0.2-0.4-0.3-0.6-0.4C49.3,69.9,48.6,70,48,71
				c-0.9,1.6-1,1.6-2.8,1.3c-0.3,0-0.5-0.1-0.8-0.2c-1.1-0.2-1.8-0.7-1.9-2c-0.1-1.4-0.8-1.8-2.1-1.4c-1,0.4-1.7,0.2-2.3-0.7
				c-0.3-0.4-0.5-0.8-0.8-1.1c-0.8-1-0.8-2,0.2-3c0.8-0.8,0.5-1.6-0.4-2.2c-1.6-1-1.6-1-1.2-2.8c0.1-0.4,0.2-0.7,0.2-1.1
				c0.2-1,0.7-1.5,1.8-1.5c1.5-0.1,1.9-0.7,1.5-2.2c-0.3-1.3-0.3-1.5,0.8-2.3c0.3-0.2,0.6-0.4,1-0.7c1.5-0.9,1.6-0.9,2.9,0.2
				c0.9,0.7,1.6,0.5,2.2-0.5c0.9-1.5,1-1.6,2.8-1.2c0.3,0,0.5,0.1,0.8,0.2c1.7,0.4,1.8,0.5,1.9,2.2c0.1,1.1,0.9,1.6,1.9,1.3
				c1.7-0.5,1.8-0.4,2.8,0.9c0.2,0.3,0.4,0.6,0.6,0.9c0.7,1.2,0.7,1.5-0.1,2.6c-0.9,1.2-0.7,1.9,0.6,2.6
				C58.6,60.9,58.7,60.9,58.6,61.8z M45.5,70.3c0.6,0.1,0.8-0.3,1-0.7c0.9-1.6,3.2-2.1,4.7-1c0.4,0.3,0.7,0.6,1.3,0.2
				c0.6-0.4,0.6-0.8,0.4-1.4c-0.2-0.5-0.4-1.1,0-1.6c0.8-1,1.2-2.5,3-2.3c0.4,0,0.7-0.4,0.7-0.8c0-0.4,0.2-0.8-0.3-0.9
				c-1.3-0.4-1.6-1.4-1.8-2.6c-0.2-0.9-0.1-1.6,0.6-2.3c0.3-0.3,0.5-0.6,0.2-1.1c-0.3-0.5-0.7-0.7-1.3-0.6c-1.9,0.5-3.7-0.7-4-2.6
				c-0.1-0.6-0.2-1-0.9-1.1c-0.6-0.1-0.9,0.2-1.1,0.7c-0.3,0.9-1,1.3-1.9,1.3c-0.2,0-0.4,0.1-0.6,0.1c-0.8,0.3-1.5,0.1-2.1-0.4
				c-0.4-0.4-0.7-0.7-1.4-0.3c-0.6,0.4-0.5,0.9-0.3,1.4c0.5,1.6-0.9,3.7-2.6,3.8c-0.5,0-0.9,0.1-1.1,0.7c-0.1,0.6,0.1,1,0.6,1.2
				c1.6,0.9,2.1,3.2,0.9,4.7c-0.4,0.5-0.4,0.9-0.1,1.4c0.3,0.5,0.7,0.4,1.2,0.3c1.8-0.5,3.8,0.8,4,2.7C44.6,70,44.9,70.2,45.5,70.3z
				"/>
			<g>
				<g>
					<path class="st2" d="M77.1,47.6c0,0.6,0,1.2,0,1.8c0,0.6-0.2,1-0.8,1c-0.6,0-0.8-0.4-0.8-1c0-2.5,0-5,0-7.4c0-0.8,0.3-1,1.1-1
						c0.7,0,1.4,0,2,0c1.6,0,2.7,1.1,2.7,2.6c0,1.4-1,2.5-2.5,2.7c-0.1,0-0.2,0-0.3,0c0.1,0.4,0.4,0.5,0.6,0.8
						c0.6,0.6,1.3,1.3,1.9,1.9c0.4,0.4,0.5,0.8,0.1,1.2c-0.4,0.4-0.8,0.3-1.2,0c-0.8-0.9-1.7-1.8-2.5-2.7
						C77.3,47.5,77.2,47.5,77.1,47.6z M78.1,44.6c0.2,0,0.4,0,0.5,0c0.7-0.1,1.1-0.5,1.1-1c0-0.6-0.4-0.9-1-1c-0.3,0-0.7,0-1,0
						c-0.2,0-0.4,0-0.4,0.2c-0.1,0.5-0.2,1.1,0,1.6C77.4,44.7,77.8,44.5,78.1,44.6z"/>
				</g>
			</g>
			<g>
				<path class="st2" d="M69.2,45.6c0-1.2,0-2.4,0-3.6c0-0.9,0.3-1.2,1.2-1.2c1.2,0,2.3,0,3.5,0c0.5,0,1,0.1,1,0.8
					c0,0.7-0.5,0.9-1,0.9c-0.8,0-1.6,0-2.3,0c-0.5,0-0.7,0.1-0.7,0.7c0,2-0.1,1.6,1.5,1.6c0.3,0,0.6,0,0.9,0c0.5,0,0.8,0.2,0.9,0.8
					c0,0.6-0.3,0.8-0.8,0.8c-0.6,0-1.3,0-1.9,0c-0.5,0-0.7,0.2-0.7,0.7c0,2-0.1,1.6,1.5,1.6c0.6,0,1.2,0,1.7,0
					c0.5,0,0.8,0.3,0.8,0.8c0,0.5-0.2,0.8-0.7,0.8c-1.4,0.1-2.9,0.1-4.3,0c-0.6,0-0.7-0.6-0.7-1.1C69.2,48.1,69.2,46.8,69.2,45.6z"
					/>
			</g>
			<g>
				<g>
					<path class="st2" d="M82,45.8c0-1.3,0-2.6,0-3.9c0-0.7,0.4-1,1.1-1c0.7,0,1.5,0,2.2,0c1.5,0.1,2.6,1.2,2.6,2.7
						c0,1.5-1.1,2.6-2.6,2.6c-1.7,0.1-1.7,0.1-1.7,1.7c0,0.4,0,0.9,0,1.3c0,0.5-0.1,1.1-0.8,1.1c-0.7,0-0.9-0.5-0.9-1.1
						C81.9,48.1,81.9,47,82,45.8C82,45.8,82,45.8,82,45.8z M84.6,44.6c1,0,1.4-0.2,1.6-0.8c0.1-0.5-0.1-0.9-0.6-1.1
						c-0.5-0.2-1.9-0.2-1.9,0.1c-0.2,0.5-0.2,1.1,0,1.6C83.8,44.7,84.3,44.5,84.6,44.6z"/>
				</g>
			</g>
		</g>
	</g>
</g>
</svg>
