<?xml version="1.0" encoding="utf-8"?>
<!-- Generator: Adobe Illustrator 22.0.1, SVG Export Plug-In . SVG Version: 6.00 Build 0)  -->
<svg version="1.1" id="Layer_1" xmlns="http://www.w3.org/2000/svg" xmlns:xlink="http://www.w3.org/1999/xlink" x="0px" y="0px"
	 viewBox="0 0 131.9 130.8" style="enable-background:new 0 0 131.9 130.8;" xml:space="preserve">
<style type="text/css">
	.st0{fill:#8268D7;}
	.st1{fill:#005A97;}
</style>
<g>
	<g>
		<path class="st0" d="M32.8,27.5h58.6c5.3,0,9.6,4.3,9.6,9.6v25.6c0,1,0.8,1.9,1.9,1.9c1,0,1.9-0.8,1.9-1.9V37.1
			c0-7.4-6-13.4-13.3-13.4H32.8c-1,0-1.9,0.8-1.9,1.9S31.8,27.5,32.8,27.5L32.8,27.5z"/>
		<path class="st0" d="M78.4,85.3H43.1c-0.5,0-1.1,0.2-1.4,0.7L31,98.5L20.4,86c-0.4-0.4-0.9-0.7-1.4-0.7h-3.8
			c-5.3,0-9.6-4.3-9.6-9.6V37.1c0-5.3,4.3-9.6,9.6-9.6h8.9c1,0,1.9-0.8,1.9-1.9s-0.8-1.9-1.9-1.9h-8.9c-7.3,0-13.3,6-13.3,13.4v38.6
			c0,7.4,6,13.4,13.3,13.4h2.9l11.5,13.5c0.4,0.4,0.9,0.7,1.4,0.7c0.5,0,1.1-0.2,1.4-0.7l11.5-13.5h34.5c1,0,1.9-0.8,1.9-1.9
			C80.3,86.2,79.4,85.3,78.4,85.3z"/>
		<path class="st0" d="M57.2,113h-17c-1,0-1.9,0.8-1.9,1.9c0,1,0.8,1.9,1.9,1.9h17c2.4,0,4.3,1.9,4.3,4.3s-1.9,4.3-4.3,4.3H9.9
			c-2.4,0-4.3-1.9-4.3-4.3s1.9-4.3,4.3-4.3h1.7c0.6,0,1.2-0.3,1.5-0.8l3.3-4.5l3.3,4.5c0.4,0.5,0.9,0.8,1.5,0.8h10.3
			c1,0,1.9-0.8,1.9-1.9c0-1-0.8-1.9-1.9-1.9h-9.4l-4.2-5.8c-0.4-0.5-0.9-0.8-1.5-0.8s-1.2,0.3-1.5,0.8l-4.2,5.8H9.9
			c-4.4,0-8.1,3.6-8.1,8.1c0,4.5,3.6,8.1,8.1,8.1h47.2c4.4,0,8.1-3.6,8.1-8.1C65.2,116.6,61.6,113,57.2,113z"/>
		<path class="st0" d="M74.5,17.4h7c1,0,1.9-0.8,1.9-1.9s-0.8-1.9-1.9-1.9h-7c-2.4,0-4.3-1.9-4.3-4.3S72.1,5,74.5,5h47.2
			c2.4,0,4.3,1.9,4.3,4.3s-1.9,4.3-4.3,4.3H120c-0.6,0-1.2,0.3-1.5,0.8l-3.3,4.5l-3.3-4.5c-0.4-0.5-0.9-0.8-1.5-0.8H90.2
			c-1,0-1.9,0.8-1.9,1.9s0.8,1.9,1.9,1.9h19.3l4.2,5.8c0.4,0.5,0.9,0.8,1.5,0.8s1.2-0.3,1.5-0.8l4.2-5.8h0.7c4.4,0,8.1-3.6,8.1-8.1
			c0-4.5-3.6-8.1-8.1-8.1H74.5c-4.4,0-8.1,3.6-8.1,8.1C66.4,13.8,70,17.4,74.5,17.4L74.5,17.4z"/>
		<g>
			<path class="st1" d="M29.3,64.7c-1,0-1.9,0.8-1.9,1.9s0.8,1.9,1.9,1.9h10c1,0,1.9-0.8,1.9-1.9v-10c0-1-0.8-1.9-1.9-1.9h-8.1v-6.2
				h8.1c1,0,1.9-0.8,1.9-1.9s-0.8-1.9-1.9-1.9h-10c-1,0-1.9,0.8-1.9,1.9v10c0,1,0.8,1.9,1.9,1.9h8.1v6.2H29.3z"/>
		</g>
		<g>
			<path class="st1" d="M58,48.5c1,0,1.9-0.8,1.9-1.9s-0.8-1.9-1.9-1.9H48c-1,0-1.9,0.8-1.9,1.9v20c0,1,0.8,1.9,1.9,1.9h10
				c1,0,1.9-0.8,1.9-1.9s-0.8-1.9-1.9-1.9h-8.1v-6.2H58c1,0,1.9-0.8,1.9-1.9c0-1-0.8-1.9-1.9-1.9h-8.1v-6.2H58z"/>
		</g>
		<g>
			<g>
				<path class="st1" d="M66.8,44.7c-1,0-1.9,0.8-1.9,1.9v20c0,1,0.8,1.9,1.9,1.9h10c1,0,1.9-0.8,1.9-1.9v-20c0-1-0.8-1.9-1.9-1.9
					H66.8z M74.9,64.7h-6.2V48.5h6.2V64.7z"/>
			</g>
		</g>
		<path class="st0" d="M129.8,87.5c0-0.9-0.7-1.7-1.6-1.8l-2.6-0.4l-1.2-3l1.5-2.1c0.5-0.7,0.5-1.8-0.2-2.4l-5.3-5.3
			c-0.7-0.7-1.7-0.7-2.4-0.2l-2.1,1.5l-3-1.2l-0.4-2.6c-0.1-0.9-0.9-1.6-1.9-1.6h0l-7.5,0c-0.9,0-1.7,0.7-1.8,1.6l-0.4,2.6l-3,1.2
			l-2.1-1.5c-0.7-0.5-1.8-0.5-2.4,0.2l-5.3,5.3c-0.7,0.7-0.7,1.7-0.2,2.4l1.5,2.1l-1.2,3l-2.6,0.4c-0.9,0.1-1.6,0.9-1.6,1.9l0,7.5
			c0,0.9,0.7,1.7,1.6,1.8l2.6,0.4l1.2,3l-1.5,2.1c-0.5,0.7-0.5,1.8,0.2,2.4l5.3,5.3c0.7,0.7,1.7,0.7,2.4,0.2l2.1-1.5l3,1.2l0.4,2.6
			c0.1,0.9,0.9,1.6,1.9,1.6h0l7.5,0c0.9,0,1.7-0.7,1.8-1.6l0.4-2.6l3-1.2l2.1,1.5c0.7,0.5,1.8,0.5,2.4-0.2l5.3-5.3
			c0.7-0.7,0.7-1.7,0.2-2.4l-1.5-2.1l1.2-3l2.6-0.4c0.9-0.1,1.6-0.9,1.6-1.9L129.8,87.5z M124,93.7c-0.6,0.1-1.2,0.5-1.4,1.1l-2,4.9
			c-0.2,0.6-0.2,1.3,0.2,1.8l1.2,1.7l-3,3l-1.7-1.2c-0.5-0.4-1.2-0.5-1.8-0.2l-4.9,2c-0.6,0.2-1,0.8-1.1,1.4l-0.3,2l-4.3,0l-0.3-2
			c-0.1-0.6-0.5-1.2-1.1-1.4l-4.9-2c-0.2-0.1-0.5-0.1-0.7-0.1c-0.4,0-0.8,0.1-1.1,0.4l-1.7,1.2l-3-3l1.2-1.7
			c0.4-0.5,0.5-1.2,0.2-1.8l-2-4.9c-0.2-0.6-0.8-1-1.4-1.1l-2-0.3l0-4.3l2-0.3c0.6-0.1,1.2-0.5,1.4-1.1l2-4.9
			c0.2-0.6,0.2-1.3-0.2-1.8l-1.2-1.7l3-3l1.7,1.2c0.5,0.4,1.2,0.5,1.8,0.2l4.9-2c0.6-0.2,1-0.8,1.1-1.4l0.3-2l4.3,0l0.3,2
			c0.1,0.6,0.5,1.2,1.1,1.4l4.9,2c0.6,0.2,1.3,0.2,1.8-0.2l1.7-1.2l3,3l-1.2,1.7c-0.4,0.5-0.5,1.2-0.2,1.8l2,4.9
			c0.2,0.6,0.8,1,1.4,1.1l2,0.3l0,4.3L124,93.7z"/>
		<g>
			<path class="st1" d="M114.9,89.4c-1,0-1.9,0.8-1.9,1.9c0,3.4-2.7,6.1-6.1,6.1c-3.4,0-6.1-2.7-6.1-6.1s2.7-6.1,6.1-6.1
				c0.9,0,1.7,0.2,2.5,0.5c0.9,0.4,2.1,0,2.5-0.9c0.4-0.9,0-2.1-0.9-2.5c-1.3-0.6-2.7-0.9-4.1-0.9c-5.4,0-9.8,4.4-9.8,9.8
				s4.4,9.8,9.8,9.8c5.4,0,9.8-4.4,9.8-9.8C116.7,90.2,115.9,89.4,114.9,89.4L114.9,89.4z"/>
		</g>
	</g>
</g>
</svg>
