<?xml version="1.0" encoding="utf-8"?>
<!-- Generator: Adobe Illustrator 22.0.1, SVG Export Plug-In . SVG Version: 6.00 Build 0)  -->
<svg version="1.1" id="Layer_1" xmlns="http://www.w3.org/2000/svg" xmlns:xlink="http://www.w3.org/1999/xlink" x="0px" y="0px"
	 viewBox="0 0 142.9 134.5" style="enable-background:new 0 0 142.9 134.5;" xml:space="preserve">
<style type="text/css">
	.st0{fill:#78DAC8;}
	.st1{fill:#005A97;}
</style>
<g>
	<g>
		<path class="st0" d="M106.8,37.5H36.6c-3.9,0-7,3.1-7,7v65.6c0,3.9,3.1,7,7,7h70.2c3.9,0,7-3.1,7-7V44.6
			C113.9,40.7,110.7,37.5,106.8,37.5z M109.2,110.1c0,1.3-1,2.3-2.3,2.3H36.6c-1.3,0-2.3-1-2.3-2.3V44.6c0-1.3,1-2.3,2.3-2.3h70.2
			c1.3,0,2.3,1,2.3,2.3V110.1z"/>
		<g>
			<g>
				<path class="st1" d="M100.4,59.3c0-4.7-3.8-8.5-8.5-8.5c-2.3,0-4.4,0.9-6,2.5L73.1,66c-0.2-0.6-0.3-1.3-0.3-1.9
					c0.1-4-1.5-7.9-4.3-10.7c-4.5-4.4-11.2-5.6-16.9-2.9c-1.1,0.5-1.5,1.8-1,2.8c0.1,0.2,0.2,0.4,0.4,0.6l7.6,7.5l-0.8,2.3l-2.3,0.8
					l-7.6-7.6c-0.5-0.5-1.2-0.7-1.9-0.6c-0.7,0.1-1.3,0.6-1.6,1.2c-2.3,4.9-1.8,10.7,1.4,15.1c2.8,3.9,7.3,6.1,12,6.1
					c1.5,0,2.9,0.5,4.1,1.4l-4.1,4.1h-2.1c-0.7,0-1.3,0.3-1.7,0.9l-7.5,10.5c-0.6,0.8-0.5,2,0.2,2.7l6,6c0.7,0.7,1.9,0.8,2.7,0.2
					l10.5-7.5c0.6-0.4,0.9-1,0.9-1.7v-2.1l4.1-4.1l12.4,12.4c1.6,1.6,3.8,2.5,6,2.5c4.7,0,8.5-3.8,8.5-8.5c0-2.3-0.9-4.4-2.5-6
					L84.6,78.5l13.3-13.3C99.5,63.7,100.4,61.5,100.4,59.3L100.4,59.3z M58,74.5L58,74.5c-5.9,0-10.6-4.7-10.6-10.5
					c0-0.5,0-1.1,0.1-1.6l6,6c0.6,0.6,1.4,0.8,2.2,0.5l4.5-1.5c0.6-0.2,1.1-0.7,1.3-1.3l1.5-4.5c0.3-0.8,0.1-1.6-0.5-2.2l-6-6
					c3.3-0.5,6.6,0.6,9,3c2,2,3.1,4.8,3.1,7.7c0,1.8,0.4,3.6,1.3,5.2l-0.6,0.6c-0.8,0.8-0.8,2.2,0,3L65,77.1
					C63.1,75.4,60.6,74.5,58,74.5L58,74.5z M63.3,90.8c-0.4,0.4-0.6,0.9-0.6,1.5v1.9l-8.2,5.8l-3.5-3.5l5.8-8.2h1.9
					c0.6,0,1.1-0.2,1.5-0.6l12-12l3,3L63.3,90.8z M92.5,92.4c1.7,1.7,1.7,4.3,0,6c-1.7,1.6-4.3,1.6-6,0L74.1,86.1l4.3-4.3
					c0.8,0.8,2.2,0.8,3,0l0.3-0.3L92.5,92.4z M94.9,62.3l-15,15l-6-6l15-15c1.7-1.6,4.3-1.6,6,0C96.5,57.9,96.5,60.6,94.9,62.3
					L94.9,62.3z"/>
			</g>
		</g>
		<path class="st0" d="M139.6,2.4H3.8c-1.3,0-2.3,1-2.3,2.3v126.4c0,1.3,1,2.3,2.3,2.3h135.8c1.3,0,2.3-1,2.3-2.3V4.8
			C142,3.5,140.9,2.4,139.6,2.4z M137.3,128.8H6.2v-103h131.1V128.8z M137.3,21.1H6.2v-14h131.1V21.1z"/>
		<path class="st0" d="M10.9,11.8h4.7v4.7h-4.7V11.8z"/>
		<path class="st0" d="M20.2,11.8h4.7v4.7h-4.7V11.8z"/>
		<path class="st0" d="M29.6,11.8h4.7v4.7h-4.7V11.8z"/>
	</g>
</g>
</svg>
