<?xml version="1.0" encoding="utf-8"?>
<!-- Generator: Adobe Illustrator 22.0.1, SVG Export Plug-In . SVG Version: 6.00 Build 0)  -->
<svg version="1.1" id="Layer_1" xmlns="http://www.w3.org/2000/svg" xmlns:xlink="http://www.w3.org/1999/xlink" x="0px" y="0px"
	 viewBox="0 0 133.7 133.8" style="enable-background:new 0 0 133.7 133.8;" xml:space="preserve">
<style type="text/css">
	.st0{fill:#005A97;}
	.st1{display:none;}
	.st2{display:inline;}
	.st3{fill:#9ACC72;}
</style>
<g>
	<g>
		<g>
			<g>
				<path class="st0" d="M111.6,26.7c-1.4,0-2.6,1.1-2.6,2.6c0,1.4,1.1,2.6,2.6,2.6s2.6-1.1,2.6-2.6C114.1,27.9,113,26.7,111.6,26.7
					z"/>
			</g>
		</g>
		<g>
			<g>
				<path class="st0" d="M21.4,26.7c-1.4,0-2.6,1.1-2.6,2.6c0,1.4,1.1,2.6,2.6,2.6c1.4,0,2.6-1.1,2.6-2.6
					C23.9,27.9,22.8,26.7,21.4,26.7z"/>
			</g>
		</g>
		<g class="st1">
			<g class="st2">
				<path class="st3" d="M129.5,57.4h-3.1c-1-7.4-3.3-14.4-6.9-20.9c-0.7-1.2-2.2-1.7-3.5-1c-1.2,0.7-1.7,2.2-1,3.5
					c3.2,5.8,5.3,11.9,6.2,18.4h-2c-1.4,0-2.6,1.1-2.6,2.6v10.2c0,1.4,1.1,2.6,2.6,2.6h10.2c1.4,0,2.6-1.1,2.6-2.6V60
					C132,58.6,130.9,57.4,129.5,57.4z"/>
				<polygon class="st3" points="126.9,67.7 121.8,67.7 121.8,62.6 124.1,62.6 124.1,62.6 124.1,62.6 126.9,62.6 				"/>
			</g>
		</g>
		<g>
			<g>
				<path class="st3" d="M94.6,76.1c0,0,0-0.1,0-0.1c0-0.1,0-0.1,0-0.2c0,0,0-0.1,0-0.1c0-0.1,0-0.1,0-0.2c0,0,0,0,0-0.1
					c0-0.1,0-0.2-0.1-0.2c0,0,0,0,0,0c0-0.1-0.1-0.2-0.1-0.2L68.7,28c-0.4-0.8-1.3-1.3-2.2-1.3c-0.9,0-1.8,0.5-2.2,1.3L38.6,74.9
					c0,0.1-0.1,0.2-0.1,0.2c0,0,0,0,0,0c0,0.1-0.1,0.1-0.1,0.2c0,0,0,0,0,0.1c0,0.1,0,0.1,0,0.2c0,0,0,0.1,0,0.1c0,0.1,0,0.1,0,0.2
					c0,0,0,0.1,0,0.1c0,0,0,0.1,0,0.1c0,0,0,0,0,0c0,0,0,0.1,0,0.1c0,0.1,0,0.1,0,0.2c0,0,0,0.1,0,0.1c0,0.1,0,0.1,0,0.2
					c0,0,0,0.1,0,0.1c0,0.1,0,0.1,0.1,0.2c0,0,0,0,0,0l9.2,24.5c-0.7,0.4-1.4,0.9-2,1.5c-1.5,1.5-2.3,3.4-2.3,5.4
					c0,3.3,2.1,6.2,5.1,7.2v14c0,1.4,1.1,2.6,2.6,2.6h30.7c1.4,0,2.6-1.1,2.6-2.6v-14c1.1-0.4,2-1,2.9-1.8c1.5-1.5,2.3-3.4,2.3-5.4
					c0-3-1.7-5.6-4.3-6.9l9.2-24.5c0,0,0,0,0,0c0-0.1,0-0.1,0.1-0.2c0,0,0-0.1,0-0.1c0-0.1,0-0.1,0-0.2c0,0,0-0.1,0-0.1
					c0-0.1,0-0.1,0-0.2c0,0,0-0.1,0-0.1C94.6,76.2,94.6,76.2,94.6,76.1C94.6,76.1,94.6,76.1,94.6,76.1z M66.5,73.6
					c1.4,0,2.6,1.1,2.6,2.6s-1.1,2.6-2.6,2.6s-2.6-1.1-2.6-2.6S65.1,73.6,66.5,73.6z M79.3,127.1H53.7v-11h25.6V127.1z M83.6,110.2
					c-0.5,0.5-1.1,0.8-1.8,0.8H51.1c-1.4,0-2.6-1.1-2.6-2.6c0-0.7,0.3-1.3,0.8-1.8c0.5-0.5,1.1-0.8,1.8-0.8h30.7c0,0,0,0,0,0
					c0,0,0,0,0,0c1.4,0,2.6,1.2,2.6,2.6C84.4,109.1,84.1,109.8,83.6,110.2z M80.1,100.7H52.9l-8.3-22h6.5c1.4,0,2.6-1.1,2.6-2.6
					c0-1.4-1.1-2.6-2.6-2.6h-5.9l18.7-34.3v29.6c-3,1.1-5.1,3.9-5.1,7.2c0,4.2,3.4,7.7,7.7,7.7s7.7-3.4,7.7-7.7
					c0-3.3-2.1-6.2-5.1-7.2V39.3l18.7,34.3h-5.9c-1.4,0-2.6,1.1-2.6,2.6c0,1.4,1.1,2.6,2.6,2.6h6.5L80.1,100.7z"/>
			</g>
		</g>
		<g>
			<g>
				<path class="st3" d="M16.9,35.5c-1.2-0.7-2.8-0.2-3.5,1C9.8,43,7.5,50.1,6.5,57.4H3.5c-1.4,0-2.6,1.1-2.6,2.6v10.2
					c0,1.4,1.1,2.6,2.6,2.6h10.2c1.4,0,2.6-1.1,2.6-2.6V60c0-1.4-1.1-2.6-2.6-2.6h-2c0.9-6.5,3-12.7,6.2-18.4
					C18.6,37.8,18.1,36.2,16.9,35.5z M12.7,61.5V69h-7v-7.5H12.7z"/>
				<path class="st0" d="M16.3,60v10.2c0,1.4-1.1,2.6-2.6,2.6H3.5c-1.4,0-2.6-1.1-2.6-2.6V60c0-1.4,1.1-2.6,2.6-2.6h3.1c0,0,0,0,0,0
					h5.2c0,0,0,0,0,0h2C15.1,57.4,16.3,58.6,16.3,60z M11.1,62.6H8.8c0,0,0,0,0,0c0,0,0,0,0,0H6v5.1h5.1V62.6z"/>
			</g>
		</g>
		<g>
			<g>
				<path class="st3" d="M115.2,39c3.2,5.8,5.3,11.9,6.2,18.4h-2c-1.4,0-2.6,1.1-2.6,2.6v10.2c0,1.4,1.1,2.6,2.6,2.6h10.2
					c1.4,0,2.6-1.1,2.6-2.6V60c0-1.4-1.1-2.6-2.6-2.6h-3.1c-1-7.4-3.3-14.4-6.9-20.9c-0.7-1.2-2.2-1.7-3.5-1
					C115,36.2,114.5,37.8,115.2,39z M127.4,61.5V69h-7v-7.5H127.4z"/>
				<path class="st0" d="M119.4,57.4h2c0,0,0,0,0,0h5.2c0,0,0,0,0,0h3.1c1.4,0,2.6,1.1,2.6,2.6v10.2c0,1.4-1.1,2.6-2.6,2.6h-10.2
					c-1.4,0-2.6-1.1-2.6-2.6V60C116.8,58.6,118,57.4,119.4,57.4z M122,67.7h5.1v-5.1h-2.8c0,0,0,0,0,0c0,0,0,0,0,0H122V67.7z"/>
			</g>
		</g>
		<g>
			<g>
				<path class="st3" d="M124.4,1.1c-3.3,0-6.2,2.1-7.2,5.1h-43V3.7c0-1.4-1.1-2.6-2.6-2.6H61.3c-1.4,0-2.6,1.1-2.6,2.6v2.6h-43
					c-1.1-3-3.9-5.1-7.2-5.1c-4.2,0-7.7,3.4-7.7,7.7s3.4,7.7,7.7,7.7c3.3,0,6.2-2.1,7.2-5.1h25.8c-5.5,2.3-10.5,5.3-14.6,8.7
					c-1.1,0.9-1.2,2.5-0.3,3.6c0.5,0.6,1.2,0.9,2,0.9c0.6,0,1.2-0.2,1.6-0.6c7.3-6.2,17.8-10.6,28.5-12.1v2c0,1.4,1.1,2.6,2.6,2.6
					h10.2c1.4,0,2.6-1.1,2.6-2.6v-2c10.7,1.5,21.2,5.9,28.5,12.1c0.5,0.4,1.1,0.6,1.6,0.6c0.7,0,1.5-0.3,2-0.9
					c0.9-1.1,0.8-2.7-0.3-3.6c-4.1-3.5-9.1-6.4-14.6-8.7h25.8c1.1,3,3.9,5.1,7.2,5.1c4.2,0,7.7-3.4,7.7-7.7S128.6,1.1,124.4,1.1z
					 M8.6,11.3C7.2,11.3,6,10.2,6,8.8s1.1-2.6,2.6-2.6s2.6,1.1,2.6,2.6S10,11.3,8.6,11.3z M69,8.8V9v2.3h-5.1V9V8.8V6.2H69V8.8z
					 M124.4,11.3c-1.4,0-2.6-1.1-2.6-2.6s1.1-2.6,2.6-2.6c1.4,0,2.6,1.1,2.6,2.6S125.8,11.3,124.4,11.3z"/>
			</g>
		</g>
		<path class="st0" d="M61.3,1.1h2c0,0,0,0,0,0h5.2c0,0,0,0,0,0h3.1c1.4,0,2.6,1.1,2.6,2.6v10.2c0,1.4-1.1,2.6-2.6,2.6H61.3
			c-1.4,0-2.6-1.1-2.6-2.6V3.6C58.7,2.2,59.9,1.1,61.3,1.1z M63.8,11.3H69V6.2h-2.8c0,0,0,0,0,0c0,0,0,0,0,0h-2.3V11.3z"/>
	</g>
</g>
</svg>
