<?xml version="1.0" encoding="utf-8"?>
<!-- Generator: Adobe Illustrator 22.0.1, SVG Export Plug-In . SVG Version: 6.00 Build 0)  -->
<svg version="1.1" id="Layer_1" xmlns="http://www.w3.org/2000/svg" xmlns:xlink="http://www.w3.org/1999/xlink" x="0px" y="0px"
	 viewBox="0 0 160.6 139.6" style="enable-background:new 0 0 160.6 139.6;" xml:space="preserve">
<style type="text/css">
	.st0{fill:#9CCE72;}
	.st1{fill:#005A99;}
</style>
<g>
	<path class="st0" d="M131.8,86.1h-30.2c9.1-12.1,18-28,18-44C119.6,20.5,102.1,3,80.5,3S41.4,20.5,41.4,42.1c0,16,8.9,31.9,18,44
		H29.2c-0.2,0-0.6,0.1-1,0.3c-0.5,0.3-0.8,0.6-1,0.8L2.7,123.8c-0.1,0.1-0.1,0.2-0.1,0.3c0,0.1-0.1,0.1-0.1,0.2
		c-0.1,0.3-0.2,0.5-0.2,0.8c0,0,0,0,0,0v9.8c0,1.4,1.1,2.4,2.4,2.4h151.5c1.4,0,2.4-1.1,2.4-2.4v-9.8c0,0,0,0,0,0
		c0-0.3-0.1-0.6-0.2-0.8c0-0.1-0.1-0.1-0.1-0.2c0-0.1-0.1-0.2-0.1-0.3l-24.4-36.7c-0.1-0.2-0.4-0.5-0.9-0.8
		C132.5,86.2,132.1,86.1,131.8,86.1z M136.2,122.8l-2.3-4.9h14.6l3.3,4.9H136.2z M126.9,103.2L121,91h9.5l8.1,12.2H126.9z M80.5,7.9
		c18.9,0,34.2,15.3,34.2,34.2c0,26.2-27.2,53.6-34.2,60.2c-0.7-0.7-3-3.1-3.8-3.7c-10-10.2-30.4-33.8-30.4-56.5
		C46.3,23.2,61.6,7.9,80.5,7.9z M104.2,103.2l2.1,7.3H54.7l2.1-7.3h17.5c2.5,2.5,4.2,4,4.5,4.3c0.5,0.4,1,0.6,1.6,0.6
		s1.2-0.2,1.6-0.6c0.3-0.3,2-1.8,4.5-4.3H104.2z M52.6,100.1l-3.5,12.2c0,0.1-0.2,1.4,0.7,2.3c0.6,0.7,1.5,0.8,1.7,0.8h0h58h0
		c0.2,0,1.2-0.2,1.9-1.2c0.6-0.8,0.5-1.7,0.5-1.9l-3.5-12.2c-0.1-0.2-0.3-0.8-0.9-1.3c-0.6-0.5-1.3-0.5-1.5-0.5c-4.9,0-9.7,0-14.6,0
		c2-2.1,4.2-4.6,6.4-7.3h17.8l7.5,15.7c0.1,0.2,0.4,0.6,0.9,1c0.6,0.4,1.1,0.4,1.3,0.4h16.6l3.3,4.9H130c-0.1,0-1.4-0.1-2.1,1
		c-0.5,0.7-0.6,1.7-0.1,2.5l3,6.3H30.2l11.1-23.4c0.1-0.2,0.5-1,0.1-1.9c-0.3-0.9-1.3-1.6-2.3-1.6h-12l3.3-4.9h32.7
		c2.2,2.7,4.4,5.2,6.4,7.3H55c-0.2,0-0.9,0.1-1.5,0.6C52.9,99.3,52.7,99.9,52.6,100.1L52.6,100.1z M24,100.8h11.3l-10.5,22H9.3
		L24,100.8z M153.8,132.5H7.2v-4.9h146.6V132.5z"/>
	<path class="st1" d="M119.6,42.1C119.6,20.5,102.1,3,80.5,3S41.4,20.5,41.4,42.1c0,16,8.9,31.9,18,44h-0.1c0.7,1,1.5,2.1,2.5,3.3
		c0.5,0.6,1,1.1,1.4,1.6c1,1.3,2.1,2.6,3.3,3.9c1.1,1.2,2.1,2.4,3.1,3.4c1.6,1.6,3.2,3.3,4.7,4.9c2.5,2.5,4.2,4,4.5,4.3
		c0.5,0.4,1,0.6,1.6,0.6s1.2-0.2,1.6-0.6c0.3-0.3,2-1.8,4.5-4.3c1.6-1.6,3.2-3.3,4.7-4.9c2-2.1,4.2-4.6,6.4-7.3
		c1.3-1.6,2.6-3.3,3.8-4.9C110.7,74,119.6,58.1,119.6,42.1z M80.5,102.3c-0.7-0.7-3-3.1-3.8-3.7c-10-10.2-30.4-33.8-30.4-56.5
		c0-18.9,15.3-34.2,34.2-34.2s34.2,15.3,34.2,34.2C114.7,68.3,87.5,95.7,80.5,102.3z"/>
	<circle class="st0" cx="80.5" cy="48" r="14.7"/>
</g>
</svg>
