<?xml version="1.0" encoding="utf-8"?>
<!-- Generator: Adobe Illustrator 22.0.1, SVG Export Plug-In . SVG Version: 6.00 Build 0)  -->
<svg version="1.1" id="Layer_1" xmlns="http://www.w3.org/2000/svg" xmlns:xlink="http://www.w3.org/1999/xlink" x="0px" y="0px"
	 viewBox="0 0 143.3 131.6" style="enable-background:new 0 0 143.3 131.6;" xml:space="preserve">
<style type="text/css">
	.st0{fill:#F2B44E;}
	.st1{fill:#005A99;}
</style>
<g>
	<g>
		<path class="st0" d="M109.8,66.4c0,18.8,0,37.6,0,56.4c0,6.6-1.2,7.9-7.6,7.9c-20.3,0-40.6,0-60.8,0c-6.6,0-7.8-1.2-7.8-7.7
			c0-37.9,0-75.8,0-113.6c0-5.9,1.3-7.2,7-7.2c20.7,0,41.4,0,62.1,0c6,0,7.2,1.2,7.2,7.4C109.8,28.5,109.8,47.4,109.8,66.4z
			 M106.3,62.4c0-14.4,0-28.8,0-43.1c0-2.7-0.3-4.1-3.7-4.1c-20.3,0.2-40.6,0.1-60.9,0c-3.6,0-4.9,1.2-4.9,4.9
			c0.1,28.5,0.1,57,0,85.5c0,3.7,1.3,4.8,4.9,4.8c19.9-0.1,39.8-0.2,59.7,0c4,0,5-1.5,4.9-5.2C106.2,90.8,106.3,76.6,106.3,62.4z
			 M71.6,113.7c-9,0-18,0-27,0c-8.3,0-7.7-0.8-7.7,7.9c0,5.5,0,5.5,5.7,5.5c18.3,0,36.5,0.1,54.8,0c9.9,0,8.8,1.3,9-9.1
			c0.1-3.4-1.2-4.4-4.5-4.4C91.8,113.8,81.7,113.7,71.6,113.7z M71.6,11.7c10.2,0,20.4,0,30.6,0c2.2,0,4.1,0,4-3
			c0-2.9-1.9-3.1-4.1-3.1c-20.4,0-40.8,0-61.2,0c-2.2,0-4,0.2-4,3.1c0,3,2,3,4.1,3C51.2,11.7,61.4,11.7,71.6,11.7z"/>
		<path class="st0" d="M5.9,66.5c0.2,1.8,1.7,2,2.8,2.6c6.4,3.6,12.9,7.2,19.4,10.7c0.8,0.5,1.6,0.9,2.4,1.4c1.1,0.7,1.9,1.8,1.1,3
			c-0.9,1.3-2,0.1-2.8-0.3C22,80.3,15.2,76.5,8.4,72.7c-1.2-0.6-2.3-1.4-3.5-1.9c-2.6-1.2-2.7-3.4-2.7-5.8c0-2.2,0.8-3.7,2.9-4.7
			c7.8-3.8,15.5-7.9,23.3-11.9c0.9-0.5,2.2-1.8,3.1-0.2c0.8,1.5-0.4,2.5-1.6,3.2c-6.1,3.1-12.2,6.2-18.3,9.4c-1,0.5-2.7,0.7-2.8,2
			c-0.1,1.4,1.6,1.6,2.5,2.2c5.6,3.2,11.3,6.3,16.9,9.4c0.8,0.5,1.7,0.9,2.4,1.4c0.9,0.7,1.6,1.7,1,2.8c-0.8,1.4-1.9,0.4-2.7-0.1
			c-6.6-3.6-13.2-7.2-19.8-10.8C8.2,67.1,7.4,66,5.9,66.5z"/>
		<path class="st0" d="M137.5,66.2c-2.1-0.1-3.3,1-4.7,1.7c-6.1,3.4-12.2,6.8-18.3,10.1c-0.9,0.5-2.2,1.9-3.1,0.3
			c-0.8-1.4,0.3-2.5,1.6-3.2c5.6-3.1,11.3-6.2,16.9-9.4c1.6-0.9,4.3-1.2,4.3-3.1c-0.1-1.8-2.8-2.1-4.4-3c-4.7-2.5-9.5-4.9-14.3-7.4
			c-0.8-0.4-1.7-0.9-2.5-1.3c-1.1-0.6-2.2-1.5-1.6-2.9c0.8-1.8,2.1-0.4,3,0c5.5,2.7,11,5.5,16.5,8.3c2.2,1.1,4.3,2.3,6.5,3.2
			c2.3,1,3.6,2.3,3.6,5.1c0,2.8-0.8,4.8-3.4,6.2c-7.6,4-15,8.3-22.6,12.4c-1,0.6-2.4,2.1-3.4,0.4c-1-1.7,0.6-2.6,1.9-3.4
			c6.6-3.6,13.2-7.2,19.7-10.9C134.7,68.8,136.5,68.3,137.5,66.2z"/>
		<path class="st0" d="M71.4,101.6c-0.9-0.4-1.8-0.8-2.6-1.2c-9.2-5-18.4-10.1-27.5-15.1c-0.5-0.3-0.9-0.5-1.4-0.8
			c-1.1-0.7-2-1.7-1.3-3c0.9-1.6,2.2-0.3,3.1,0.2c8.7,4.8,17.5,9.5,26.1,14.5c2.8,1.6,4.9,1.6,7.7,0c8.6-5,17.3-9.7,26.1-14.4
			c0.9-0.5,2.2-2,3.1-0.6c1,1.5-0.3,2.7-1.7,3.5c-9.7,5.4-19.5,10.8-29.3,16.2C73,101.1,72.2,101.3,71.4,101.6z"/>
		<path class="st0" d="M71.4,107.1c-0.9-0.4-1.7-0.7-2.6-1.1c-9.3-5.1-18.6-10.2-27.9-15.3c-0.5-0.3-0.9-0.5-1.4-0.8
			c-1-0.7-1.6-1.7-1-2.8c0.8-1.5,1.9-0.4,2.7,0c6,3.2,12,6.6,18,9.9c1.4,0.8,3,1.3,4.2,2.4c5.6,4.9,10.8,3.6,16.5-0.1
			c7-4.5,14.5-8.2,21.8-12.2c0.8-0.5,1.9-1.7,2.8-0.5c0.8,1.1,0.2,2.4-1,3.1c-10.2,5.7-20.4,11.3-30.6,17
			C72.5,106.9,72,107,71.4,107.1z"/>
		<path class="st0" d="M39.9,46.2c-1.9,0-1.8-1.3-1.3-2.2c0.5-0.8,1.6-1.4,2.5-1.9c9.2-4.7,18.4-9.4,27.5-14.2c2.1-1.1,3.9-1.2,6,0
			c9,4.7,18.2,9.2,27.3,13.8c0.6,0.3,1.2,0.6,1.7,1c1,0.6,1.6,1.6,1.1,2.7c-0.7,1.5-1.9,0.5-2.7,0.1c-8.8-4.5-17.7-8.9-26.5-13.6
			c-2.8-1.5-5-1.5-7.8,0.1c-8.4,4.5-16.9,8.8-25.4,13.1C41.5,45.4,40.7,45.8,39.9,46.2z"/>
		<path class="st0" d="M71.6,116.6c2.5,0,4.5,1.9,4.6,4.3c0,2.5-2.3,4.7-4.7,4.6c-2.3-0.1-4.4-2.3-4.4-4.6
			C67.2,118.5,69.1,116.6,71.6,116.6z"/>
		<path class="st0" d="M71.6,9.9c-2.3,0-4.6,0-6.9,0c-0.8,0-1.8-0.2-1.8-1.3c0-0.9,0.8-1.2,1.5-1.2c4.8,0,9.5,0,14.3,0
			c0.7,0,1.5,0.3,1.5,1.2c0,0.9-0.8,1.2-1.5,1.2C76.4,9.8,74,9.8,71.6,9.9C71.6,9.8,71.6,9.8,71.6,9.9z"/>
	</g>
	<g>
		<g>
			<path class="st1" d="M92.7,63.9c0,3.2,0,6.4,0,9.6c0,0.7-0.3,1.2-0.9,1.6c-5,3.3-10.1,6.7-15.1,10.1c-1.5,1-3,2-4.4,3
				c-0.5,0.3-1,0.3-1.5,0c-4.1-2.7-8.1-5.4-12.2-8.2c-2.5-1.7-5-3.3-7.5-5c-0.5-0.3-0.7-0.8-0.7-1.4c0-6.5,0-13,0-19.5
				c0-0.5,0.2-0.9,0.6-1.2c4.3-2.9,8.6-5.7,12.9-8.6c2.3-1.5,4.6-3,6.8-4.6c0.6-0.4,1-0.4,1.6,0c2.5,1.7,5.1,3.4,7.6,5.1
				c4.1,2.7,8.1,5.4,12.2,8.1c0.4,0.3,0.6,0.7,0.6,1.2C92.7,57.4,92.7,60.6,92.7,63.9z M90,53.8c-0.1-0.2-0.3-0.3-0.6-0.5
				c-2.5-1.7-5-3.4-7.6-5.1c-3.3-2.2-6.5-4.3-9.8-6.5c-0.4-0.3-0.6-0.2-1,0c-2.1,1.4-4.2,2.9-6.4,4.3c-3.8,2.5-7.5,5-11.3,7.5
				c-0.3,0.2-0.3,0.3,0,0.5c5.8,3.9,11.6,7.7,17.4,11.6c0.8,0.5,0.6,0.6,1.5,0c4.4-3,8.9-5.9,13.3-8.9c1.3-0.9,2.6-1.7,3.9-2.6
				C89.7,54.1,89.9,54,90,53.8z M72.5,85.7c0.5-0.3,0.9-0.6,1.3-0.9c2-1.3,4-2.7,6-4c3.6-2.4,7.1-4.7,10.7-7.1
				c0.3-0.2,0.4-0.4,0.4-0.8c0-5.6,0-11.2,0-16.8c0-0.2,0.1-0.4-0.1-0.5c-0.2-0.1-0.3,0.1-0.5,0.2c-3.1,2-6.1,4.1-9.2,6.1
				c-2.7,1.8-5.3,3.6-8,5.3c-0.4,0.3-0.6,0.6-0.6,1.1c0,5.3,0,10.6,0,16C72.5,84.8,72.5,85.2,72.5,85.7z M52.3,64.5
				c0,2.8,0,5.5,0,8.3c0,0.5,0.2,0.8,0.6,1c2.6,1.7,5.2,3.5,7.8,5.2c3.2,2.1,6.4,4.2,9.5,6.3c0.1,0.1,0.2,0.3,0.4,0.2
				c0.1-0.1,0.1-0.3,0.1-0.4c0-0.1,0-0.2,0-0.3c0-5.6,0-11.2,0-16.8c0-0.3-0.1-0.4-0.3-0.6c-1-0.7-2-1.3-3-2
				c-2.5-1.7-5.1-3.4-7.6-5.1c-2.3-1.5-4.6-3.1-7-4.6c-0.1-0.1-0.3-0.2-0.4-0.2c-0.2,0.1-0.1,0.3-0.1,0.5
				C52.3,58.9,52.3,61.7,52.3,64.5z"/>
		</g>
	</g>
	<g>
		<g>
			<path class="st1" d="M90.9,63.9c0,2.9,0,5.8,0,8.8c0,0.7-0.2,1.1-0.8,1.4c-4.6,3-9.2,6.1-13.8,9.2c-1.3,0.9-2.7,1.8-4,2.7
				c-0.5,0.3-0.9,0.3-1.3,0c-3.7-2.5-7.4-5-11.2-7.4c-2.3-1.5-4.5-3-6.8-4.5c-0.5-0.3-0.7-0.7-0.7-1.3c0-5.9,0-11.9,0-17.8
				c0-0.5,0.2-0.8,0.5-1.1c3.9-2.6,7.9-5.2,11.8-7.9c2.1-1.4,4.2-2.8,6.2-4.2c0.5-0.4,0.9-0.4,1.4,0c2.3,1.5,4.6,3.1,6.9,4.6
				c3.7,2.5,7.4,5,11.1,7.4c0.4,0.3,0.5,0.6,0.5,1.1C90.9,57.9,90.9,60.9,90.9,63.9z M88.4,54.7c-0.1-0.2-0.3-0.3-0.5-0.4
				c-2.3-1.5-4.6-3.1-6.9-4.6c-3-2-5.9-3.9-8.9-5.9c-0.3-0.2-0.6-0.2-0.9,0c-1.9,1.3-3.9,2.6-5.8,3.9c-3.4,2.3-6.9,4.6-10.3,6.9
				c-0.3,0.2-0.3,0.3,0,0.5c5.3,3.5,10.6,7.1,15.9,10.6c0.7,0.5,0.5,0.5,1.3,0c4.1-2.7,8.1-5.4,12.2-8.1c1.2-0.8,2.4-1.6,3.5-2.4
				C88.1,54.9,88.3,54.8,88.4,54.7z M72.4,83.8c0.5-0.3,0.9-0.5,1.2-0.8c1.8-1.2,3.6-2.5,5.5-3.7c3.2-2.2,6.5-4.3,9.7-6.5
				c0.3-0.2,0.4-0.4,0.4-0.8c0-5.1,0-10.2,0-15.3c0-0.2,0.1-0.4-0.1-0.4c-0.2-0.1-0.3,0.1-0.4,0.2c-2.8,1.9-5.6,3.7-8.4,5.6
				c-2.4,1.6-4.9,3.3-7.3,4.9c-0.4,0.3-0.6,0.5-0.6,1c0,4.9,0,9.7,0,14.6C72.4,83,72.4,83.3,72.4,83.8z M54,64.4c0,2.5,0,5,0,7.6
				c0,0.4,0.2,0.7,0.5,1c2.4,1.6,4.8,3.2,7.2,4.8c2.9,1.9,5.8,3.9,8.7,5.8c0.1,0.1,0.2,0.3,0.4,0.2c0.1-0.1,0.1-0.3,0.1-0.4
				c0-0.1,0-0.2,0-0.2c0-5.1,0-10.2,0-15.3c0-0.2-0.1-0.4-0.3-0.5c-0.9-0.6-1.8-1.2-2.7-1.8c-2.3-1.5-4.6-3.1-6.9-4.6
				c-2.1-1.4-4.2-2.8-6.4-4.2c-0.1-0.1-0.3-0.2-0.4-0.2c-0.2,0.1-0.1,0.3-0.1,0.4C54,59.3,54,61.9,54,64.4z"/>
		</g>
	</g>
</g>
</svg>
