<?xml version="1.0" encoding="utf-8"?>
<!-- Generator: Adobe Illustrator 22.0.1, SVG Export Plug-In . SVG Version: 6.00 Build 0)  -->
<svg version="1.1" id="Layer_1" xmlns="http://www.w3.org/2000/svg" xmlns:xlink="http://www.w3.org/1999/xlink" x="0px" y="0px"
	 viewBox="0 0 109.1 145.8" style="enable-background:new 0 0 109.1 145.8;" xml:space="preserve">
<style type="text/css">
	.st0{fill:#4286FF;}
	.st1{fill:#9CCE72;}
	.st2{display:none;fill:#005A99;}
	.st3{fill:#005A99;}
</style>
<g>
	<path class="st0" d="M9.3,70.6h4.4V60.6c0-1.2-1-2.2-2.2-2.2c-1.2,0-2.2,1-2.2,2.2V70.6z"/>
	<path class="st0" d="M13.7,51.8c0-0.6-0.2-1.1-0.6-1.6L12.8,50c-0.1-0.1-0.3-0.2-0.4-0.2c-0.1-0.1-0.3-0.1-0.4-0.1
		c-0.1,0-0.3,0-0.4,0c-0.6,0-1.1,0.2-1.6,0.6c-0.5,0.5-0.8,1.3-0.6,2c0.1,0.7,0.7,1.3,1.3,1.6c0.3,0.1,0.5,0.2,0.8,0.2
		c0.6,0,1.1-0.2,1.6-0.6C13.5,52.9,13.7,52.4,13.7,51.8z"/>
	<g>
		<path class="st1" d="M9.3,70.6h4.4V60.6c0-1.2-1-2.2-2.2-2.2c-1.2,0-2.2,1-2.2,2.2V70.6z"/>
		<path class="st1" d="M13.7,51.8c0-0.6-0.2-1.1-0.6-1.6L12.8,50c-0.1-0.1-0.3-0.2-0.4-0.2c-0.1-0.1-0.3-0.1-0.4-0.1
			c-0.1,0-0.3,0-0.4,0c-0.6,0-1.1,0.2-1.6,0.6c-0.5,0.5-0.8,1.3-0.6,2c0.1,0.7,0.7,1.3,1.3,1.6c0.3,0.1,0.5,0.2,0.8,0.2
			c0.6,0,1.1-0.2,1.6-0.6C13.5,52.9,13.7,52.4,13.7,51.8z"/>
		<path class="st1" d="M97.2,55v15.6c0,1.2,1,2.2,2.2,2.2c1.2,0,2.2-1,2.2-2.2V55H97.2z"/>
		<path class="st1" d="M86.2,144H24.7c-8.5,0-15.4-6.9-15.4-15.4v-43c0-1.2,1-2.2,2.2-2.2c1.2,0,2.2,1,2.2,2.2v43
			c0,6.1,4.9,11,11,11h61.5c6.1,0,11-4.9,11-11v-43c0-1.2,1-2.2,2.2-2.2c1.2,0,2.2,1,2.2,2.2v43C101.6,137.1,94.7,144,86.2,144z"/>
		<path class="st1" d="M99.4,124.3H11.5c-1.2,0-2.2-1-2.2-2.2V85.7c0-1.2,1-2.2,2.2-2.2c1.2,0,2.2,1,2.2,2.2v34.2h83.5V85.7
			c0-1.2,1-2.2,2.2-2.2c1.2,0,2.2,1,2.2,2.2v36.4C101.6,123.3,100.6,124.3,99.4,124.3z"/>
		<path class="st1" d="M57.7,135.3h-4.4c-1.2,0-2.2-1-2.2-2.2c0-1.2,1-2.2,2.2-2.2h4.4c1.2,0,2.2,1,2.2,2.2
			C59.9,134.3,58.9,135.3,57.7,135.3z"/>
		<path class="st2" d="M39.9,98.7c-0.7,0-1.4-0.3-1.9-0.8L20.1,80c-1-1-1-2.7,0-3.8L38,58.4c1-1,2.7-1,3.8,0l2.8,2.8
			c1,1,1,2.7,0,3.8L31.5,78.1l13.1,13.1c1,1,1,2.7,0,3.8l-2.8,2.8C41.3,98.4,40.6,98.7,39.9,98.7z M39.9,60.3L22,78.1L39.9,96
			l2.8-2.8L28.6,79.1c-0.5-0.5-0.5-1.4,0-1.9l14.1-14.1L39.9,60.3z"/>
		<path class="st2" d="M68,98.7c-0.7,0-1.4-0.3-1.9-0.8l-2.8-2.8c-1-1-1-2.7,0-3.8l13.1-13.1L63.3,65c-1-1-1-2.7,0-3.8l2.8-2.8
			c1-1,2.7-1,3.8,0l17.9,17.9c1,1,1,2.7,0,3.8L69.9,97.9C69.4,98.4,68.7,98.7,68,98.7z M68,60.3l-2.8,2.8l14.1,14.1
			c0.5,0.5,0.5,1.4,0,1.9L65.2,93.2L68,96l17.9-17.9L68,60.3z"/>
	</g>
</g>
<path class="st3" d="M81.8,33.6c0-2.6,0-5.1,0-7.6c0-2.1,1.3-3.8,3.3-4.3c0.4-0.1,0.8-0.1,1.2-0.1c5.5,0,10.9,0,16.4,0
	c2.8,0,4.6,1.8,4.6,4.6c0,5.5,0,10.9,0,16.4c0,2.6-1.9,4.5-4.5,4.5c-5.5,0-11.1,0-16.6,0c-2.4,0-4.2-1.7-4.4-4.1
	c-0.1-1.7,0-3.4,0-5.1c0-0.3,0-0.6,0-1c-0.2,0-0.3,0-0.4,0c-4.3,0-8.5,0-12.8,0c-0.4,0-0.7,0.1-0.9,0.5C64,43.2,60.3,49.1,56.6,55
	c-0.3,0.4-0.7,0.9-1.1,1.1c-0.7,0.4-1.5,0-2-0.8c-1.5-2.6-3-5.2-4.4-7.9c-2.1-3.7-4.1-7.3-6.2-11c-0.2-0.4-0.4-0.5-0.8-0.5
	c-4.6,0-9.2,0-13.8,0c-0.5,0-0.7,0.2-0.8,0.7c-0.8,2.6-1.6,5.1-2.5,7.7c-0.4,1.1-0.8,1.4-1.9,1.4c-5.1,0-10.1,0-15.2,0
	c-1,0-1.5-0.4-1.9-1.3c-1.6-4.8-3.1-9.6-4.7-14.5c-0.4-1.1-0.2-1.6,0.7-2.3c4.1-3,8.2-6,12.4-9c0.7-0.5,1.4-0.6,2.1,0
	c4.2,3,8.4,6.1,12.6,9.1c0.7,0.5,0.9,1.1,0.6,2c-0.3,1-0.6,2-1,3.1c0.3,0,0.6,0,0.8,0c4.5,0,9,0,13.6,0c1,0,1.6,0.4,2.1,1.2
	c2.6,4.6,5.1,9.2,7.7,13.7c0.1,0.2,0.2,0.3,0.4,0.6c0-7.4,0-14.7,0-22c-2.2,0-4.3,0-6.5,0c-1.1,0-2.1-0.3-3-0.9
	c-2.5-1.7-3.3-4.8-1.8-7.5c2.7-4.8,5.5-9.5,8.2-14.3c2.1-3.5,7.4-3.6,9.5-0.1c2.8,4.8,5.6,9.6,8.3,14.4c2.1,3.7-0.6,8.2-4.8,8.3
	c-1.9,0-3.8,0-5.8,0c-0.3,0-0.5,0-0.8,0c0,7.5,0,15,0,22.5c0.2-0.2,0.3-0.4,0.4-0.5c2.8-4.5,5.6-8.9,8.3-13.4
	c0.6-0.9,1.2-1.3,2.3-1.3c4.4,0,8.9,0,13.3,0C81.2,33.6,81.4,33.6,81.8,33.6z M94.5,24.8C94.5,24.8,94.5,24.8,94.5,24.8
	c-2.7,0-5.5,0-8.2,0c-0.9,0-1.3,0.4-1.3,1.2c0,5.5,0,11.1,0,16.6c0,0.8,0.4,1.2,1.2,1.2c5.5,0,11,0,16.5,0c0.9,0,1.3-0.4,1.3-1.3
	c0-5.4,0-10.9,0-16.3c0-1-0.4-1.4-1.4-1.4C99.9,24.8,97.2,24.8,94.5,24.8z M15.4,42.4C15.4,42.4,15.4,42.4,15.4,42.4
	c2,0,4.1,0,6.1,0c0.4,0,0.7-0.1,0.8-0.5c1.2-3.9,2.5-7.7,3.8-11.6c0.1-0.4,0.2-0.6-0.2-0.9c-3.3-2.4-6.6-4.8-9.9-7.2
	c-0.3-0.3-0.6-0.3-1,0c-3.3,2.4-6.7,4.9-10,7.3c-0.3,0.2-0.4,0.4-0.2,0.7c1.3,3.9,2.6,7.8,3.8,11.7c0.1,0.4,0.3,0.5,0.7,0.5
	C11.4,42.3,13.4,42.4,15.4,42.4z M54.9,23c2.6,0,5.3,0,7.9,0c2.1,0,3.2-1.8,2.2-3.7c-0.5-0.9-1-1.7-1.5-2.6
	c-2.2-3.8-4.4-7.6-6.6-11.4c-0.9-1.6-3.1-1.6-4,0c-2.7,4.7-5.5,9.4-8.2,14.1c-1,1.7,0.2,3.5,2.1,3.5C49.6,23,52.3,23,54.9,23z"/>
</svg>
