<?xml version="1.0" encoding="utf-8"?>
<!-- Generator: Adobe Illustrator 22.0.1, SVG Export Plug-In . SVG Version: 6.00 Build 0)  -->
<svg version="1.1" id="Layer_1" xmlns="http://www.w3.org/2000/svg" xmlns:xlink="http://www.w3.org/1999/xlink" x="0px" y="0px"
	 viewBox="0 0 136.1 134.5" style="enable-background:new 0 0 136.1 134.5;" xml:space="preserve">
<style type="text/css">
	.st0{fill:#005A97;}
	.st1{fill:#E06D6F;}
</style>
<g id="Page-1_2_">
	<g id="_x30_18---AR-Mobile-Headset_1_" transform="translate(-1)">
		<path id="Shape_17_" class="st0" d="M49.4,43.4c-7.1,0-12.3,8.8-12.8,9.9c-0.4,0.7-0.4,1.5,0,2.1c0.6,1,5.7,9.9,12.8,9.9
			s12.3-8.8,12.8-9.9c0.4-0.7,0.4-1.5,0-2.1C61.6,52.2,56.5,43.4,49.4,43.4z M49.4,60.9c-3.3,0-6.7-4.1-8.4-6.6
			c1.6-2.5,5-6.6,8.4-6.6s6.7,4.1,8.4,6.6C56.1,56.8,52.7,60.9,49.4,60.9z"/>
		<path id="Shape_15_" class="st0" d="M101.5,55.4c0.4-0.7,0.4-1.5,0-2.1c-0.6-1-5.7-9.9-12.8-9.9s-12.3,8.8-12.8,9.9
			c-0.4,0.7-0.4,1.5,0,2.1c0.6,1,5.7,9.9,12.8,9.9S100.9,56.4,101.5,55.4L101.5,55.4z M88.7,60.9c-3.3,0-6.7-4.1-8.4-6.6
			c1.6-2.5,5-6.6,8.4-6.6s6.7,4.1,8.4,6.6C95.4,56.8,92,60.9,88.7,60.9z"/>
		<path id="Shape_8_" class="st1" d="M31.9,45.6c1.2,0,2.2-1,2.2-2.2V39c0-1.2,1-2.2,2.2-2.2h4.4c1.2,0,2.2-1,2.2-2.2
			s-1-2.2-2.2-2.2h-4.4c-3.6,0-6.6,2.9-6.6,6.6v4.4C29.7,44.6,30.7,45.6,31.9,45.6z"/>
		<path id="Shape_7_" class="st1" d="M101.8,32.5h-4.4c-1.2,0-2.2,1-2.2,2.2s1,2.2,2.2,2.2h4.4c1.2,0,2.2,1,2.2,2.2v4.4
			c0,1.2,1,2.2,2.2,2.2s2.2-1,2.2-2.2V39C108.3,35.4,105.4,32.5,101.8,32.5z"/>
		<path id="Shape_5_" class="st1" d="M40.6,74h-4.4c-1.2,0-2.2-1-2.2-2.2v-4.4c0-1.2-1-2.2-2.2-2.2c-1.2,0-2.2,1-2.2,2.2v4.4
			c0,3.6,2.9,6.6,6.6,6.6h4.4c1.2,0,2.2-1,2.2-2.2S41.8,74,40.6,74z"/>
		<path id="Shape_4_" class="st1" d="M106.1,65.2c-1.2,0-2.2,1-2.2,2.2v4.4c0,1.2-1,2.2-2.2,2.2h-4.4c-1.2,0-2.2,1-2.2,2.2
			s1,2.2,2.2,2.2h4.4c3.6,0,6.6-2.9,6.6-6.6v-4.4C108.3,66.2,107.3,65.2,106.1,65.2z"/>
		<path id="Shape_1_" class="st1" d="M125.8,17.2H98.5C88.8,3.1,72.3,2,71.4,1.9h-5c-0.7,0-17.2,1.2-27,15.3H12.2
			c-4.8,0-8.7,3.9-8.7,8.7v61.1c0,4.8,3.9,8.7,8.7,8.7h35l0.6,0.8c0.3,4,0.1,7.9-0.6,11.9c-10.9,5-22.5,8.3-34.3,9.9
			c-5.5,0.9-9.5,5.7-9.4,11.3v1c0,1.2,1,2.2,2.2,2.2h126.6c1.2,0,2.2-1,2.2-2.2v-1c0.1-5.6-3.9-10.4-9.4-11.3
			c-11.9-1.6-23.4-5-34.3-9.9c-0.7-3.8-0.9-7.6-0.6-11.4c0-0.5-0.1-0.2,0.6-1.2h35c4.8,0,8.7-3.9,8.7-8.7V25.9
			C134.5,21.1,130.6,17.2,125.8,17.2z M66.6,6.3h4.7c8.3,0.9,16,4.8,21.7,10.9H45C50.6,11.1,58.3,7.2,66.6,6.3z M7.9,39.7l3,2.8
			c0.9,0.8,1.4,2,1.4,3.2v21.6c0,1.2-0.5,2.4-1.4,3.2l-3,2.8V39.7z M8,128.6c0.4-2.9,2.6-5.3,5.6-5.8c5-0.7,9.9-1.7,14.8-3
			c1.1,3.2,2.7,6.1,4.7,8.8H8z M109.7,119.8c4.9,1.3,9.8,2.3,14.8,3c2.9,0.5,5.2,2.9,5.6,5.8H105C107,125.9,108.6,122.9,109.7,119.8
			z M94,121c0.7,0.4,1.5,0.5,2.2,0.1c0.7-0.4,1.2-1.1,1.2-1.9s-0.4-1.5-1-1.9c-1.2-0.8-2.3-1.8-3.1-3c4,1.6,8.1,3.1,12.2,4.3
			c-1.3,3.9-3.6,7.3-6.6,10H39.2c-3.1-2.7-5.4-6.1-6.6-10c4.1-1.2,8.2-2.6,12.2-4.3c-0.8,1.2-1.9,2.2-3.1,3c-0.7,0.4-1.1,1.2-1,1.9
			c0,0.8,0.5,1.5,1.2,1.9s1.5,0.3,2.2-0.1c7.1-4.5,8.3-12.8,8.3-19.4c3.8,3.7,8.4,6.6,13.4,8.4c2.1,0.9,4.5,0.9,6.6,0
			c5-1.8,9.6-4.7,13.4-8.4C85.8,108.2,87,116.4,94,121L94,121z M52.9,95.8h32.3c-3.6,4.3-8.3,7.6-13.5,9.7c-1.3,0.8-3,1-4.5,0.4
			C61.7,103.8,56.7,100.3,52.9,95.8L52.9,95.8z M119.2,87.1c0,2.4-2,4.4-4.4,4.4H12.2c-2.4,0-4.4-2-4.4-4.4v-7.8l6-5.6
			c1.8-1.7,2.8-4,2.8-6.4V45.7c0-2.4-1-4.7-2.8-6.4l-6-5.6v-7.8c0-2.4,2-4.4,4.4-4.4h102.6c2.4,0,4.4,2,4.4,4.4V87.1z M130.2,87.1
			c0,2.4-2,4.4-4.4,4.4h-3.4c0.8-1.3,1.2-2.8,1.2-4.4V25.9c0-1.5-0.4-3-1.2-4.4h3.4c2.4,0,4.4,2,4.4,4.4V87.1z"/>
	</g>
</g>
</svg>
