<?xml version="1.0" encoding="utf-8"?>
<!-- Generator: Adobe Illustrator 22.0.1, SVG Export Plug-In . SVG Version: 6.00 Build 0)  -->
<svg version="1.1" id="Layer_1" xmlns="http://www.w3.org/2000/svg" xmlns:xlink="http://www.w3.org/1999/xlink" x="0px" y="0px"
	 viewBox="0 0 125.6 124.4" style="enable-background:new 0 0 125.6 124.4;" xml:space="preserve">
<style type="text/css">
	.st0{fill:#005A99;}
	.st1{fill:#9CCE72;}
</style>
<g id="Email_maketing">
	<path class="st0" d="M61.6,23.3l-12.9,3.5c-6.3,1.6-10.3,7.6-9.4,14c1.2,6.6,7.5,11.1,14.1,9.9c0.4-0.1,0.7-0.1,1.1-0.2l2-0.5
		l3.6,13.6c0.3,1.3,1,2.4,2,3.3c1.5,1.3,3.6,1.8,5.6,1.3c1.9-0.5,3.5-2,4.2-3.9c0.4-1.2,0.4-2.6,0.1-3.8l-3.6-13.4l33.5,3.3
		c0.5,0,1,0,1.4-0.1l5.5-1.5c0,0,0,0,0,0c1.4-0.4,2.4-1.7,2.6-3.2c0.1-0.9,0.1-2-0.1-3.2c-0.1-0.4-0.2-0.8-0.3-1.2l-9.9-36.8
		c-0.6-2.2-2.8-3.5-5-2.9l0,0l-5.5,1.5c-0.9,0.2-1.7,0.8-2.3,1.6C79.1,10.9,70.8,16.8,61.6,23.3z M53.4,46.6
		c-4.3,1.2-8.8-1.4-10-5.8c-1.2-4.3,1.4-8.8,5.8-10L61,27.7l4.2,15.7L53.4,46.6z M66.6,64.1c-1.1,0.3-2.2-0.4-2.5-1.4l-3.7-13.8
		l3.9-1.1L68,61.6C68.3,62.7,67.6,63.8,66.6,64.1z M97.2,5.3l10.5,39.3l-3.9,1.1L93.2,6.4L97.2,5.3z M89.5,8.3l10.1,37.6l-30.3-2.9
		L64.8,26L89.5,8.3z"/>
	<path class="st1" d="M122,50.5l-2.5-2.2c-1.2,0.7-2.5,1.4-3.7,2.2l2.9,2.5L79.6,84.3L66.9,74.1c-2.2-1.8-5.4-1.8-7.6,0L46.5,84.3
		L7.4,53L61.7,6.3c0.8-0.7,1.9-0.7,2.7,0l3.5,3c0.7-1.2,1.3-2.4,2-3.7L67,3.2c-2.3-2-5.7-2-8,0l-55,47.4C2.7,51.7,2,53.4,2,55.2
		v61.2c0,3.4,2.7,6.1,6.1,6.1h110c3.4,0,6.1-2.7,6.1-6.1V55.2C124.1,53.4,123.4,51.7,122,50.5z M6.1,116.6c0-0.1,0-0.1,0-0.2V57.1
		l37.2,29.8L6.1,116.6z M10.3,118.5l51.4-41.2c0.7-0.6,1.8-0.6,2.6,0l51.5,41.2H10.3z M120.1,116.4c0,0.1,0,0.1,0,0.2L82.9,86.9
		l37.2-29.8V116.4z"/>
	<path class="st0" d="M110.3,22.9c0.2,0.9,1,1.5,2,1.5c0.2,0,0.4,0,0.5-0.1l7.9-2.1c1.1-0.3,1.7-1.4,1.4-2.5
		c-0.3-1.1-1.4-1.7-2.5-1.4l-7.9,2.1C110.7,20.7,110,21.8,110.3,22.9z"/>
	<path class="st0" d="M107.9,12.9c0.5,0,1.1-0.2,1.4-0.6l5.8-5.8c0.8-0.8,0.8-2.1,0-2.9s-2.1-0.8-2.9,0c0,0,0,0,0,0l-5.8,5.8
		c-0.8,0.8-0.8,2.1,0,2.9C106.9,12.7,107.4,12.9,107.9,12.9z"/>
	<path class="st0" d="M112.3,33.9c-0.3,1.1,0.4,2.2,1.4,2.5c0,0,0,0,0,0l7.9,2.1c0.2,0,0.3,0.1,0.5,0.1c1.1,0,2-0.9,2-2
		c0-0.9-0.6-1.7-1.5-2l-7.9-2.1C113.7,32.2,112.6,32.8,112.3,33.9C112.3,33.9,112.3,33.9,112.3,33.9z"/>
</g>
</svg>
