<?xml version="1.0" encoding="utf-8"?>
<!-- Generator: Adobe Illustrator 22.0.1, SVG Export Plug-In . SVG Version: 6.00 Build 0)  -->
<svg version="1.1" id="Layer_1" xmlns="http://www.w3.org/2000/svg" xmlns:xlink="http://www.w3.org/1999/xlink" x="0px" y="0px"
	 viewBox="0 0 132.4 132.8" style="enable-background:new 0 0 132.4 132.8;" xml:space="preserve">
<style type="text/css">
	.st0{fill:#F2B44E;}
	.st1{fill:#005A99;}
</style>
<g>
	<path class="st0" d="M6.6,59.8C9.9,29.9,35.2,6.6,66,6.6s56.1,23.3,59.4,53.2h5C127,27.2,99.5,1.7,66,1.7S4.9,27.2,1.6,59.8H6.6z"
		/>
	<path class="st0" d="M124.8,76.6c-4.8,28.1-29.3,49.5-58.9,49.5S12,104.7,7.1,76.6h-5C7,107.4,33.7,131.1,66,131.1
		s59-23.6,63.9-54.5H124.8z"/>
	<g>
		<path class="st1" d="M46.1,47.9c-1.3-1.3-3.4-1.3-4.7,0L22.8,66.5c-1.3,1.3-1.3,3.4,0,4.7l18.6,18.6c0.6,0.6,1.5,1,2.3,1
			c0.8,0,1.7-0.3,2.3-1c1.3-1.3,1.3-3.4,0-4.7L29.8,68.9l16.3-16.3C47.4,51.3,47.4,49.2,46.1,47.9z"/>
		<path class="st1" d="M86.4,89.8c0.6,0.6,1.5,1,2.3,1s1.7-0.3,2.3-1l18.6-18.6c1.3-1.3,1.3-3.4,0-4.7L91.1,47.9
			c-1.3-1.3-3.4-1.3-4.7,0c-1.3,1.3-1.3,3.4,0,4.7l16.3,16.3L86.4,85.1C85.1,86.4,85.1,88.5,86.4,89.8z"/>
		<path class="st1" d="M60.4,91.8c0.3,0.1,0.6,0.1,0.9,0.1c1.5,0,2.8-1,3.2-2.5l9.9-37.1c0.5-1.8-0.6-3.6-2.3-4.1
			c-1.8-0.5-3.6,0.6-4.1,2.3l-9.9,37.1C57.6,89.6,58.6,91.4,60.4,91.8z"/>
	</g>
</g>
</svg>
