<?xml version="1.0" encoding="utf-8"?>
<!-- Generator: Adobe Illustrator 22.0.1, SVG Export Plug-In . SVG Version: 6.00 Build 0)  -->
<svg version="1.1" id="Layer_1" xmlns="http://www.w3.org/2000/svg" xmlns:xlink="http://www.w3.org/1999/xlink" x="0px" y="0px"
	 viewBox="0 0 152.5 151.9" style="enable-background:new 0 0 152.5 151.9;" xml:space="preserve">
<style type="text/css">
	.st0{fill:#005A90;}
	.st1{fill:#FFFFFF;stroke:#FFFFFF;stroke-miterlimit:10;}
	.st2{clip-path:url(#SVGID_2_);}
	.st3{fill:#93C572;}
	.st4{fill:#FAA785;}
	.st5{fill:#CCCCCC;}
	.st6{fill:#EF7E60;}
	.st7{fill:#353535;}
	.st8{fill:#322342;}
	.st9{fill:#E26D56;}
	.st10{fill:#494849;}
</style>
<circle class="st0" cx="76.5" cy="75.8" r="75.5"/>
<g>
	<circle class="st1" cx="77" cy="75.8" r="70.7"/>
	<g>
		<defs>
			<circle id="SVGID_1_" cx="77" cy="75.8" r="70.7"/>
		</defs>
		<clipPath id="SVGID_2_">
			<use xlink:href="#SVGID_1_"  style="overflow:visible;"/>
		</clipPath>
		<g class="st2">
			<path class="st3" d="M77,147.6c20.6,0,39.2-8.2,52.9-21.5l-38.4-13.9H77H62.5l-38.4,13.9C37.8,139.4,56.4,147.6,77,147.6z"/>
			<path class="st4" d="M84.5,127.7H69.5c-3.8,0-7-3.1-7-7V96.4h29v24.4C91.5,124.6,88.4,127.7,84.5,127.7z"/>
			<path class="st5" d="M94.7,113.4l-3.2-1.1v1c0,8-6.5,14.5-14.5,14.5c-8,0-14.5-6.5-14.5-14.5v-1l-3.2,1.1
				c0.1,9.7,8,17.5,17.7,17.5C86.7,130.9,94.6,123.1,94.7,113.4z"/>
			<path class="st4" d="M106.9,65.6c-1.6-0.4-2.5,0.2-3,0.8c-0.1,0.2-0.4,0.1-0.4-0.2c-0.8-17.8-12.1-31.9-25.9-31.9
				c-13.8,0-25,14.1-25.9,31.9c0,0.2-0.3,0.3-0.4,0.2c-0.5-0.6-1.4-1.2-3-0.8c-2.8,0.7-2.2,7.7-0.6,10.6c1,1.8,3,3.3,4.5,4.2
				c0.9,0.6,1.6,1.5,2,2.6c4.2,11.5,13.1,21,23.4,21c10.3,0,19.2-9.4,23.4-21c0.4-1.1,1.1-2,2-2.6c1.4-0.9,3.5-2.5,4.5-4.2
				C109.1,73.3,109.7,66.3,106.9,65.6z"/>
			<path class="st6" d="M76.7,61.9c0,0-0.1,1.3-0.4,3.1c-0.3,1.9-0.9,4.3-1.5,6.7c-0.3,1.2-0.6,2.3-0.6,3.4c0,1,0.2,2,0.7,2.7
				c0.5,0.7,1,1.2,1.5,1.5c0.4,0.3,0.7,0.4,0.7,0.4s-0.3,0-0.9-0.1c-0.5-0.2-1.3-0.5-2-1.3c-0.7-0.7-1.3-1.9-1.4-3.2
				c-0.1-1.3,0.2-2.6,0.5-3.8c0.7-2.4,1.5-4.8,2.2-6.5C76.1,63,76.7,61.9,76.7,61.9z"/>
			<ellipse class="st7" cx="86.7" cy="66.2" rx="1.6" ry="2.9"/>
			<ellipse class="st7" cx="67.3" cy="66.2" rx="1.6" ry="2.9"/>
			<path class="st8" d="M83.5,59.2h6.4c0,0-0.7-1.9-3.2-1.9C84.2,57.3,83.5,59.2,83.5,59.2z"/>
			<path class="st8" d="M64.1,59.2h6.4c0,0-0.7-1.9-3.2-1.9C64.8,57.3,64.1,59.2,64.1,59.2z"/>
			<path class="st6" d="M51,69.1c0,0-2.1,0.2-1.5,3.7c0,0-2.2-2.4-1-4.5C49.7,66.2,51,69.1,51,69.1z"/>
			<path class="st6" d="M104.4,69.1c0,0,2.1,0.2,1.5,3.7c0,0,2.2-2.4,1-4.5C105.7,66.2,104.4,69.1,104.4,69.1z"/>
			<path class="st6" d="M62.5,99.7c4.3,4.5,9.5,7.3,15.1,7.3c5.1,0,9.9-2.3,13.9-6.1v-3.1c-4,3.7-8.8,6.1-13.9,6.1
				c-5.6,0-10.9-2.8-15.1-7.3V99.7z"/>
			<path class="st9" d="M85.8,86.7c0,0-0.9,0.8-2.4,1.7c-0.8,0.4-1.7,0.8-2.8,1.2c-1.1,0.3-2.3,0.5-3.5,0.6l-0.9,0l-0.9-0.1
				c-0.6-0.1-1.2-0.2-1.7-0.4c-1.1-0.3-2-0.7-2.8-1.2c-1.6-0.8-2.4-1.7-2.4-1.7s1.1,0.4,2.8,0.8c0.8,0.2,1.8,0.5,2.8,0.7
				c0.5,0.1,1,0.2,1.6,0.2l0.8,0.1l0.8,0c2.1,0,4.3-0.5,6-1C84.6,87.1,85.8,86.7,85.8,86.7z"/>
			<path class="st10" d="M101.2,40.5c-6.7-11.2-17.5-11.4-23.6-11.4S60.7,29.2,54,40.5c-6.7,11.2-2.2,25-2.2,25h1.5
				c0,0-1-7.7,5.5-19c0.5-0.8,1.5-1.2,2.4-1c3,0.8,9.6,2.5,16.4,2.5c6.8,0,13.5-1.7,16.4-2.5c0.9-0.3,2,0.1,2.4,1
				c6.5,11.3,5.5,19,5.5,19h1.5C103.5,65.5,107.9,51.7,101.2,40.5z"/>
			<path class="st10" d="M59.8,45.5c12.7,6.5,26.8,9.9,41,10c1.8-5.3-1.8-12.5-6.9-14.8c-3.2-1.4-6.8-1.4-10.3-1.3
				c-4.6,0.1-9.2,0.2-13.7,0.4c-2,0.1-4.1,0.1-5.9,0.9C62.1,41.5,59.9,43.5,59.8,45.5z"/>
			<path class="st10" d="M57.6,86.5C56.8,87,56.5,88.1,57,89c4.7,8.7,12.2,15,20.7,15c8.2,0,15.5-6,20.3-14.3
				c0.4-0.8,0.3-1.8-0.4-2.3c-2-1.7-7.4-4.8-20.5-4.8l0,0v0C65.8,82.6,60.2,84.8,57.6,86.5z M77,85.9c0,0,9.4-0.6,10.8,1.7
				c1.4,2.2-6.8,5.8-10.8,5.8c-4,0-12.1-3.5-10.8-5.8C67.6,85.3,77,85.9,77,85.9L77,85.9L77,85.9z"/>
		</g>
	</g>
</g>
</svg>
