<?xml version="1.0" encoding="utf-8"?>
<!-- Generator: Adobe Illustrator 22.0.1, SVG Export Plug-In . SVG Version: 6.00 Build 0)  -->
<svg version="1.1" id="Layer_1" xmlns="http://www.w3.org/2000/svg" xmlns:xlink="http://www.w3.org/1999/xlink" x="0px" y="0px"
	 viewBox="0 0 194.6 128.2" style="enable-background:new 0 0 194.6 128.2;" xml:space="preserve">
<style type="text/css">
	.st0{fill:#005A99;}
	.st1{fill:#F2B44E;}
</style>
<g>
	<path class="st0" d="M52.3,25.6h-9.2L3.3,110v16.1h50c1.6,0,2.9-1.3,2.9-2.9l0,0c0-1.6-1.3-2.9-2.9-2.9h-44v-5.8h44
		c1.6,0,2.9-1.3,2.9-2.9v-0.4c0-1.6-1.3-2.9-2.9-2.9H10.1l36.4-76.7l5.8,0.1c1.4,0,2.7-0.9,3-2.3l0,0C55.8,27.4,54.3,25.6,52.3,25.6
		z"/>
	<path class="st0" d="M143.4,25.6h9.2l39.8,84.4v16.1h-50c-1.6,0-2.9-1.3-2.9-2.9l0,0c0-1.6,1.3-2.9,2.9-2.9h44v-5.8h-44
		c-1.6,0-2.9-1.3-2.9-2.9v-0.4c0-1.6,1.3-2.9,2.9-2.9h43.2l-36.4-76.7l-5.8,0.1c-1.4,0-2.7-0.9-3-2.3v0
		C139.9,27.4,141.4,25.6,143.4,25.6z"/>
	<g>
		<g>
			<path class="st1" d="M134.2,64.7c0,17.9,0,35.9,0,53.8c0,6.3-1.1,7.5-7.3,7.5c-19.4,0-38.7,0-58.1,0c-6.3,0-7.5-1.2-7.5-7.4
				c0-36.2,0-72.3,0-108.5c0-5.6,1.2-6.8,6.7-6.8c19.7,0,39.5,0,59.2,0c5.8,0,6.9,1.2,6.9,7.1C134.2,28.6,134.2,46.6,134.2,64.7z
				 M130.8,60.9c0-13.7,0-27.4,0-41.2c0-2.6-0.3-3.9-3.5-3.9c-19.4,0.2-38.7,0.1-58.1,0c-3.5,0-4.7,1.1-4.7,4.7
				c0.1,27.2,0.1,54.4,0,81.6c0,3.6,1.2,4.6,4.7,4.6c19-0.1,38-0.2,56.9,0c3.9,0,4.7-1.4,4.7-5C130.8,88.1,130.8,74.5,130.8,60.9z
				 M97.8,109.9c-8.6,0-17.2,0-25.8,0c-7.9,0-7.4-0.7-7.4,7.6c0,5.3,0,5.3,5.4,5.3c17.4,0,34.8,0.1,52.3,0c9.5,0,8.4,1.2,8.6-8.7
				c0.1-3.2-1.2-4.2-4.3-4.2C117,110,107.4,109.9,97.8,109.9z M97.8,12.6c9.7,0,19.5,0,29.2,0c2.1,0,3.9,0,3.9-2.9
				c0-2.8-1.8-2.9-3.9-2.9c-19.5,0-38.9,0-58.4,0c-2.1,0-3.8,0.2-3.9,3c0,2.9,1.9,2.9,3.9,2.8C78.3,12.6,88,12.6,97.8,12.6z"/>
			<path class="st1" d="M97.7,112.6c2.4,0,4.3,1.9,4.3,4.1c0,2.3-2.2,4.5-4.5,4.4c-2.2-0.1-4.2-2.2-4.2-4.4
				C93.5,114.5,95.4,112.7,97.7,112.6z"/>
			<path class="st1" d="M97.7,10.8c-2.2,0-4.4,0-6.5,0c-0.8,0-1.7-0.2-1.7-1.2c0-0.9,0.8-1.2,1.4-1.2c4.6,0,9.1,0,13.7,0
				c0.7,0,1.5,0.3,1.4,1.2c0,0.9-0.7,1.2-1.4,1.2C102.3,10.8,100,10.7,97.7,10.8C97.7,10.7,97.7,10.8,97.7,10.8z"/>
		</g>
		<g>
			<g>
				<path class="st0" d="M117.9,62.3c0,3.1,0,6.1,0,9.2c0,0.7-0.3,1.1-0.8,1.5c-4.8,3.2-9.6,6.4-14.4,9.6c-1.4,0.9-2.8,1.9-4.2,2.8
					c-0.5,0.3-0.9,0.3-1.4,0c-3.9-2.6-7.8-5.2-11.7-7.8c-2.4-1.6-4.7-3.2-7.1-4.7c-0.5-0.3-0.7-0.7-0.7-1.3c0-6.2,0-12.4,0-18.6
					c0-0.5,0.2-0.8,0.6-1.1c4.1-2.7,8.2-5.5,12.3-8.2c2.2-1.5,4.3-2.9,6.5-4.4c0.6-0.4,0.9-0.4,1.5,0c2.4,1.6,4.8,3.2,7.2,4.8
					c3.9,2.6,7.8,5.2,11.6,7.8c0.4,0.3,0.5,0.7,0.5,1.1C117.9,56.1,117.9,59.2,117.9,62.3z M115.3,52.7c-0.1-0.2-0.3-0.3-0.5-0.5
					c-2.4-1.6-4.8-3.2-7.2-4.8c-3.1-2.1-6.2-4.1-9.3-6.2c-0.4-0.2-0.6-0.2-0.9,0c-2,1.4-4,2.7-6.1,4.1c-3.6,2.4-7.2,4.8-10.8,7.2
					c-0.3,0.2-0.3,0.3,0,0.5C85.9,56.6,91.5,60.3,97,64c0.7,0.5,0.5,0.6,1.4,0c4.2-2.8,8.5-5.7,12.7-8.5c1.2-0.8,2.5-1.6,3.7-2.5
					C115,53,115.2,52.9,115.3,52.7z M98.6,83.2c0.5-0.3,0.9-0.6,1.3-0.8c1.9-1.3,3.8-2.6,5.7-3.8c3.4-2.3,6.8-4.5,10.2-6.8
					c0.3-0.2,0.4-0.4,0.4-0.8c0-5.4,0-10.7,0-16.1c0-0.2,0.1-0.4-0.1-0.5c-0.2-0.1-0.3,0.1-0.4,0.2c-2.9,2-5.9,3.9-8.8,5.9
					c-2.6,1.7-5.1,3.4-7.7,5.1c-0.4,0.3-0.6,0.6-0.6,1.1c0,5.1,0,10.2,0,15.2C98.6,82.3,98.6,82.7,98.6,83.2z M79.3,62.9
					c0,2.6,0,5.3,0,7.9c0,0.5,0.2,0.8,0.5,1c2.5,1.7,5,3.3,7.5,5c3,2,6.1,4,9.1,6c0.1,0.1,0.2,0.3,0.4,0.2c0.1-0.1,0.1-0.3,0.1-0.4
					c0-0.1,0-0.2,0-0.3c0-5.3,0-10.7,0-16c0-0.3-0.1-0.4-0.3-0.5c-1-0.6-1.9-1.3-2.9-1.9c-2.4-1.6-4.8-3.2-7.2-4.8
					c-2.2-1.5-4.4-3-6.7-4.4c-0.1-0.1-0.3-0.2-0.4-0.2c-0.2,0.1-0.1,0.3-0.1,0.5C79.3,57.6,79.3,60.3,79.3,62.9z"/>
			</g>
		</g>
		<g>
			<g>
				<path class="st0" d="M116.1,62.3c0,2.8,0,5.6,0,8.4c0,0.6-0.2,1-0.7,1.4c-4.4,2.9-8.8,5.8-13.1,8.8c-1.3,0.9-2.6,1.7-3.9,2.6
					c-0.4,0.3-0.8,0.3-1.3,0c-3.5-2.4-7.1-4.7-10.6-7.1c-2.2-1.4-4.3-2.9-6.5-4.3c-0.5-0.3-0.6-0.7-0.6-1.2c0-5.7,0-11.3,0-17
					c0-0.4,0.1-0.8,0.5-1c3.8-2.5,7.5-5,11.3-7.5c2-1.3,4-2.7,6-4c0.5-0.3,0.8-0.3,1.4,0c2.2,1.5,4.4,2.9,6.6,4.4
					c3.5,2.4,7.1,4.7,10.6,7.1c0.4,0.3,0.5,0.6,0.5,1C116.1,56.7,116.1,59.5,116.1,62.3z M113.7,53.5c-0.1-0.2-0.3-0.3-0.5-0.4
					c-2.2-1.5-4.4-3-6.6-4.4c-2.8-1.9-5.7-3.7-8.5-5.6c-0.3-0.2-0.6-0.2-0.9,0c-1.8,1.3-3.7,2.5-5.5,3.7c-3.3,2.2-6.6,4.4-9.8,6.5
					c-0.3,0.2-0.3,0.3,0,0.4C87,57.1,92,60.5,97.1,63.9c0.7,0.4,0.5,0.5,1.3,0c3.9-2.6,7.7-5.2,11.6-7.7c1.1-0.8,2.3-1.5,3.4-2.2
					C113.5,53.8,113.7,53.7,113.7,53.5z M98.5,81.4c0.5-0.3,0.8-0.5,1.2-0.7c1.7-1.2,3.5-2.3,5.2-3.5c3.1-2.1,6.2-4.1,9.3-6.2
					c0.3-0.2,0.4-0.4,0.4-0.7c0-4.9,0-9.8,0-14.6c0-0.1,0.1-0.3-0.1-0.4c-0.1-0.1-0.3,0.1-0.4,0.2c-2.7,1.8-5.4,3.6-8,5.4
					c-2.3,1.6-4.7,3.1-7,4.6c-0.4,0.2-0.5,0.5-0.5,1c0,4.6,0,9.3,0,13.9C98.5,80.5,98.5,80.9,98.5,81.4z M80.9,62.9
					c0,2.4,0,4.8,0,7.2c0,0.4,0.2,0.7,0.5,0.9c2.3,1.5,4.6,3.1,6.8,4.6c2.8,1.8,5.5,3.7,8.3,5.5c0.1,0.1,0.2,0.2,0.4,0.2
					c0.1-0.1,0.1-0.3,0.1-0.4c0-0.1,0-0.2,0-0.2c0-4.9,0-9.7,0-14.6c0-0.2-0.1-0.4-0.3-0.5c-0.9-0.6-1.7-1.2-2.6-1.8
					c-2.2-1.5-4.4-2.9-6.6-4.4c-2-1.3-4-2.7-6.1-4c-0.1-0.1-0.3-0.2-0.4-0.2c-0.2,0.1-0.1,0.3-0.1,0.4C80.9,58,80.9,60.4,80.9,62.9z
					"/>
			</g>
		</g>
	</g>
</g>
</svg>
