<?xml version="1.0" encoding="utf-8"?>
<!-- Generator: Adobe Illustrator 22.0.1, SVG Export Plug-In . SVG Version: 6.00 Build 0)  -->
<svg version="1.1" id="Layer_1" xmlns="http://www.w3.org/2000/svg" xmlns:xlink="http://www.w3.org/1999/xlink" x="0px" y="0px"
	 viewBox="0 0 132.4 131.8" style="enable-background:new 0 0 132.4 131.8;" xml:space="preserve">
<style type="text/css">
	.st0{fill:#005A99;}
	.st1{fill:#B38CFF;}
</style>
<g>
	<path class="st0" d="M13.6,38h5.4c1,0,1.9-0.8,1.9-1.9c0-1-0.8-1.9-1.9-1.9h-5.4c-1,0-1.9,0.8-1.9,1.9C11.7,37.2,12.5,38,13.6,38z"
		/>
	<path class="st0" d="M57.7,34.2H24.9c-1,0-1.9,0.8-1.9,1.9c0,1,0.8,1.9,1.9,1.9h32.7c1,0,1.9-0.8,1.9-1.9
		C59.5,35.1,58.7,34.2,57.7,34.2z"/>
	<path class="st0" d="M15.7,13.6c0,2.3,1.9,4.2,4.2,4.2s4.2-1.9,4.2-4.2s-1.9-4.2-4.2-4.2S15.7,11.3,15.7,13.6z M21.3,13.6
		c0,0.7-0.6,1.3-1.3,1.3c-0.7,0-1.3-0.6-1.3-1.3c0-0.7,0.6-1.3,1.3-1.3C20.7,12.3,21.3,12.9,21.3,13.6z"/>
	<path class="st0" d="M34.4,13.6c0,2.3,1.9,4.2,4.2,4.2c2.3,0,4.2-1.9,4.2-4.2s-1.9-4.2-4.2-4.2C36.3,9.4,34.4,11.3,34.4,13.6z
		 M40,13.6c0,0.7-0.6,1.3-1.3,1.3c-0.7,0-1.3-0.6-1.3-1.3c0-0.7,0.6-1.3,1.3-1.3C39.4,12.3,40,12.9,40,13.6z"/>
	<path class="st0" d="M52.1,13.6c0,2.3,1.9,4.2,4.2,4.2c2.3,0,4.2-1.9,4.2-4.2s-1.9-4.2-4.2-4.2C54,9.4,52.1,11.3,52.1,13.6z
		 M57.7,13.6c0,0.7-0.6,1.3-1.3,1.3c-0.7,0-1.3-0.6-1.3-1.3c0-0.7,0.6-1.3,1.3-1.3C57.1,12.3,57.7,12.9,57.7,13.6z"/>
	<path class="st0" d="M108,124.2h3.8c0.6,0,1.1-0.6,1.1-1.3c0-0.7-0.5-1.3-1.1-1.3H108c-0.6,0-1.1,0.6-1.1,1.3
		C106.9,123.6,107.4,124.2,108,124.2z"/>
	<path class="st1" d="M130.6,9.1c0-4.6-3.7-8.3-8.3-8.3h-16.1c-1,0-1.9,0.8-1.9,1.9c0,1,0.8,1.9,1.9,1.9h16.1c2.5,0,4.5,2,4.5,4.5
		v13.6H5.8V9.1c0-2.5,2-4.5,4.5-4.5h84.2c1,0,1.9-0.8,1.9-1.9c0-1-0.8-1.9-1.9-1.9H10.3C5.7,0.8,2,4.6,2,9.1v91.2
		c0,4.6,3.7,8.3,8.3,8.3H47v6.8h-5.7c-3.8,0-6.9,3.1-6.9,6.9v4.1c0,1.7,1.4,3.1,3.1,3.1l87.3,0.1c3.3,0,5.9-2.6,5.9-5.9v-6
		L130.6,9.1z M10.3,104.9c-2.5,0-4.5-2-4.5-4.5v-7.1H89v11.7H10.3z M85.7,108.6H89v6.8h-3.3V108.6z M81.9,108.6v6.8H50.8v-6.8H81.9z
		 M38.2,125.7v-3.4c0-1.7,1.4-3.1,3.1-3.1H89v4.5c0,0.7,0.1,1.4,0.4,2H38.2z M127,123.7c0,1.2-1,2.1-2.1,2.1h-30
		c-1.2,0-2.1-1-2.1-2.1v-4.1H127V123.7z M127,115.8H92.8V83c0-1-0.8-1.9-1.9-1.9c-1,0-1.9,0.8-1.9,1.9v6.4H5.8V26.5h121.1v28.8
		c-0.6-0.2-1.3-0.3-2-0.3h-30c-3.2,0-5.9,2.6-5.9,5.9v10.6c0,1,0.8,1.9,1.9,1.9c1,0,1.9-0.8,1.9-1.9v-2.8H127V115.8z M127,64.9H92.8
		v-4.1c0-1.2,1-2.1,2.1-2.1h30c1.2,0,2.1,1,2.1,2.1L127,64.9L127,64.9z"/>
	<path class="st0" d="M99.8,85.5h7.4c1.1,0,2-0.8,2-1.9c0-1-0.9-1.9-2-1.9h-7.4c-1.1,0-2,0.8-2,1.9C97.8,84.7,98.6,85.5,99.8,85.5z"
		/>
	<path class="st0" d="M113.6,96.8h6.7c1.1,0,2-0.8,2-1.9c0-1-0.9-1.9-2-1.9h-6.7c-1.1,0-2,0.8-2,1.9
		C111.6,95.9,112.5,96.8,113.6,96.8z"/>
	<path class="st0" d="M99.8,96.8h6.5c1.1,0,2-0.8,2-1.9c0-1-0.9-1.9-2-1.9h-6.5c-1.1,0-2,0.8-2,1.9C97.8,95.9,98.6,96.8,99.8,96.8z"
		/>
	<path class="st0" d="M116.1,81.8h-2.5c-1.1,0-2,0.8-2,1.9c0,1,0.9,1.9,2,1.9h2.5c1.1,0,2-0.8,2-1.9
		C118.1,82.6,117.2,81.8,116.1,81.8z"/>
</g>
</svg>
