<?xml version="1.0" encoding="utf-8"?>
<!-- Generator: Adobe Illustrator 22.0.1, SVG Export Plug-In . SVG Version: 6.00 Build 0)  -->
<svg version="1.1" id="Layer_1" xmlns="http://www.w3.org/2000/svg" xmlns:xlink="http://www.w3.org/1999/xlink" x="0px" y="0px"
	 viewBox="0 0 136.9 128.1" style="enable-background:new 0 0 136.9 128.1;" xml:space="preserve">
<style type="text/css">
	.st0{fill:#005A99;}
	.st1{fill:#F2B44E;}
</style>
<g>
	<g>
		<path class="st0" d="M133,98.3c-1.1,0-2.1-0.7-2.5-1.7c-0.4-1,0-2.2,0.8-2.9c0.9-0.7,2.1-0.8,3-0.2c0.9,0.6,1.4,1.7,1.2,2.8
			C135.2,97.5,134.2,98.3,133,98.3L133,98.3z"/>
		<path class="st1" d="M133,86.6c1.4,0,2.6-1.2,2.6-2.6V68.2c0-1.4-1.2-2.6-2.6-2.6H90.2c-1.4,0-2.6,1.2-2.6,2.6v13H47.4
			c-1.4,0-2.6,1.2-2.6,2.6v13H4.6C3.1,97,2,98.1,2,99.6v24.2c0,1.4,1.2,2.6,2.6,2.6H133c1.4,0,2.6-1.2,2.6-2.6v-16.2
			c0-1.4-1.2-2.6-2.6-2.6s-2.6,1.2-2.6,2.6v13.6H92.8V70.9h37.6V84C130.4,85.4,131.5,86.6,133,86.6z M7.2,102.2h37.6v19H7.2V102.2z
			 M50,86.5h37.5v34.6H50L50,86.5z"/>
		<path class="st0" d="M105.9,106.8c-0.8,0-1.5-0.2-2.2-0.7c-1.1-0.8-1.6-2-1.5-3.4l0.4-4.5l-3-3.4c-0.9-1-1.1-2.4-0.7-3.6
			c0.4-1.3,1.4-2.2,2.7-2.5l4.4-1l2.3-3.9c0.7-1.1,1.9-1.8,3.2-1.8c1.3,0,2.5,0.7,3.2,1.8l2.3,3.9l4.4,1c1.3,0.3,2.3,1.2,2.7,2.5
			c0.4,1.3,0.1,2.6-0.7,3.6l-3,3.4l0.4,4.5c0.1,1.3-0.5,2.6-1.5,3.4c-1.1,0.8-2.4,0.9-3.7,0.4l-4.2-1.8l-4.2,1.8
			C106.9,106.7,106.4,106.8,105.9,106.8z M111.6,99.3c0.3,0,0.7,0.1,1,0.2l3,1.3l-0.3-3.2c-0.1-0.7,0.2-1.4,0.6-1.9l2.1-2.4
			l-3.1-0.7c-0.7-0.2-1.3-0.6-1.6-1.2l-1.7-2.8l-1.7,2.8c-0.4,0.6-1,1-1.6,1.2l-3.1,0.7l2.1,2.4c0.5,0.5,0.7,1.2,0.6,1.9l-0.3,3.2
			l3-1.3C110.9,99.3,111.2,99.3,111.6,99.3z"/>
		<path class="st0" d="M77.1,43.9c-0.7-0.6-1.6-0.8-2.5-0.6l-8.1,2.3c-1.4,0.4-2.2,1.8-1.8,3.2c0.4,1.4,1.8,2.2,3.1,1.8
			C54.6,65,37.8,75.8,19.2,81.8c-1.4,0.4-2.1,1.9-1.7,3.3c0.4,1.1,1.4,1.8,2.5,1.8c0.3,0,0.5,0,0.8-0.1
			c19.3-6.3,36.8-17.4,50.6-32.3c0.2,1.1,1,2,2.2,2.2c0.1,0,0.3,0,0.4,0c1.3,0,2.4-0.9,2.6-2.2l1.4-8.3
			C78.1,45.4,77.7,44.5,77.1,43.9L77.1,43.9z"/>
		<path class="st1" d="M123.1,33.4c3.9-3.3,6.3-8.2,6.3-13.7c0-9.9-8-17.9-17.9-17.9s-17.9,8-17.9,17.9c0,5.5,2.5,10.4,6.3,13.7
			c-6.5,2.3-11.1,8.5-11.1,15.8v7.5c0,1.4,1.2,2.6,2.6,2.6h40.1c1.4,0,2.6-1.2,2.6-2.6v-7.5C134.2,41.9,129.6,35.7,123.1,33.4z
			 M98.9,19.8c0-7,5.7-12.7,12.7-12.7c7,0,12.7,5.7,12.7,12.7s-5.7,12.7-12.7,12.7C104.6,32.4,98.9,26.8,98.9,19.8z M129,54.1H94.2
			v-4.9c0-6.4,5.2-11.5,11.5-11.5h11.8c6.4,0,11.5,5.2,11.5,11.5V54.1z"/>
	</g>
</g>
</svg>
