<?xml version="1.0" encoding="utf-8"?>
<!-- Generator: Adobe Illustrator 22.0.1, SVG Export Plug-In . SVG Version: 6.00 Build 0)  -->
<svg version="1.1" id="Layer_1" xmlns="http://www.w3.org/2000/svg" xmlns:xlink="http://www.w3.org/1999/xlink" x="0px" y="0px"
	 viewBox="0 0 111.1 134.1" style="enable-background:new 0 0 111.1 134.1;" xml:space="preserve">
<style type="text/css">
	.st0{fill:#FFFFFF;}
</style>
<g>
	<g>
		<g>
			<path class="st0" d="M5.3,45c-0.5-0.5-1.1-0.8-1.8-0.8S2.2,44.5,1.7,45C1.2,45.5,1,46.1,1,46.8c0,0.7,0.3,1.3,0.8,1.8
				c0.5,0.5,1.1,0.8,1.8,0.8s1.3-0.3,1.8-0.8c0.5-0.5,0.8-1.1,0.8-1.8C6.1,46.1,5.8,45.5,5.3,45z"/>
		</g>
	</g>
	<g>
		<g>
			<path class="st0" d="M101.8,1.5H50c-1.4,0-2.6,1.1-2.6,2.6s1.1,2.6,2.6,2.6h51.8c1.4,0,2.6,1.1,2.6,2.6v115.7
				c0,1.4-1.1,2.6-2.6,2.6H8.6c-1.4,0-2.6-1.1-2.6-2.6V56.4c0-1.4-1.1-2.6-2.6-2.6S1,55,1,56.4v68.5c0,4.2,3.4,7.7,7.7,7.7h93.2
				c4.2,0,7.7-3.4,7.7-7.7V9.2C109.5,4.9,106.1,1.5,101.8,1.5z"/>
		</g>
	</g>
	<g>
		<g>
			<path class="st0" d="M55.2,11.7c-1.7,0-3.5,0.1-5.2,0.4c-1.4,0.2-2.4,1.5-2.1,2.9s1.5,2.4,2.9,2.1c1.5-0.2,2.9-0.3,4.4-0.3
				c16,0,28.9,13,28.9,28.9c0,7.1-2.6,13.6-6.8,18.6c-1.9-3.2-4.4-6-7.6-8.2C68,55,66.1,54,64,53.2c2.3-2.3,3.8-5.5,3.8-9v-2.5
				c0-6.9-5.6-12.5-12.5-12.5s-12.5,5.6-12.5,12.5v2.5c0,3.5,1.5,6.7,3.8,9c-2,0.7-4,1.8-5.8,3c-3.1,2.2-5.7,5-7.6,8.2
				c-3.2-3.8-5.5-8.6-6.4-13.8c-0.2-1.4-1.6-2.3-2.9-2.1c-1.4,0.2-2.3,1.6-2.1,2.9c1.3,7.9,5.4,15,11.5,20.2
				c6.2,5.3,14,8.2,22.1,8.2c18.8,0,34.1-15.3,34.1-34.1S74,11.7,55.2,11.7z M47.8,41.8c0-4.1,3.3-7.4,7.4-7.4
				c4.1,0,7.4,3.3,7.4,7.4v2.5c0,4.1-3.3,7.4-7.4,7.4s-7.4-3.3-7.4-7.4V41.8z M55.2,74.7c-6.9,0-13.3-2.4-18.4-6.5
				c3.4-7,10.5-11.4,18.4-11.4c7.9,0,14.9,4.4,18.3,11.4C68.6,72.3,62.2,74.7,55.2,74.7z"/>
		</g>
	</g>
	<g>
		<g>
			<path class="st0" d="M78.9,103.4H42.5c-1.4,0-2.6,1.1-2.6,2.6s1.1,2.6,2.6,2.6h36.4c1.4,0,2.6-1.1,2.6-2.6S80.3,103.4,78.9,103.4
				z"/>
		</g>
	</g>
	<g>
		<g>
			<path class="st0" d="M33.4,89.8c-0.5-0.5-1.1-0.8-1.8-0.8c-0.7,0-1.3,0.3-1.8,0.8S29,91,29,91.6c0,0.7,0.3,1.3,0.8,1.8
				c0.5,0.5,1.1,0.8,1.8,0.8c0.7,0,1.3-0.3,1.8-0.8c0.5-0.5,0.8-1.1,0.8-1.8S33.9,90.3,33.4,89.8z"/>
		</g>
	</g>
	<g>
		<g>
			<path class="st0" d="M33.4,104.2c-0.5-0.5-1.1-0.8-1.8-0.8c-0.7,0-1.3,0.3-1.8,0.8S29,105.3,29,106c0,0.7,0.3,1.3,0.8,1.8
				c0.5,0.5,1.1,0.8,1.8,0.8c0.7,0,1.3-0.3,1.8-0.8c0.5-0.5,0.8-1.1,0.8-1.8C34.2,105.3,33.9,104.6,33.4,104.2z"/>
		</g>
	</g>
	<g>
		<g>
			<path class="st0" d="M78.9,89.1H42.5c-1.4,0-2.6,1.1-2.6,2.6s1.1,2.6,2.6,2.6h36.4c1.4,0,2.6-1.1,2.6-2.6S80.3,89.1,78.9,89.1z"
				/>
		</g>
	</g>
	<g>
		<g>
			<path class="st0" d="M31.1,16.3c-1-1-2.6-1-3.6,0l-8.3,8.3l-2.8-2.8c-1-1-2.6-1-3.6,0c-1,1-1,2.6,0,3.6l4.7,4.7
				c0.5,0.5,1.2,0.8,1.8,0.8s1.3-0.3,1.8-0.7l10.1-10.1C32.1,18.9,32.1,17.3,31.1,16.3z"/>
		</g>
	</g>
	<g>
		<g>
			<path class="st0" d="M22,1.5c-11.6,0-21,9.4-21,21s9.4,21,21,21s21-9.4,21-21S33.5,1.5,22,1.5z M22,38.4
				c-8.8,0-15.9-7.1-15.9-15.9S13.2,6.6,22,6.6s15.9,7.1,15.9,15.9S30.7,38.4,22,38.4z"/>
		</g>
	</g>
</g>
</svg>
