<?xml version="1.0" encoding="utf-8"?>
<!-- Generator: Adobe Illustrator 22.0.1, SVG Export Plug-In . SVG Version: 6.00 Build 0)  -->
<svg version="1.1" id="Layer_1" xmlns="http://www.w3.org/2000/svg" xmlns:xlink="http://www.w3.org/1999/xlink" x="0px" y="0px"
	 viewBox="0 0 148.2 126.4" style="enable-background:new 0 0 148.2 126.4;" xml:space="preserve">
<style type="text/css">
	.st0{fill:#005A99;}
	.st1{fill:#F2B44E;}
</style>
<g>
	<path class="st0" d="M126.7,18.8h4.8c1.3,0,2.4-1.1,2.4-2.4c0-1.3-1.1-2.4-2.4-2.4h-4.8c-4,0-7.2,3.2-7.2,7.2v2.4h-2.4
		c-1.3,0-2.4,1.1-2.4,2.4c0,1.3,1.1,2.4,2.4,2.4h2.4v7.2c0,1.3,1.1,2.4,2.4,2.4s2.4-1.1,2.4-2.4v-7.2h2.4c1.3,0,2.4-1.1,2.4-2.4
		c0-1.3-1.1-2.4-2.4-2.4h-2.4v-2.4C124.3,19.9,125.3,18.8,126.7,18.8z"/>
	<path class="st1" d="M138.7,4.4h-28.8c-4,0-7.2,3.2-7.2,7.2v4.8c0,1.3,1.1,2.4,2.4,2.4s2.4-1.1,2.4-2.4v-4.8c0-1.3,1.1-2.4,2.4-2.4
		h28.8c1.3,0,2.4,1.1,2.4,2.4v28.8c0,1.3-1.1,2.4-2.4,2.4h-28.8c-1.3,0-2.4-1.1-2.4-2.4V26c0-1.3-1.1-2.4-2.4-2.4s-2.4,1.1-2.4,2.4
		v14.4c0,4,3.2,7.2,7.2,7.2h28.8c4,0,7.2-3.2,7.2-7.2V11.6C145.9,7.6,142.6,4.4,138.7,4.4z"/>
	<path class="st0" d="M114.7,100.3c0,5.3,4.3,9.6,9.6,9.6s9.6-4.3,9.6-9.6c0-5.3-4.3-9.6-9.6-9.6S114.7,95,114.7,100.3z
		 M129.1,100.3c0,2.6-2.1,4.8-4.8,4.8s-4.8-2.1-4.8-4.8c0-2.6,2.1-4.8,4.8-4.8S129.1,97.7,129.1,100.3z"/>
	<path class="st1" d="M138.7,78.7h-28.8c-4,0-7.2,3.2-7.2,7.2v28.8c0,4,3.2,7.2,7.2,7.2h28.8c4,0,7.2-3.2,7.2-7.2v-4.8
		c0-1.3-1.1-2.4-2.4-2.4c-1.3,0-2.4,1.1-2.4,2.4v4.8c0,1.3-1.1,2.4-2.4,2.4h-28.8c-1.3,0-2.4-1.1-2.4-2.4V85.9
		c0-1.3,1.1-2.4,2.4-2.4h28.8c1.3,0,2.4,1.1,2.4,2.4v14.4c0,1.3,1.1,2.4,2.4,2.4c1.3,0,2.4-1.1,2.4-2.4V85.9
		C145.9,82,142.6,78.7,138.7,78.7z"/>
	<path class="st0" d="M55.9,32.8c0.4,0.2,0.8,0.4,1.3,0.4c0.4,0,0.7-0.1,1.1-0.3l14.4-7.2c1.2-0.6,1.6-2,1-3.2c-0.2-0.4-0.6-0.8-1-1
		l-14.4-7.2c-1.2-0.6-2.6-0.1-3.2,1.1c-0.2,0.3-0.3,0.7-0.3,1.1v14.4C54.7,31.6,55.1,32.4,55.9,32.8z M59.5,20.3l6.6,3.3l-6.6,3.3
		V20.3z"/>
	<path class="st1" d="M61.9,45.2c11.9,0,21.6-9.7,21.6-21.6S73.8,2,61.9,2s-21.6,9.7-21.6,21.6S50,45.2,61.9,45.2z M61.9,6.8
		c9.3,0,16.8,7.5,16.8,16.8s-7.5,16.8-16.8,16.8s-16.8-7.5-16.8-16.8S52.6,6.8,61.9,6.8z"/>
	<path class="st0" d="M85.9,54.8c0.8,0,1.5-0.4,1.9-1l7.2-9.6c0.8-1.1,0.6-2.6-0.5-3.4c-1.1-0.8-2.6-0.6-3.4,0.5L84,50.9
		c-0.8,1.1-0.6,2.6,0.5,3.4C84.9,54.6,85.4,54.8,85.9,54.8z"/>
	<path class="st0" d="M91.2,63.4c0.5,0.6,1.2,1,1.9,1c0.5,0,1-0.2,1.4-0.5l9.6-7.2c1.1-0.8,1.3-2.3,0.5-3.4
		c-0.8-1.1-2.3-1.3-3.4-0.5L91.7,60C90.6,60.8,90.4,62.3,91.2,63.4L91.2,63.4z"/>
	<path class="st0" d="M114.7,68.7c-0.2-1.3-1.5-2.2-2.8-1.9c0,0-0.1,0-0.1,0l-12,2.4c-1.3,0.1-2.3,1.3-2.2,2.6
		c0.1,1.3,1.3,2.3,2.6,2.2h0.5l12-2.4C114.1,71.3,114.9,70.1,114.7,68.7C114.7,68.7,114.7,68.7,114.7,68.7z"/>
	<path class="st1" d="M4.4,69.2h28.8c1.3,0,2.4-1.1,2.4-2.4V28.4c0-1.3-1.1-2.4-2.4-2.4H4.4C3,26,2,27.1,2,28.4v38.4
		C2,68.1,3,69.2,4.4,69.2z M6.8,30.8h24v33.6h-24V30.8z"/>
	<path class="st0" d="M23.5,35.6h-4.8c-1.3,0-2.4,1.1-2.4,2.4s1.1,2.4,2.4,2.4h4.8c1.3,0,2.4-1.1,2.4-2.4S24.9,35.6,23.5,35.6z"/>
	<path class="st0" d="M23.5,45.2H14c-1.3,0-2.4,1.1-2.4,2.4c0,1.3,1.1,2.4,2.4,2.4h9.6c1.3,0,2.4-1.1,2.4-2.4
		C25.9,46.2,24.9,45.2,23.5,45.2z"/>
	<path class="st0" d="M23.5,54.8H14c-1.3,0-2.4,1.1-2.4,2.4s1.1,2.4,2.4,2.4h9.6c1.3,0,2.4-1.1,2.4-2.4S24.9,54.8,23.5,54.8z"/>
	<path class="st1" d="M83.8,68.4c-0.7-1.2-2.1-1.5-3.3-0.9c-1.2,0.7-1.5,2.1-0.9,3.3l10.6,18.3l-38.4,14.4c0,0,0,0-0.2,0h-0.2
		l-6.2,3.6l-4.1,2.4c-1.1,0.6-2.4,0.8-3.6,0.5c-1.2-0.3-2.3-1.1-2.9-2.2l-4.8-8.3c-1.2-2.3-0.4-5,1.8-6.3l8.3-4.8l6,10.4
		c0.4,0.7,1.2,1.2,2.1,1.2c1.3,0,2.4-1.1,2.4-2.4c0-0.4-0.1-0.8-0.3-1.2l-6.2-10.7l30.1-24.8l1,1.7c0.7,1.2,2.1,1.5,3.3,0.9
		c1.2-0.7,1.5-2.1,0.9-3.3L76.7,56c-0.4-0.6-1-1-1.7-1.2c-0.7-0.1-1.4,0.1-2,0.5L39.5,83l-10.2,5.9c-3.8,2.2-5.6,6.7-4.4,10.9
		l-2.4,1.4c-3.4,2-4.6,6.4-2.7,9.8c1,1.7,2.5,2.9,4.4,3.4c0.6,0.2,1.2,0.2,1.9,0.2c1.3,0,2.5-0.3,3.6-1l2.4-1.4
		c1.2,1.2,2.6,2.1,4.2,2.5c0.8,0.2,1.7,0.3,2.5,0.3c1.7,0,3.3-0.4,4.8-1.3l2.1-1.2l4.8,8.3c2,3.4,6.4,4.6,9.8,2.6
		c3.4-2,4.6-6.4,2.6-9.8c0,0,0,0,0,0l-4.4-7.6l36-13.5c0.7-0.2,1.2-0.8,1.4-1.4c0.2-0.7,0.2-1.4-0.2-2L83.8,68.4z M27.1,109.4
		c-0.6,0.3-1.2,0.4-1.8,0.2c-0.6-0.2-1.1-0.6-1.5-1.1c-0.3-0.6-0.4-1.2-0.2-1.8c0.2-0.6,0.6-1.1,1.1-1.5l2.1-1.2l2.4,4.1L27.1,109.4
		z M58.7,116.1c0.3,0.6,0.4,1.2,0.2,1.8c-0.2,0.6-0.6,1.1-1.1,1.4c-1.1,0.7-2.6,0.3-3.3-0.9l-4.8-8.3l4-2.3h0.2L58.7,116.1z"/>
</g>
</svg>
