<?xml version="1.0" encoding="utf-8"?>
<!-- Generator: Adobe Illustrator 22.0.1, SVG Export Plug-In . SVG Version: 6.00 Build 0)  -->
<svg version="1.1" id="Layer_1" xmlns="http://www.w3.org/2000/svg" xmlns:xlink="http://www.w3.org/1999/xlink" x="0px" y="0px"
	 viewBox="0 0 139.1 138.9" style="enable-background:new 0 0 139.1 138.9;" xml:space="preserve">
<style type="text/css">
	.st0{fill:#FFFFFF;}
</style>
<g id="XMLID_6_">
	<g id="XMLID_7_">
		<path id="XMLID_10_" class="st0" d="M118.6,90.6c1.7-2.3,2.7-5.1,2.7-8.1v-4.7c0-7.4-6-13.4-13.4-13.4c-7.4,0-13.4,6-13.4,13.4
			v4.7c0,3,1,5.9,2.7,8.1h-15c3.6-3.5,5.9-8.3,5.9-13.7V64.7c0-10.5-8.5-19-19-19s-19,8.5-19,19v12.1c0,5.4,2.3,10.3,5.9,13.7h-15
			c1.7-2.3,2.7-5.1,2.7-8.1v-4.7c0-7.4-6-13.4-13.4-13.4s-13.4,6-13.4,13.4v4.7c0,3,1,5.9,2.7,8.1c-10,0.1-18.2,8.3-18.2,18.3v10
			c0,1.5,1.2,2.6,2.6,2.6h21.1v11.8c0,1.5,1.2,2.6,2.6,2.6h7.4c1.5,0,2.6-1.2,2.6-2.6c0-1.5-1.2-2.6-2.6-2.6h-4.7v-12.8
			c0-11.5,8.9-21,20.2-21.9l14.3,34.7h-6.1c-1.5,0-2.6,1.2-2.6,2.6c0,1.5,1.2,2.6,2.6,2.6h51.2c1.5,0,2.6-1.2,2.6-2.6v-11.8h21.1
			c1.5,0,2.6-1.2,2.6-2.6v-10C136.8,98.9,128.7,90.7,118.6,90.6L118.6,90.6z M99.9,82.5v-4.7c0-4.5,3.6-8.1,8.1-8.1s8.1,3.6,8.1,8.1
			v4.7c0,4.5-3.6,8.1-8.1,8.1S99.9,86.9,99.9,82.5z M69.3,51C76.9,51,83,57.1,83,64.7v0h0c-4.4,0-8.6-1.3-12.3-3.7
			c-0.9-0.6-2-0.6-2.9,0c-3.7,2.4-7.9,3.7-12.3,3.7h0v0C55.6,57.1,61.7,51,69.3,51z M55.6,76.8V70h0c4.8,0,9.5-1.3,13.7-3.6
			C73.5,68.8,78.2,70,83,70h0v6.8c0,7.6-6.2,13.7-13.7,13.7C61.7,90.6,55.6,84.4,55.6,76.8z M22.5,77.8c0-4.5,3.6-8.1,8.1-8.1
			s8.1,3.6,8.1,8.1v4.7c0,4.5-3.6,8.1-8.1,8.1s-8.1-3.6-8.1-8.1V77.8z M25.6,116.3H7v-7.4c0-7.2,5.9-13.1,13.1-13.1h16.5
			C30.3,100.5,26,107.9,25.6,116.3L25.6,116.3z M56.7,95.8h9.9v6.3c0,1.5,1.2,2.6,2.6,2.6c1.5,0,2.6-1.2,2.6-2.6v-6.3h9.9h0
			l-12.6,30.5L56.7,95.8L56.7,95.8z M107.8,130.7H73.2l14.3-34.7c11.3,0.9,20.2,10.4,20.2,21.9V130.7z M131.5,116.3H113
			c-0.5-8.4-4.7-15.7-11.1-20.4h16.5c7.2,0,13.1,5.9,13.1,13.1L131.5,116.3z"/>
		<path id="XMLID_9_" class="st0" d="M51.2,21.2l6.3,4.6l-2.4,7.4c-0.7,2.2,0,4.5,1.9,5.8c1.9,1.3,4.2,1.3,6.1,0l6.3-4.6l6.3,4.6
			c0.9,0.7,2,1,3.1,1c1.1,0,2.1-0.3,3-1c1.9-1.3,2.6-3.6,1.9-5.8l-2.4-7.4l6.3-4.6c1.9-1.3,2.6-3.6,1.9-5.8
			c-0.7-2.2-2.6-3.6-4.9-3.6h-7.8l-2.4-7.4c-0.7-2.2-2.6-3.6-4.9-3.6c-2.3,0-4.2,1.4-4.9,3.6L62,11.8h-7.8c-2.3,0-4.2,1.4-4.9,3.6
			C48.6,17.6,49.3,19.9,51.2,21.2z M63.9,17.1c1.1,0,2.2-0.7,2.5-1.8l2.9-8.9l2.9,8.9c0.4,1.1,1.4,1.8,2.5,1.8l9.4,0l-7.6,5.5
			c-0.9,0.7-1.3,1.9-1,3l2.9,8.9L70.8,29c-0.5-0.3-1-0.5-1.6-0.5c-0.5,0-1.1,0.2-1.6,0.5l-7.6,5.5l2.9-8.9c0.4-1.1,0-2.3-1-3
			l-7.6-5.5L63.9,17.1L63.9,17.1z"/>
		<path id="XMLID_8_" class="st0" d="M47.4,130.7c-0.7,0-1.4,0.3-1.9,0.8c-0.5,0.5-0.8,1.2-0.8,1.9s0.3,1.4,0.8,1.9
			c0.5,0.5,1.2,0.8,1.9,0.8c0.7,0,1.4-0.3,1.9-0.8c0.5-0.5,0.8-1.2,0.8-1.9s-0.3-1.4-0.8-1.9C48.8,130.9,48.1,130.7,47.4,130.7z"/>
	</g>
</g>
</svg>
