<?xml version="1.0" encoding="utf-8"?>
<!-- Generator: Adobe Illustrator 22.0.1, SVG Export Plug-In . SVG Version: 6.00 Build 0)  -->
<svg version="1.1" id="Layer_1" xmlns="http://www.w3.org/2000/svg" xmlns:xlink="http://www.w3.org/1999/xlink" x="0px" y="0px"
	 viewBox="0 0 133.6 134.1" style="enable-background:new 0 0 133.6 134.1;" xml:space="preserve">
<style type="text/css">
	.st0{fill:#FFFFFF;}
</style>
<g>
	<path class="st0" d="M94.6,1.1H39.2c-5.3,0-9.7,4.3-9.7,9.7v112.4c0,5.3,4.3,9.7,9.7,9.7h55.3c5.3,0,9.7-4.3,9.7-9.7V10.8
		C104.2,5.5,99.9,1.1,94.6,1.1z M33.9,18.7h65.9v83.5H33.9V18.7z M39.2,5.5h55.3c2.9,0,5.3,2.4,5.3,5.3v3.5H33.9v-3.5
		C33.9,7.9,36.3,5.5,39.2,5.5z M94.6,128.5H39.2c-2.9,0-5.3-2.4-5.3-5.3v-16.7h65.9v16.7C99.8,126.2,97.5,128.5,94.6,128.5z"/>
	<path class="st0" d="M66.9,108.8c-4.8,0-8.8,3.9-8.8,8.8c0,4.8,3.9,8.8,8.8,8.8s8.8-3.9,8.8-8.8C75.7,112.7,71.7,108.8,66.9,108.8z
		 M66.9,121.9c-2.4,0-4.4-2-4.4-4.4c0-2.4,2-4.4,4.4-4.4c2.4,0,4.4,2,4.4,4.4C71.3,120,69.3,121.9,66.9,121.9z"/>
	<path class="st0" d="M58.1,12.1h8.8c1.2,0,2.2-1,2.2-2.2s-1-2.2-2.2-2.2h-8.8c-1.2,0-2.2,1-2.2,2.2S56.9,12.1,58.1,12.1z"/>
	<path class="st0" d="M73.5,12.1h2.2c1.2,0,2.2-1,2.2-2.2s-1-2.2-2.2-2.2h-2.2c-1.2,0-2.2,1-2.2,2.2S72.3,12.1,73.5,12.1z"/>
	<path class="st0" d="M125.4,11.2c-0.9-0.9-2.2-0.9-3.1,0c-0.9,0.9-0.9,2.2,0,3.1c8.2,8.2,8.2,21.6,0,29.8c-0.9,0.9-0.9,2.2,0,3.1
		c0.4,0.4,1,0.6,1.6,0.6s1.1-0.2,1.6-0.6C135.3,37.2,135.3,21.1,125.4,11.2z"/>
	<path class="st0" d="M116.1,16.2c-0.9-0.9-2.2-0.9-3.1,0c-0.9,0.9-0.9,2.2,0,3.1c2.7,2.7,4.2,6.3,4.2,10.2s-1.5,7.5-4.2,10.2
		c-0.9,0.9-0.9,2.2,0,3.1c0.4,0.4,1,0.6,1.6,0.6s1.1-0.2,1.6-0.6c3.5-3.5,5.5-8.3,5.5-13.3S119.7,19.7,116.1,16.2z"/>
	<path class="st0" d="M11.5,14.3c0.9-0.9,0.9-2.2,0-3.1c-0.9-0.9-2.2-0.9-3.1,0c-9.9,9.9-9.9,26.1,0,36c0.4,0.4,1,0.6,1.6,0.6
		s1.1-0.2,1.6-0.6c0.9-0.9,0.9-2.2,0-3.1C3.3,35.8,3.3,22.5,11.5,14.3z"/>
	<path class="st0" d="M20.8,15.6c-0.9-0.9-2.2-0.9-3.1,0c-3.5,3.5-5.5,8.3-5.5,13.3s2,9.7,5.5,13.3c0.4,0.4,1,0.6,1.6,0.6
		s1.1-0.2,1.6-0.6c0.9-0.9,0.9-2.2,0-3.1c-2.7-2.7-4.2-6.3-4.2-10.2s1.5-7.5,4.2-10.2C21.7,17.8,21.7,16.4,20.8,15.6z"/>
</g>
</svg>
