<?xml version="1.0" encoding="utf-8"?>
<!-- Generator: Adobe Illustrator 22.0.1, SVG Export Plug-In . SVG Version: 6.00 Build 0)  -->
<svg version="1.1" id="Layer_1" xmlns="http://www.w3.org/2000/svg" xmlns:xlink="http://www.w3.org/1999/xlink" x="0px" y="0px"
	 viewBox="0 0 265.2 232.1" style="enable-background:new 0 0 265.2 232.1;" xml:space="preserve">
<style type="text/css">
	.st0{opacity:0.95;fill:#FFFFFF;}
	.st1{display:none;fill:#4C4C4C;}
	.st2{fill:#4C4C4C;}
	.st3{opacity:0.5;clip-path:url(#SVGID_2_);fill:url(#SVGID_3_);}
	.st4{opacity:0.5;clip-path:url(#SVGID_5_);fill:url(#SVGID_6_);}
	.st5{fill:url(#SVGID_7_);}
	.st6{opacity:0.5;fill:url(#SVGID_8_);}
	.st7{fill:url(#SVGID_9_);}
	.st8{fill:url(#SVGID_10_);}
	.st9{fill:url(#SVGID_11_);}
	.st10{opacity:0.5;fill:url(#SVGID_12_);}
	.st11{opacity:0.5;fill:url(#SVGID_13_);}
	.st12{opacity:0.5;fill:url(#SVGID_14_);}
	.st13{fill:url(#SVGID_15_);}
	.st14{opacity:0.5;fill:url(#SVGID_16_);}
	.st15{fill:url(#SVGID_17_);}
	.st16{fill:url(#SVGID_18_);}
	.st17{fill:url(#SVGID_19_);}
	.st18{opacity:0.5;fill:url(#SVGID_20_);}
	.st19{opacity:0.5;fill:url(#SVGID_21_);}
	.st20{opacity:0.5;fill:url(#SVGID_22_);}
	.st21{fill:none;}
	.st22{fill:url(#SVGID_23_);}
	.st23{fill:url(#SVGID_24_);}
	.st24{filter:url(#Adobe_OpacityMaskFilter);}
	.st25{fill:url(#SVGID_26_);}
	.st26{opacity:0.5;mask:url(#SVGID_25_);}
	.st27{opacity:0.5;clip-path:url(#SVGID_28_);fill:url(#SVGID_29_);}
	.st28{opacity:0.5;clip-path:url(#SVGID_31_);fill:url(#SVGID_32_);}
	.st29{fill:url(#SVGID_33_);}
	.st30{opacity:0.5;fill:url(#SVGID_34_);}
	.st31{fill:url(#SVGID_35_);}
	.st32{fill:url(#SVGID_36_);}
	.st33{fill:url(#SVGID_37_);}
	.st34{opacity:0.5;fill:url(#SVGID_38_);}
	.st35{opacity:0.5;fill:url(#SVGID_39_);}
	.st36{opacity:0.5;fill:url(#SVGID_40_);}
	.st37{fill:url(#SVGID_41_);}
	.st38{opacity:0.5;fill:url(#SVGID_42_);}
	.st39{fill:url(#SVGID_43_);}
	.st40{fill:url(#SVGID_44_);}
	.st41{fill:url(#SVGID_45_);}
	.st42{opacity:0.5;fill:url(#SVGID_46_);}
	.st43{opacity:0.5;fill:url(#SVGID_47_);}
	.st44{opacity:0.5;fill:url(#SVGID_48_);}
	.st45{fill:url(#SVGID_49_);}
	.st46{fill:url(#SVGID_50_);}
	.st47{display:none;}
	.st48{display:inline;fill:#0028A7;}
	.st49{font-family:'ZeroesOne-Regular';}
	.st50{font-size:36.657px;}
	.st51{display:inline;fill:#353535;}
	.st52{font-size:17.4645px;}
	.st53{letter-spacing:4;}
	.st54{display:inline;fill:none;}
	.st55{display:inline;fill:#F75900;}
	.st56{display:inline;fill:url(#SVGID_51_);}
	.st57{display:inline;fill:url(#SVGID_52_);}
	.st58{display:inline;fill:url(#SVGID_53_);}
	.st59{display:inline;fill:url(#SVGID_54_);}
	.st60{display:inline;}
	.st61{fill:#F75900;}
	.st62{fill:url(#SVGID_55_);}
	.st63{fill:url(#SVGID_56_);}
	.st64{fill:url(#SVGID_57_);}
	.st65{display:inline;fill:url(#SVGID_58_);}
	.st66{display:inline;fill:url(#SVGID_59_);}
	.st67{fill:url(#SVGID_60_);}
	.st68{fill:url(#SVGID_61_);}
	.st69{fill:url(#SVGID_62_);}
	.st70{fill:url(#SVGID_63_);}
	.st71{fill:url(#SVGID_64_);}
	.st72{fill:url(#SVGID_65_);}
	.st73{fill:url(#SVGID_66_);}
	.st74{fill:#353535;}
	.st75{fill:url(#SVGID_67_);}
	.st76{fill:url(#SVGID_68_);}
	.st77{fill:url(#SVGID_69_);}
	.st78{fill:url(#SVGID_70_);}
	.st79{fill:url(#SVGID_71_);}
	.st80{fill:url(#SVGID_72_);}
	.st81{fill:url(#SVGID_73_);}
	.st82{fill:url(#SVGID_74_);}
	.st83{fill:url(#SVGID_75_);}
	.st84{fill:url(#SVGID_76_);}
	.st85{fill:url(#SVGID_77_);}
	.st86{fill:url(#SVGID_78_);}
	.st87{fill:url(#SVGID_79_);}
	.st88{fill:url(#SVGID_80_);}
	.st89{fill:url(#SVGID_81_);}
	.st90{fill:url(#SVGID_82_);}
	.st91{fill:url(#SVGID_83_);}
	.st92{fill:url(#SVGID_84_);}
	.st93{fill:url(#SVGID_85_);}
	.st94{fill:url(#SVGID_86_);}
	.st95{opacity:0.4;fill:url(#SVGID_87_);}
	.st96{fill:url(#SVGID_88_);}
	.st97{opacity:0.4;fill:url(#SVGID_89_);}
	.st98{fill:url(#SVGID_90_);}
	.st99{opacity:0.4;fill:url(#SVGID_91_);}
	.st100{fill:url(#SVGID_92_);}
	.st101{opacity:0.4;fill:url(#SVGID_93_);}
	.st102{fill:url(#SVGID_94_);}
	.st103{opacity:0.4;fill:url(#SVGID_95_);}
	.st104{fill:url(#SVGID_96_);}
	.st105{opacity:0.4;fill:url(#SVGID_97_);}
	.st106{fill:url(#SVGID_98_);}
	.st107{opacity:0.4;fill:url(#SVGID_99_);}
	.st108{fill:url(#SVGID_100_);}
	.st109{opacity:0.4;fill:url(#SVGID_101_);}
	.st110{fill:url(#SVGID_102_);}
	.st111{opacity:0.4;fill:url(#SVGID_103_);}
</style>
<path class="st0" d="M251.1,231.2H13.5c-5.8,0-10.4-4.7-10.4-10.4V13.3c0-5.8,4.7-10.4,10.4-10.4h237.6c5.8,0,10.4,4.7,10.4,10.4
	v207.6C261.6,226.6,256.9,231.2,251.1,231.2z"/>
<g>
	<g>
		<g>
			<g>
				<path class="st1" d="M159.7,113.9c-8.1,1-14.5,1.1-22,1.1c-5.6,0-10.8-0.1-13.2-0.2c-1.6-0.1-3.2-0.1-4.8-0.2
					c-6.1-0.3-12.1-0.8-18.2-1.1c-1.4-0.1-2.2-0.1-3-0.1c0,0-0.8,0-1.8-0.1c-2.7-0.2-6.2-0.5-7-0.5c0,0.9,0,1.7,0,2.6
					c-1,0-1.9,0-2.9,0c-0.1,0.5-0.8,5.8,3,9.5c2.7,2.6,6,2.9,6.9,2.9h65.9c5.5,0,9.9-4.7,9.9-10.5v-5.6
					C169,112.4,164.7,113.2,159.7,113.9z"/>
				<g>
					<path class="st2" d="M180.8,45.5h1.2c-1.3-5.1-5.5-8.9-10.5-8.9H98.9c-0.9,0-4.5,0.2-7.5,3.4c-3.8,4-3.5,9.5-3.4,10.2
						c1.7-0.5,3.5-0.9,5.2-1.4c12.9-2.6,28.8-4.5,47-4.1c15.5,0.4,29.1,2.4,40.6,4.9V45.5z"/>
					<g>
						<defs>
							<path id="SVGID_1_" d="M171.4,35.7H98.9c-0.9,0-4.5,0.1-7.5,3c-3.8,3.6-3.5,8.4-3.4,9c1.7-0.4,3.5-0.8,5.2-1.2
								c12.9-2.3,28.8-4,47-3.6c16.2,0.3,30.4,2.3,42.2,4.7v-0.9C182.4,40.6,177.5,35.7,171.4,35.7z"/>
						</defs>
						<clipPath id="SVGID_2_">
							<use xlink:href="#SVGID_1_"  style="overflow:visible;"/>
						</clipPath>
						<linearGradient id="SVGID_3_" gradientUnits="userSpaceOnUse" x1="135.1856" y1="127.3152" x2="135.1856" y2="38.5593">
							<stop  offset="0.5405" style="stop-color:#FFFFFF;stop-opacity:0"/>
							<stop  offset="1" style="stop-color:#FFFFFF;stop-opacity:0.25"/>
						</linearGradient>
						<path class="st3" d="M171.3,38.6H99.1c-0.7,0-3.3,0.1-5.6,2.1c-3,2.6-3,6.2-3,6.8c1.4-0.3,2.5-0.4,3.2-0.4c0.4,0,0.7,0,3.2,0
							c0,0,0,0,0.8,0c8.1,0,17.3-1.6,17.3-1.6c9.5-1.7,20-1.6,26.1-1.6c8.9,0,15.9,0.8,21.5,1.3c6.9,0.7,12.9,1.6,17.4,2.4v-0.3
							C180,42.4,176.1,38.6,171.3,38.6z"/>
					</g>
				</g>
				<g>
					<path class="st2" d="M182.3,118.9c-4.7,0.9-10.6,2-17.6,2.8c-15,1.8-26.8,1.7-32.1,1.6c-5.6-0.1-16.7-0.6-30.5-2.8
						c-4.4-0.7-8.1-1.4-10.8-2c-0.1,1.7-0.1,3.4-0.2,5.2h-2.6c1.3,5.1,5.5,8.9,10.5,8.9h72.5c0.9,0,4.5-0.2,7.5-3.4
						C182.7,125.1,182.4,119.6,182.3,118.9z"/>
					<g>
						<defs>
							<path id="SVGID_4_" d="M99.3,132.5h72.2c0.8,0,4.5,0,7.5-2.8c3.7-3.4,3.5-8.2,3.4-8.8c-2,0.4-4.9,1-8.4,1.6
								c-3.7,0.6-20.9,3.4-45.4,2.4c-9.6-0.4-21.9-1.4-36.1-4c-1.3,0.5-2.7,1-4,1.4C88.4,128,93.3,132.5,99.3,132.5z"/>
						</defs>
						<clipPath id="SVGID_5_">
							<use xlink:href="#SVGID_4_"  style="overflow:visible;"/>
						</clipPath>
						
							<linearGradient id="SVGID_6_" gradientUnits="userSpaceOnUse" x1="679.5549" y1="-67.1247" x2="679.5549" y2="-171.3502" gradientTransform="matrix(-1 0 0 -1 814.9335 -40.8333)">
							<stop  offset="0.5405" style="stop-color:#FFFFFF;stop-opacity:0"/>
							<stop  offset="1" style="stop-color:#FFFFFF;stop-opacity:0.25"/>
						</linearGradient>
						<path class="st4" d="M176.8,122c-0.4,0-0.7,0-3.2,0h-0.8c-8,0-17.2,1.5-17.2,1.5c-10.1,1.4-19,1.6-26,1.5
							c-3.6-0.1-11.2-0.4-20.7-1.7c-6.4-0.9-12-2.1-16.5-3.2v5.2h-1.6c0.4,0.8,1.4,2.4,3.2,3.6c0.1,0.1,0.2,0.2,0.3,0.2
							c1.5,0.9,3.3,1.4,5.1,1.4c24-0.2,47.9-0.4,71.9-0.6c0.7,0,3.3-0.1,5.6-1.9c3-2.4,3-5.8,3-6.3C178.6,121.9,177.5,122,176.8,122
							z"/>
					</g>
				</g>
			</g>
			<g>
				<g>
					<g>
						<linearGradient id="SVGID_7_" gradientUnits="userSpaceOnUse" x1="73.9392" y1="62.7969" x2="183.6555" y2="62.7969">
							<stop  offset="1.818196e-02" style="stop-color:#0028A7"/>
							<stop  offset="0.1406" style="stop-color:#0031AA"/>
							<stop  offset="0.343" style="stop-color:#004AB2"/>
							<stop  offset="0.6005" style="stop-color:#0073BF"/>
							<stop  offset="0.9" style="stop-color:#00ACD1"/>
							<stop  offset="1" style="stop-color:#00C0D8"/>
						</linearGradient>
						<path class="st5" d="M183.7,52.4c-1-0.2-2.1-0.4-3.3-0.6c-56.7-10-99.2-0.9-105.2,9.6c-1.3,2.2-1.2,4.4-1.2,4.4
							c0.2,6.4,9.1,10.8,12.2,12.2c-0.7-1.3-1.6-3.4-1.2-5.6c0.8-4.5,6.1-7.1,10.4-8.8c13.5-5.5,27.1-7.2,39.4-8.4
							c6.3-0.6,11.2-1.1,16.8-1.5c1.2-0.1,4.2-0.3,7.3-0.5c5.6-0.3,13.4-0.5,23.1-0.2C182.5,52.8,183.1,52.6,183.7,52.4z"/>
						<linearGradient id="SVGID_8_" gradientUnits="userSpaceOnUse" x1="75.5289" y1="61.9812" x2="183.5797" y2="61.9812">
							<stop  offset="0" style="stop-color:#FFFFFF;stop-opacity:0.7"/>
							<stop  offset="0.7297" style="stop-color:#FFFFFF;stop-opacity:0"/>
						</linearGradient>
						<path class="st6" d="M183.6,52.6c-3.2-0.5-8.6-1.3-15.3-2c-66.8-7.5-87.8,6.8-91.2,10.8c-0.4,0.5-1.5,1.8-1.6,3.6
							c-0.4,4.9,6.1,9,8.4,10.4c-1-3-0.5-4.7,0-5.6c0.1-0.1,0.1-0.3,0.3-0.4c2-3,6.2-5.2,7-5.6c3.8-1.9,6.4-2.8,6.4-2.8
							c8.5-2.8,15.3-4,15.3-4c18.2-3.2,32.9-4.2,37.3-4.4c2.4-0.1,4.9-0.3,8.4-0.4c9.8-0.3,18,0,23.7,0.4
							C182.8,52.6,183.2,52.6,183.6,52.6z"/>
						<linearGradient id="SVGID_9_" gradientUnits="userSpaceOnUse" x1="181.9732" y1="49.6036" x2="188.6315" y2="49.6036">
							<stop  offset="1.818196e-02" style="stop-color:#0028A7"/>
							<stop  offset="0.1406" style="stop-color:#0031AA"/>
							<stop  offset="0.343" style="stop-color:#004AB2"/>
							<stop  offset="0.6005" style="stop-color:#0073BF"/>
							<stop  offset="0.9" style="stop-color:#00ACD1"/>
							<stop  offset="1" style="stop-color:#00C0D8"/>
						</linearGradient>
						<rect x="182" y="46.2" class="st7" width="6.7" height="6.8"/>
						<linearGradient id="SVGID_10_" gradientUnits="userSpaceOnUse" x1="189.3713" y1="56.5472" x2="196.0296" y2="56.5472">
							<stop  offset="1.818196e-02" style="stop-color:#0028A7"/>
							<stop  offset="0.1406" style="stop-color:#0031AA"/>
							<stop  offset="0.343" style="stop-color:#004AB2"/>
							<stop  offset="0.6005" style="stop-color:#0073BF"/>
							<stop  offset="0.9" style="stop-color:#00ACD1"/>
							<stop  offset="1" style="stop-color:#00C0D8"/>
						</linearGradient>
						<rect x="189.4" y="53.2" class="st8" width="6.7" height="6.7"/>
						<linearGradient id="SVGID_11_" gradientUnits="userSpaceOnUse" x1="178.3587" y1="58.2382" x2="185.5877" y2="58.2382">
							<stop  offset="1.818196e-02" style="stop-color:#0028A7"/>
							<stop  offset="0.1406" style="stop-color:#0031AA"/>
							<stop  offset="0.343" style="stop-color:#004AB2"/>
							<stop  offset="0.6005" style="stop-color:#0073BF"/>
							<stop  offset="0.9" style="stop-color:#00ACD1"/>
							<stop  offset="1" style="stop-color:#00C0D8"/>
						</linearGradient>
						<rect x="178.4" y="54.6" class="st9" width="7.2" height="7.2"/>
					</g>
				</g>
				<linearGradient id="SVGID_12_" gradientUnits="userSpaceOnUse" x1="182.7765" y1="49.6036" x2="187.5958" y2="49.6036">
					<stop  offset="0" style="stop-color:#FFFFFF;stop-opacity:0.7"/>
					<stop  offset="0.7297" style="stop-color:#FFFFFF;stop-opacity:0"/>
				</linearGradient>
				<rect x="182.8" y="47" class="st10" width="4.8" height="5.2"/>
				<linearGradient id="SVGID_13_" gradientUnits="userSpaceOnUse" x1="190.0054" y1="56.5472" x2="195.3955" y2="56.5472">
					<stop  offset="0" style="stop-color:#FFFFFF;stop-opacity:0.7"/>
					<stop  offset="0.7297" style="stop-color:#FFFFFF;stop-opacity:0"/>
				</linearGradient>
				<rect x="190" y="53.8" class="st11" width="5.4" height="5.5"/>
				<linearGradient id="SVGID_14_" gradientUnits="userSpaceOnUse" x1="179.162" y1="58.2382" x2="184.7845" y2="58.2382">
					<stop  offset="0" style="stop-color:#FFFFFF;stop-opacity:0.7"/>
					<stop  offset="0.7297" style="stop-color:#FFFFFF;stop-opacity:0"/>
				</linearGradient>
				<rect x="179.2" y="55.2" class="st12" width="5.6" height="6"/>
			</g>
			<g>
				<g>
					<g>
						<linearGradient id="SVGID_15_" gradientUnits="userSpaceOnUse" x1="88.3214" y1="105.2865" x2="198.0377" y2="105.2865">
							<stop  offset="0" style="stop-color:#00C0D8"/>
							<stop  offset="0.1" style="stop-color:#00ACD1"/>
							<stop  offset="0.3995" style="stop-color:#0073BF"/>
							<stop  offset="0.657" style="stop-color:#004AB2"/>
							<stop  offset="0.8594" style="stop-color:#0031AA"/>
							<stop  offset="0.9818" style="stop-color:#0028A7"/>
						</linearGradient>
						<path class="st13" d="M88.3,115.7c1,0.2,2.1,0.4,3.3,0.6c56.7,10,99.2,0.9,105.2-9.6c1.3-2.2,1.2-4.4,1.2-4.4
							c-0.2-6.4-9.1-10.8-12.2-12.2c0.7,1.3,1.6,3.4,1.2,5.6c-0.8,4.5-6.1,7.1-10.4,8.8c-13.5,5.5-27.1,7.2-39.4,8.4
							c-6.3,0.6-11.2,1.1-16.8,1.5c-1.2,0.1-4.2,0.3-7.3,0.5c-5.6,0.3-13.4,0.5-23.1,0.2C89.4,115.3,88.9,115.5,88.3,115.7z"/>
						
							<linearGradient id="SVGID_16_" gradientUnits="userSpaceOnUse" x1="537.55" y1="-101.4356" x2="645.6008" y2="-101.4356" gradientTransform="matrix(-1 0 0 -1 733.998 4.6667)">
							<stop  offset="0" style="stop-color:#FFFFFF;stop-opacity:0.7"/>
							<stop  offset="0.7297" style="stop-color:#FFFFFF;stop-opacity:0"/>
						</linearGradient>
						<path class="st14" d="M88.4,115.5c3.2,0.5,8.6,1.3,15.3,2c66.8,7.5,87.8-6.8,91.2-10.8c0.4-0.5,1.5-1.8,1.6-3.6
							c0.4-4.9-6.1-9-8.4-10.4c1,3,0.5,4.7,0,5.6c-0.1,0.1-0.1,0.3-0.3,0.4c-2,3-6.2,5.2-7,5.6c-3.8,1.9-6.4,2.8-6.4,2.8
							c-8.5,2.8-15.3,4-15.3,4c-18.2,3.2-32.9,4.2-37.3,4.4c-2.4,0.1-4.9,0.3-8.4,0.4c-9.8,0.3-18,0-23.7-0.4
							C89.2,115.5,88.8,115.5,88.4,115.5z"/>
						<linearGradient id="SVGID_17_" gradientUnits="userSpaceOnUse" x1="83.3453" y1="118.4798" x2="90.0036" y2="118.4798">
							<stop  offset="0" style="stop-color:#00C0D8"/>
							<stop  offset="0.1" style="stop-color:#00ACD1"/>
							<stop  offset="0.3995" style="stop-color:#0073BF"/>
							<stop  offset="0.657" style="stop-color:#004AB2"/>
							<stop  offset="0.8594" style="stop-color:#0031AA"/>
							<stop  offset="0.9818" style="stop-color:#0028A7"/>
						</linearGradient>
						<rect x="83.3" y="115.1" class="st15" width="6.7" height="6.8"/>
						<linearGradient id="SVGID_18_" gradientUnits="userSpaceOnUse" x1="75.9473" y1="111.5362" x2="82.6055" y2="111.5362">
							<stop  offset="0" style="stop-color:#00C0D8"/>
							<stop  offset="0.1" style="stop-color:#00ACD1"/>
							<stop  offset="0.3995" style="stop-color:#0073BF"/>
							<stop  offset="0.657" style="stop-color:#004AB2"/>
							<stop  offset="0.8594" style="stop-color:#0031AA"/>
							<stop  offset="0.9818" style="stop-color:#0028A7"/>
						</linearGradient>
						<rect x="75.9" y="108.2" class="st16" width="6.7" height="6.7"/>
						<linearGradient id="SVGID_19_" gradientUnits="userSpaceOnUse" x1="86.3891" y1="110.2468" x2="93.6181" y2="110.2468">
							<stop  offset="0" style="stop-color:#00C0D8"/>
							<stop  offset="0.1" style="stop-color:#00ACD1"/>
							<stop  offset="0.3995" style="stop-color:#0073BF"/>
							<stop  offset="0.657" style="stop-color:#004AB2"/>
							<stop  offset="0.8594" style="stop-color:#0031AA"/>
							<stop  offset="0.9818" style="stop-color:#0028A7"/>
						</linearGradient>
						<rect x="86.4" y="106.6" class="st17" width="7.2" height="7.2"/>
					</g>
				</g>
				
					<linearGradient id="SVGID_20_" gradientUnits="userSpaceOnUse" x1="644.7976" y1="-113.8131" x2="649.6169" y2="-113.8131" gradientTransform="matrix(-1 0 0 -1 733.998 4.6667)">
					<stop  offset="0" style="stop-color:#FFFFFF;stop-opacity:0.7"/>
					<stop  offset="0.7297" style="stop-color:#FFFFFF;stop-opacity:0"/>
				</linearGradient>
				<polygon class="st18" points="89.2,121.1 84.4,121.1 84.4,115.9 89.2,115.9 				"/>
				
					<linearGradient id="SVGID_21_" gradientUnits="userSpaceOnUse" x1="652.0266" y1="-106.8695" x2="657.4167" y2="-106.8695" gradientTransform="matrix(-1 0 0 -1 733.998 4.6667)">
					<stop  offset="0" style="stop-color:#FFFFFF;stop-opacity:0.7"/>
					<stop  offset="0.7297" style="stop-color:#FFFFFF;stop-opacity:0"/>
				</linearGradient>
				<polygon class="st19" points="82,114.3 76.6,114.3 76.6,108.8 82,108.8 				"/>
				
					<linearGradient id="SVGID_22_" gradientUnits="userSpaceOnUse" x1="641.1832" y1="-105.5801" x2="646.8057" y2="-105.5801" gradientTransform="matrix(-1 0 0 -1 733.998 4.6667)">
					<stop  offset="0" style="stop-color:#FFFFFF;stop-opacity:0.7"/>
					<stop  offset="0.7297" style="stop-color:#FFFFFF;stop-opacity:0"/>
				</linearGradient>
				<polygon class="st20" points="92.8,113.3 87.2,113.3 87.2,107.2 92.8,107.2 				"/>
			</g>
		</g>
		<g>
			<path class="st21" d="M163.9,105.6c-1.8,0.5-3.6,1-5.3,1.4c-0.3,0.2-0.7,0.3-1,0.5c-2.3,0.9-4.8,1.3-7.3,1.2
				c-4.2,0.7-8.5,1.3-13.3,1.8c-10.3,1.1-24,2.2-40.6,2.6v-2.6v-5h-4.8h-2.4c0,6.3,0,12.5,0,18.8c0,6.1,4.9,11.1,10.9,11.1h72.5
				c0.9,0,4.4-0.1,7.3-2.8c3.6-3.2,3.6-7.5,3.6-8.2c0-8.6,0-17.2,0-25.7c0,0-0.1,0.1-0.1,0.1C178.7,100.8,172.1,103.4,163.9,105.6z"
				/>
			<path class="st2" d="M122.9,107.7c0.3-0.1,0.4-0.2,0.4-0.2c0.4-0.1,1.3-0.5,3.2-1.5c-1.3,0.5-5.3,1.8-9.6,0.1
				c-0.7-0.3-2.3-1.1-4.1-2.6c-3.6-3.2-4.6-7.4-4.6-11.9c-0.1-8.8,0-17.7,0.1-26.5c0,0,0,0,0-0.1v-1.6h-2.2
				c-4.6,2.8-9.1,5.6-13.7,8.4v32.8h4.8v5c4,0,7.5,0,10.5-0.1c5-0.1,9.6-0.4,14-0.8C121.8,108.3,122.2,107.9,122.9,107.7z"/>
			<path class="st2" d="M118.8,64.7c0.1,15.6,1.9,17.5,0.1,22.8c-1.2,3.7-2.7,4.7-2,6.9c0.9,2.9,4.7,4.9,8,4.8c3.3,0,5.5-2,6.4-2.8
				c3.8-3.3,4.3-8,4.4-9.5c0.1-1.1,0-2.2,0-3.3c1.6,1.5,2.9,3,4.4,4.1c1.8,1.3,3.8,2.4,5.6,3.6c1,0.7,1.1,1.3,1.2,1.5
				c1,2.1,0,4.6-0.5,5.6c-0.9,2.2-1.6,5.6-1.2,10.8c1.2-0.1,2.4-0.3,3.6-0.4c-0.1-3.4-0.1-6.8-0.2-10.3c1.3,0,2.5,0.1,3.7,0
				c1.3-0.1,2.4-0.8,2.7-2.2c0.3-1.3-0.5-2.2-1.5-2.8c-1.8-1-3.6-1.8-5.3-2.8c-2.7-1.5-5.5-2.9-7.9-4.7c-6.5-5.1-5.7-16,1.2-20.9
				c5.8-4.1,19.1-4.6,25.6,4.8c-2.2,2.4-4.4,4.8-6.5,7.1c-0.4-0.4-5.7-5.5-9.5-5.4c-1.1,0-2,0.4-2,0.4c-0.3,0.1-2.5,1.1-2.8,3
				c-0.2,1.5,0.5,2.9,1.2,3.4c2.1,1.4,4.4,2.7,6.6,3.9c3.5,1.8,6.8,3.8,9.1,7.1c3.1,4.4,2.8,10-0.1,13.9c0,0,0.1,0,0.1,0
				c7.6-1.9,13.7-4.2,18.1-6V65.1c-1.9,0-3.7,0-5.6,0c0-2.7,0-5.4,0-8c-2.5,0-5.9,0.2-10,0.4c-2,0.1-3.9,0.3-5.7,0.4
				c-2.5,0.3-5.2,0.7-8.5,0.9c-2.8,0.3-5.5,0.7-8.3,1.1c-10.4,1.5-18.3,2.6-24.6,3.7C118.8,63.9,118.8,64.3,118.8,64.7z"/>
		</g>
		<g>
			<g>
				<g>
					<path class="st2" d="M146,108.5c-0.1,0-0.2,0-0.3,0v-2.4c-0.6,0.1-1.2,0.2-1.8,0.3c0,0.2-0.1,0.4-0.1,0.6h-4
						c-9.6,1.5-21.2,2.9-35.7,3.3c-0.8,0-1.6,0-2.4,0.1v2.4c13-0.5,24-1.4,32.5-2.4c4.2-0.5,8.1-0.9,11.8-1.5
						C145.9,108.8,145.9,108.6,146,108.5z"/>
				</g>
				<g>
					<path class="st2" d="M175.3,63.1v-5.9c-0.3-0.2-0.6-0.4-0.7-0.7c-0.2,0.1-0.4,0.1-0.7,0.1c-4.9,0.1-9.9,0.5-14.8,1
						c-0.5,0-0.9,0.1-1.4,0.1c1.6-0.1,3.2-0.2,4.9-0.4c4.1-0.3,7.6-0.4,10-0.4v8h8v-2H175.3z"/>
				</g>
				<g>
					<path class="st2" d="M117.3,60.9c-0.6,0.1-1.2,0.3-1.7,0.4c0,0.2,0,2.1,0,2.3c0.5-0.1,1.1-0.2,1.6-0.3c0-0.3,0-0.7,0-1
						C117.2,61.7,117.2,61.3,117.3,60.9z"/>
				</g>
				<g>
					<path class="st2" d="M178.4,97.3c-4.3,1.8-10.5,4-18.1,6c0,0-0.1,0-0.1,0c-0.5,0.7-1.2,1.4-2,2.1c-1.1,1-2.3,1.8-3.2,2.3
						c1.5-0.4,2.9-0.8,4.4-1.2c7.7-2.2,14.8-4.9,21.2-7.8c0,0,0.1-0.1,0.1-0.1V65.1c-0.8,0-1.6,0-2.4,0V97.3z"/>
				</g>
				<g>
					<path class="st2" d="M132.9,107v-2.4c0,0-0.1,0-0.1,0c-1.8,0.1-3.4,1.7-5,2.4c-1.7,0.7-3.5,1-5.3,1.3c-0.5,0.1-1,0-1.4-0.2
						c-4.3,0.4-8.5-0.9-11.9-3.8c-3.6-3.2-4.6-7.4-4.6-11.9c0-7.2,0-14.3,0-21.5c0,0,0,0,0,0c-0.8,0.8-2,1.1-3,0.6v38.8
						c0.8,0,1.6,0,2.4-0.1c14.5-0.4,26.1-1.9,35.7-3.3H132.9z"/>
				</g>
				<path class="st2" d="M134.2,107.2c0.1-2,0.3-4,0.4-6c-1.7,1.5-4.5,3.6-8.4,4.8c-2,0.6-11.2,3.2-16.9-1.7
					c-3-2.6-4.6-5.9-4.6-11.9c0-7.2,0-14.3,0-21.5c0,0,0,0,0,0c-0.8,0.8-2,1.1-3,0.6v38.8c0.8,0,1.6,0,2.4-0.1
					c14.5-0.4,26.1-1.9,35.7-3.3C137.9,107.1,136,107.2,134.2,107.2z"/>
				<g>
					<path class="st2" d="M172.7,65.1v-8c-2.5,0-5.9,0.2-10,0.4c-1.7,0.1-3.3,0.2-4.9,0.4c-0.6,0.1-1.2,0.1-1.8,0.2
						c-0.3,0-0.6,0.1-1,0.1c-1,0.1-2.1,0.3-3.1,0.6c-2.2,0.5-4.3,1.1-6.6,1.2c-1.9,0.3-3.8,0.8-5.8,1.1c-2.1,0.3-4.1,0.5-6.2,0.9
						c-2.1,0.4-4.1,0.6-6.2,1.2c-0.9,0.2-1.7,0.5-2.6,0.8c-0.3,0.1-0.9,0.5-1.2,0.4c-0.2,0-0.3,0-0.3,0c-0.7,1-2.1,1-3,0.5
						c-0.3,0.2-0.6,0.3-1,0.3c-1.2,0-1.8-0.8-1.9-1.8c-0.6,0.1-1.1,0.2-1.6,0.3c0,0.4,0,0.8,0,1.1c0,7.6,0,15.2,0.1,22.8
						c0,1.9,0.3,3.9,0.8,5.8c1.2,4.7,7.4,6.3,11.6,3c3.1-2.3,4.2-5.7,4.4-9.5c0.1-1.1,0-2.2,0-3.3c1.6,1.5,2.9,3,4.4,4.1
						c1.8,1.3,3.8,2.4,5.6,3.6c0.5,0.3,1.2,1,1.2,1.5c0.1,4.5,0,9,0,13.5c0,0,0,0.1,0,0.1c0.6-0.1,1.2-0.2,1.8-0.3v-7.5
						c0.4,0,0.8,0,1.1,0c0-1,0.6-2,1.9-2c1.1,0,1.7,0.7,1.9,1.6c0.7-0.4,1.2-1,1.4-1.8c0.3-1.3-0.5-2.2-1.5-2.8
						c-1.8-1-3.6-1.8-5.3-2.8c-2.7-1.5-5.5-2.9-7.9-4.7c-6.5-5.1-5.7-16,1.2-20.9c5.8-4.1,19.1-4.6,25.6,4.8
						c-2.2,2.4-4.4,4.8-6.5,7.1c-2-1.3-3.9-2.7-5.9-3.8c-1.7-0.9-3.6-1.4-5.4-0.7c-0.7,0.3-1.4,0.8-2,1.3c0,0.2,0,0.4,0,0.6
						c-0.3,1.2-0.2,2.4-0.2,3.6c0.2,0.2,0.3,0.3,0.5,0.4c2.1,1.4,4.4,2.7,6.6,3.9c3.5,1.8,6.8,3.8,9.1,7.1c3.1,4.4,2.8,10-0.1,13.9
						c0,0,0.1,0,0.1,0c7.6-1.9,13.7-4.2,18.1-6V65.1H172.7z"/>
				</g>
				<path class="st2" d="M172.7,65.1v-8c-2.5,0-5.9,0.2-10,0.4c-1.7,0.1-3.3,0.2-4.9,0.4c-0.6,0.1-1.2,0.1-1.8,0.2
					c-0.3,0-0.6,0.1-1,0.1c-1,0.1-2.1,0.3-3.1,0.6c-2.2,0.5-4.3,1.1-6.6,1.2c-1.9,0.3-3.8,0.8-5.8,1.1c-2.1,0.3-4.1,0.5-6.2,0.9
					c-2.1,0.4-4.1,0.6-6.2,1.2c-0.9,0.2-1.7,0.5-2.6,0.8c-0.3,0.1-0.9,0.5-1.2,0.4c-0.2,0-0.3,0-0.3,0c-0.7,1-2.1,1-3,0.5
					c-0.3,0.2-0.6,0.3-1,0.3c-1.2,0-1.8-0.8-1.9-1.8c-0.6,0.1-1.1,0.2-1.6,0.3c0,0.4,0,0.8,0,1.1c0,7.6,0,15.2,0.1,22.8
					c0,1.9,0.3,3.9,0.8,5.8c1.2,4.7,7.4,6.3,11.6,3c3.1-2.3,4.2-5.7,4.4-9.5c0.1-1.1,0-2.2,0-3.3c1.3,1.9,2.6,3.2,3.6,4
					c1.6,1.3,2.9,1.8,6,4c0.7,0.5,1.3,0.9,1.7,1.2c0.3,4.6,0.3,9.1,0,13.5c0,0,0,0.1,0,0.1c0.6-0.1,1.2-0.2,1.8-0.3v-7.5
					c0.4,0,0.8,0,1.1,0c0-1,0.6-2,1.9-2c1.1,0,1.7,0.7,1.9,1.6c0.7-0.4,1.2-1,1.4-1.8c0.3-1.3-0.5-2.2-1.5-2.8
					c-1.8-1-3.6-1.8-5.3-2.8c-2.7-1.5-5.5-2.9-7.9-4.7c-6.5-5.1-5.7-16,1.2-20.9c5.8-4.1,19.1-4.6,25.6,4.8
					c-1.6,1.8-3.1,3.5-4.7,5.3c-0.3-0.3-6-5.1-10.4-4.4c-1.3,0.2-2.4,0.8-2.4,0.8c-0.8,0.4-2.8,1.6-3.2,3.4
					c-0.4,1.8-0.3,2.4,1.2,3.4c2.1,1.4,4.4,2.7,6.6,3.9c3.5,1.8,6.8,3.8,9.1,7.1c3.1,4.4,2.8,10-0.1,13.9c0,0,0.1,0,0.1,0
					c7.6-1.9,13.7-4.2,18.1-6V65.1H172.7z"/>
			</g>
		</g>
		<g>
			<path class="st21" d="M162.7,105.6c-1.8,0.5-3.6,1-5.3,1.4c-0.3,0.2-0.7,0.3-1,0.5c-2.3,0.9-4.8,1.3-7.3,1.2
				c-4.2,0.7-8.5,1.3-13.3,1.8c-10.3,1.1-24,2.2-40.6,2.6v-2.6v-5h-4.8H88c0,6.3,0,12.5,0,18.8c0,6.1,4.9,11.1,10.9,11.1h72.5
				c0.9,0,4.4-0.1,7.3-2.8c3.6-3.2,3.6-7.5,3.6-8.2c0-8.6,0-17.2,0-25.7c0,0-0.1,0.1-0.1,0.1C177.5,100.8,170.9,103.4,162.7,105.6z"
				/>
			<path class="st2" d="M101.7,67.5c1.4-0.6,3-1.1,4.6-1.5c0-0.4,0-0.9,0-1.3c0-0.4,0-0.8,0-1.2c-0.5,0.1-1,0.3-1.4,0.4
				c-5.9,1.8-10,3.9-12.9,5.6c-1.7,1-3.1,1.9-4,2.5v2.1c0.7-0.4,1.5-0.9,2.4-1.4C93.2,71.2,97,69.3,101.7,67.5z"/>
			<path class="st2" d="M147.3,108.5C147.3,108.5,147.3,108.5,147.3,108.5l-0.1-2.4c-0.6,0.1-1.2,0.2-1.8,0.3c0,0.2-0.1,0.4-0.1,0.6
				h-4c-9.6,1.5-21.2,2.9-35.7,3.3c-3,0.1-6.5,0.1-10.5,0.1v2.6c16.7-0.4,30.4-1.5,40.6-2.6c4.1-0.5,7.9-0.9,11.5-1.5
				C147.3,108.8,147.3,108.6,147.3,108.5z"/>
			<path class="st2" d="M177,63.1v-8.4c-3.3,0.1-7,0.2-11,0.4c-0.7,0-1.4,0.1-2.3,0.1c-10,0.6-19.3,1.8-21,2
				c-8.4,1.1-17.4,2.2-25.5,3.7v1.9h0c0,0.2,0,0.5,0,0.7c6.3-1.1,14.2-2.2,24.6-3.7c2.8-0.4,5.5-0.8,8.3-1.1
				c2.7-0.3,5.5-0.6,8.5-0.9c1.8-0.2,3.7-0.3,5.7-0.4c4.1-0.3,7.6-0.4,10-0.4v8h8v-2H177z"/>
			<path class="st2" d="M150.1,58.7c3.3-0.2,6-0.5,8.5-0.9C155.6,58.1,152.8,58.4,150.1,58.7z"/>
			<path class="st2" d="M180,97.3c-4.3,1.8-10.5,4-18.1,6c0,0-0.1,0-0.1,0c-1.1,1.5-2.6,2.8-4.4,3.8c1.7-0.4,3.5-0.9,5.3-1.4
				c8.2-2.3,14.8-4.9,19.6-7c0,0,0.1-0.1,0.1-0.1V65.1c-0.8,0-1.6,0-2.4,0V97.3z"/>
			<path class="st2" d="M90.4,72.7c-0.9,0.5-1.7,1-2.4,1.4v31.4h2.4V72.7z"/>
			<path class="st2" d="M105.6,110.3c14.5-0.4,26.1-1.9,35.7-3.3c-2.2,0-4.5,0-6.8,0c0-1.4,0-2.7,0-4.4c-1.2,0.9-2.2,1.6-3.2,2.3
				c-6.8,4.7-14.9,4.4-20.5-0.5c-3.6-3.2-4.6-7.4-4.6-11.9c-0.1-8.8,0-17.7,0.1-26.5c-1.7,0.5-3.2,1-4.6,1.5
				c-4.6,1.8-8.4,3.7-11.2,5.2v32.8h4.8v5C99.1,110.5,102.7,110.4,105.6,110.3z"/>
			<linearGradient id="SVGID_23_" gradientUnits="userSpaceOnUse" x1="115.8651" y1="128.6814" x2="115.8651" y2="41.8992">
				<stop  offset="0" style="stop-color:#FFFFFF;stop-opacity:0"/>
				<stop  offset="1" style="stop-color:#FFFFFF;stop-opacity:0.25"/>
			</linearGradient>
			<path class="st22" d="M105.6,110.3c14.5-0.4,26.1-1.9,35.7-3.3c-2.2,0-4.5,0-6.8,0c0-1.4,0-2.7,0-4.4c-1.2,0.9-2.2,1.6-3.2,2.3
				c-6.8,4.7-14.9,4.4-20.5-0.5c-3.6-3.2-4.6-7.4-4.6-11.9c-0.1-8.8,0-17.7,0.1-26.5c-1.7,0.5-3.2,1-4.6,1.5
				c-4.6,1.8-8.4,3.7-11.2,5.2v32.8h4.8v5C99.1,110.5,102.7,110.4,105.6,110.3z"/>
			<path class="st2" d="M117.2,64.7c0,7.6,0,15.2,0.1,22.8c0,1.9,0.3,3.9,0.8,5.8c1.2,4.7,7.4,6.3,11.6,3c3.1-2.3,4.2-5.7,4.4-9.5
				c0.1-1.1,0-2.2,0-3.3c1.6,1.5,2.9,3,4.4,4.1c1.8,1.3,3.8,2.4,5.6,3.6c0.5,0.3,1.2,1,1.2,1.5c0.1,4.5,0,9,0,13.5c0,0,0,0.1,0,0.1
				c0.6-0.1,1.2-0.2,1.8-0.3c0-2.6,0-5.1,0-7.5c1.3,0,2.5,0.1,3.7,0c1.3-0.1,2.4-0.8,2.7-2.2c0.3-1.3-0.5-2.2-1.5-2.8
				c-1.8-1-3.6-1.8-5.3-2.8c-2.7-1.5-5.5-2.9-7.9-4.7c-6.5-5.1-5.7-16,1.2-20.9c5.8-4.1,19.1-4.6,25.6,4.8c-2.2,2.4-4.4,4.8-6.5,7.1
				c-2-1.3-3.9-2.7-5.9-3.8c-1.7-0.9-3.6-1.4-5.4-0.7c-1.2,0.5-2.4,1.4-3,2.5c-0.7,1.3,0.1,2.7,1.2,3.4c2.1,1.4,4.4,2.7,6.6,3.9
				c3.5,1.8,6.8,3.8,9.1,7.1c3.1,4.4,2.8,10-0.1,13.9c0,0,0.1,0,0.1,0c7.6-1.9,13.7-4.2,18.1-6V65.1c-1.9,0-3.7,0-5.6,0
				c0-2.7,0-5.4,0-8c-2.5,0-5.9,0.2-10,0.4c-2,0.1-3.9,0.3-5.7,0.4c-2.5,0.3-5.2,0.7-8.5,0.9c-2.8,0.3-5.5,0.7-8.3,1.1
				c-10.4,1.5-18.3,2.6-24.6,3.7C117.2,63.9,117.2,64.3,117.2,64.7z"/>
			<linearGradient id="SVGID_24_" gradientUnits="userSpaceOnUse" x1="148.5664" y1="128.6814" x2="148.5664" y2="41.8992">
				<stop  offset="0" style="stop-color:#FFFFFF;stop-opacity:0"/>
				<stop  offset="1" style="stop-color:#FFFFFF;stop-opacity:0.25"/>
			</linearGradient>
			<path class="st23" d="M117.2,64.7c0,7.6,0,15.2,0.1,22.8c0,1.9,0.3,3.9,0.8,5.8c1.2,4.7,7.4,6.3,11.6,3c3.1-2.3,4.2-5.7,4.4-9.5
				c0.1-1.1,0-2.2,0-3.3c1.6,1.5,2.9,3,4.4,4.1c1.8,1.3,3.8,2.4,5.6,3.6c0.5,0.3,1.2,1,1.2,1.5c0.1,4.5,0,9,0,13.5c0,0,0,0.1,0,0.1
				c0.6-0.1,1.2-0.2,1.8-0.3c0-2.6,0-5.1,0-7.5c1.3,0,2.5,0.1,3.7,0c1.3-0.1,2.4-0.8,2.7-2.2c0.3-1.3-0.5-2.2-1.5-2.8
				c-1.8-1-3.6-1.8-5.3-2.8c-2.7-1.5-5.5-2.9-7.9-4.7c-6.5-5.1-5.7-16,1.2-20.9c5.8-4.1,19.1-4.6,25.6,4.8c-2.2,2.4-4.4,4.8-6.5,7.1
				c-2-1.3-3.9-2.7-5.9-3.8c-1.7-0.9-3.6-1.4-5.4-0.7c-1.2,0.5-2.4,1.4-3,2.5c-0.7,1.3,0.1,2.7,1.2,3.4c2.1,1.4,4.4,2.7,6.6,3.9
				c3.5,1.8,6.8,3.8,9.1,7.1c3.1,4.4,2.8,10-0.1,13.9c0,0,0.1,0,0.1,0c7.6-1.9,13.7-4.2,18.1-6V65.1c-1.9,0-3.7,0-5.6,0
				c0-2.7,0-5.4,0-8c-2.5,0-5.9,0.2-10,0.4c-2,0.1-3.9,0.3-5.7,0.4c-2.5,0.3-5.2,0.7-8.5,0.9c-2.8,0.3-5.5,0.7-8.3,1.1
				c-10.4,1.5-18.3,2.6-24.6,3.7C117.2,63.9,117.2,64.3,117.2,64.7z"/>
		</g>
	</g>
	<defs>
		<filter id="Adobe_OpacityMaskFilter" filterUnits="userSpaceOnUse" x="74" y="119.9" width="124.2" height="110.2">
			<feColorMatrix  type="matrix" values="1 0 0 0 0  0 1 0 0 0  0 0 1 0 0  0 0 0 1 0"/>
		</filter>
	</defs>
	<mask maskUnits="userSpaceOnUse" x="74" y="119.9" width="124.2" height="110.2" id="SVGID_25_">
		<g class="st24">
			<linearGradient id="SVGID_26_" gradientUnits="userSpaceOnUse" x1="139.6477" y1="249.1151" x2="139.6477" y2="133.0074">
				<stop  offset="0.8757" style="stop-color:#FFFFFF;stop-opacity:0"/>
				<stop  offset="1" style="stop-color:#FFFFFF;stop-opacity:0.2"/>
			</linearGradient>
			<rect x="71.7" y="133" class="st25" width="135.9" height="116.1"/>
		</g>
	</mask>
	<g class="st26">
		<g>
			<g>
				<path class="st1" d="M168.5,122.3c-8.9,1.1-16,1.2-24.2,1.3c-6.2,0-11.8-0.1-14.5-0.2c-1.7-0.1-3.5-0.1-5.3-0.2
					c-6.7-0.3-13.4-0.9-20.1-1.2c-1.5-0.1-2.4-0.1-3.4-0.2c0,0-0.9-0.1-1.9-0.1c-3-0.2-6.8-0.5-7.7-0.6c0,0.9,0,1.9,0,2.8
					c-1.1,0-2.1,0-3.2,0c-0.1,0.6-0.9,6.3,3.4,10.4c3,2.9,6.6,3.2,7.6,3.2h72.6c6,0,11-5.2,11-11.5v-6.2
					C178.7,120.7,174,121.7,168.5,122.3z"/>
				<g>
					<path class="st2" d="M181,220.3h1.2c-1.3,5.2-5.5,8.9-10.5,8.9H99.1c-0.9,0-4.5-0.2-7.5-3.4c-3.8-4-3.5-9.5-3.4-10.3
						c1.7,0.5,3.5,0.9,5.2,1.4c12.9,2.6,28.8,4.5,47,4.1c15.5-0.4,29.1-2.4,40.6-4.9V220.3z"/>
					<g>
						<defs>
							<path id="SVGID_27_" d="M171.6,230H99.1c-0.9,0-4.5-0.1-7.5-3c-3.8-3.6-3.5-8.4-3.4-9c1.7,0.4,3.5,0.8,5.2,1.2
								c12.9,2.3,28.8,4,47,3.6c16.2-0.3,30.4-2.3,42.2-4.7v0.9C182.6,225.1,177.7,230,171.6,230z"/>
						</defs>
						<clipPath id="SVGID_28_">
							<use xlink:href="#SVGID_27_"  style="overflow:visible;"/>
						</clipPath>
						
							<linearGradient id="SVGID_29_" gradientUnits="userSpaceOnUse" x1="135.3463" y1="40.5813" x2="135.3463" y2="-48.2557" gradientTransform="matrix(1 0 0 -1 0 178.9795)">
							<stop  offset="0.5405" style="stop-color:#FFFFFF;stop-opacity:0"/>
							<stop  offset="1" style="stop-color:#FFFFFF;stop-opacity:0.25"/>
						</linearGradient>
						<path class="st27" d="M171.5,227.2H99.2c-0.8,0-3.3-0.1-5.6-2.1c-3-2.6-3-6.2-3-6.8c1.4,0.3,2.5,0.4,3.2,0.4
							c0.4,0,0.7,0,3.2,0c0,0,0,0,0.8,0c8.1,0,17.3,1.6,17.3,1.6c9.6,1.7,20,1.6,26.1,1.6c8.9,0,16-0.8,21.5-1.3
							c7-0.7,12.9-1.6,17.4-2.4v0.3C180.2,223.4,176.3,227.2,171.5,227.2z"/>
					</g>
				</g>
				<g>
					<path class="st2" d="M182.6,146.8c-4.7-0.9-10.6-2-17.7-2.8c-15-1.8-26.8-1.7-32.2-1.6c-5.6,0.1-16.7,0.6-30.6,2.8
						c-4.4,0.7-8.1,1.4-10.9,2c-0.1-1.7-0.1-3.5-0.2-5.2h-2.6c1.3-5.1,5.5-8.9,10.5-8.9h72.6c0.9,0,4.5,0.2,7.5,3.4
						C182.9,140.6,182.6,146.1,182.6,146.8z"/>
					<g>
						<defs>
							<path id="SVGID_30_" d="M99.4,133.2h72.2c0.8,0,4.5,0,7.5,2.8c3.7,3.4,3.5,8.2,3.4,8.8c-2-0.4-4.9-1-8.4-1.6
								c-3.7-0.6-20.9-3.4-45.4-2.4c-9.6,0.4-22,1.4-36.2,4c-1.3-0.5-2.7-1-4-1.4C88.5,137.7,93.4,133.2,99.4,133.2z"/>
						</defs>
						<clipPath id="SVGID_31_">
							<use xlink:href="#SVGID_30_"  style="overflow:visible;"/>
						</clipPath>
						
							<linearGradient id="SVGID_32_" gradientUnits="userSpaceOnUse" x1="679.394" y1="19.7015" x2="679.394" y2="-84.6193" gradientTransform="matrix(-1 0 0 1 814.9335 219.8128)">
							<stop  offset="0.5405" style="stop-color:#FFFFFF;stop-opacity:0"/>
							<stop  offset="1" style="stop-color:#FFFFFF;stop-opacity:0.25"/>
						</linearGradient>
						<path class="st28" d="M177,143.7c-0.4,0-0.7,0-3.2,0h-0.8c-8,0-17.2-1.5-17.2-1.5c-10.2-1.4-19-1.6-26-1.5
							c-3.6,0.1-11.2,0.4-20.7,1.7c-6.4,0.9-12,2.1-16.5,3.2v-5.2h-1.6c0.4-0.8,1.4-2.4,3.2-3.6c0.1-0.1,0.2-0.2,0.3-0.2
							c1.5-0.9,3.3-1.4,5.1-1.4c24,0.2,48,0.4,72,0.6c0.7,0,3.3,0.1,5.6,1.9c3,2.4,3,5.8,3,6.3C178.8,143.8,177.7,143.7,177,143.7z"
							/>
					</g>
				</g>
			</g>
			<g>
				<g>
					<g>
						<linearGradient id="SVGID_33_" gradientUnits="userSpaceOnUse" x1="74.044" y1="202.9754" x2="183.8606" y2="202.9754">
							<stop  offset="0" style="stop-color:#00C0D8"/>
							<stop  offset="0.1" style="stop-color:#00ACD1"/>
							<stop  offset="0.3995" style="stop-color:#0073BF"/>
							<stop  offset="0.657" style="stop-color:#004AB2"/>
							<stop  offset="0.8594" style="stop-color:#0031AA"/>
							<stop  offset="0.9818" style="stop-color:#0028A7"/>
						</linearGradient>
						<path class="st29" d="M183.9,213.4c-1,0.2-2.1,0.4-3.3,0.6c-56.8,10-99.3,0.9-105.3-9.6c-1.3-2.2-1.2-4.4-1.2-4.4
							c0.2-6.4,9.1-10.8,12.3-12.3c-0.7,1.3-1.6,3.4-1.2,5.6c0.8,4.5,6.2,7.1,10.5,8.8c13.5,5.5,27.1,7.2,39.4,8.4
							c6.3,0.6,11.2,1.1,16.8,1.5c1.2,0.1,4.2,0.3,7.3,0.5c5.6,0.3,13.4,0.5,23.1,0.2C182.7,213,183.3,213.2,183.9,213.4z"/>
						
							<linearGradient id="SVGID_34_" gradientUnits="userSpaceOnUse" x1="75.6351" y1="-24.8125" x2="183.7847" y2="-24.8125" gradientTransform="matrix(1 0 0 -1 0 178.9795)">
							<stop  offset="0" style="stop-color:#FFFFFF;stop-opacity:0.7"/>
							<stop  offset="0.7297" style="stop-color:#FFFFFF;stop-opacity:0"/>
						</linearGradient>
						<path class="st30" d="M183.8,213.2c-3.2,0.5-8.6,1.3-15.3,2c-66.9,7.5-87.9-6.8-91.2-10.9c-0.4-0.5-1.5-1.8-1.6-3.6
							c-0.4-4.9,6.1-9,8.4-10.5c-1,3-0.5,4.7,0,5.6c0.1,0.1,0.1,0.3,0.3,0.4c2,3,6.2,5.2,7,5.6c3.8,1.9,6.4,2.8,6.4,2.8
							c8.5,2.8,15.3,4,15.3,4c18.2,3.2,33,4.2,37.4,4.4c2.4,0.1,4.9,0.3,8.4,0.4c9.8,0.3,18,0,23.7-0.4
							C183,213.2,183.4,213.2,183.8,213.2z"/>
						<linearGradient id="SVGID_35_" gradientUnits="userSpaceOnUse" x1="182.1768" y1="216.1808" x2="188.8411" y2="216.1808">
							<stop  offset="0" style="stop-color:#00C0D8"/>
							<stop  offset="0.1" style="stop-color:#00ACD1"/>
							<stop  offset="0.3995" style="stop-color:#0073BF"/>
							<stop  offset="0.657" style="stop-color:#004AB2"/>
							<stop  offset="0.8594" style="stop-color:#0031AA"/>
							<stop  offset="0.9818" style="stop-color:#0028A7"/>
						</linearGradient>
						<rect x="182.2" y="212.8" class="st31" width="6.7" height="6.8"/>
						<linearGradient id="SVGID_36_" gradientUnits="userSpaceOnUse" x1="189.5816" y1="209.2309" x2="196.246" y2="209.2309">
							<stop  offset="0" style="stop-color:#00C0D8"/>
							<stop  offset="0.1" style="stop-color:#00ACD1"/>
							<stop  offset="0.3995" style="stop-color:#0073BF"/>
							<stop  offset="0.657" style="stop-color:#004AB2"/>
							<stop  offset="0.8594" style="stop-color:#0031AA"/>
							<stop  offset="0.9818" style="stop-color:#0028A7"/>
						</linearGradient>
						<rect x="189.6" y="205.9" class="st32" width="6.7" height="6.7"/>
						<linearGradient id="SVGID_37_" gradientUnits="userSpaceOnUse" x1="178.559" y1="207.5383" x2="185.7946" y2="207.5383">
							<stop  offset="0" style="stop-color:#00C0D8"/>
							<stop  offset="0.1" style="stop-color:#00ACD1"/>
							<stop  offset="0.3995" style="stop-color:#0073BF"/>
							<stop  offset="0.657" style="stop-color:#004AB2"/>
							<stop  offset="0.8594" style="stop-color:#0031AA"/>
							<stop  offset="0.9818" style="stop-color:#0028A7"/>
						</linearGradient>
						<rect x="178.6" y="203.9" class="st33" width="7.2" height="7.2"/>
					</g>
				</g>
				
					<linearGradient id="SVGID_38_" gradientUnits="userSpaceOnUse" x1="182.9807" y1="-37.2014" x2="187.8045" y2="-37.2014" gradientTransform="matrix(1 0 0 -1 0 178.9795)">
					<stop  offset="0" style="stop-color:#FFFFFF;stop-opacity:0.7"/>
					<stop  offset="0.7297" style="stop-color:#FFFFFF;stop-opacity:0"/>
				</linearGradient>
				<rect x="183" y="213.6" class="st34" width="4.8" height="5.2"/>
				
					<linearGradient id="SVGID_39_" gradientUnits="userSpaceOnUse" x1="190.2163" y1="-30.2514" x2="195.6113" y2="-30.2514" gradientTransform="matrix(1 0 0 -1 0 178.9795)">
					<stop  offset="0" style="stop-color:#FFFFFF;stop-opacity:0.7"/>
					<stop  offset="0.7297" style="stop-color:#FFFFFF;stop-opacity:0"/>
				</linearGradient>
				<rect x="190.2" y="206.5" class="st35" width="5.4" height="5.5"/>
				
					<linearGradient id="SVGID_40_" gradientUnits="userSpaceOnUse" x1="179.3629" y1="-28.5588" x2="184.9906" y2="-28.5588" gradientTransform="matrix(1 0 0 -1 0 178.9795)">
					<stop  offset="0" style="stop-color:#FFFFFF;stop-opacity:0.7"/>
					<stop  offset="0.7297" style="stop-color:#FFFFFF;stop-opacity:0"/>
				</linearGradient>
				<rect x="179.4" y="204.5" class="st36" width="5.6" height="6"/>
			</g>
			<g>
				<g>
					<g>
						<linearGradient id="SVGID_41_" gradientUnits="userSpaceOnUse" x1="88.4393" y1="160.447" x2="198.2559" y2="160.447">
							<stop  offset="0" style="stop-color:#00C0D8"/>
							<stop  offset="0.1" style="stop-color:#00ACD1"/>
							<stop  offset="0.3995" style="stop-color:#0073BF"/>
							<stop  offset="0.657" style="stop-color:#004AB2"/>
							<stop  offset="0.8594" style="stop-color:#0031AA"/>
							<stop  offset="0.9818" style="stop-color:#0028A7"/>
						</linearGradient>
						<path class="st37" d="M88.4,150.1c1-0.2,2.1-0.4,3.3-0.6c56.8-10,99.3-0.9,105.3,9.6c1.3,2.2,1.2,4.4,1.2,4.4
							c-0.2,6.4-9.1,10.8-12.3,12.3c0.7-1.3,1.6-3.4,1.2-5.6c-0.8-4.5-6.2-7.1-10.5-8.8c-13.5-5.5-27.1-7.2-39.4-8.4
							c-6.3-0.6-11.2-1.1-16.8-1.5c-1.2-0.1-4.2-0.3-7.3-0.5c-5.6-0.3-13.4-0.5-23.1-0.2C89.6,150.5,89,150.3,88.4,150.1z"/>
						
							<linearGradient id="SVGID_42_" gradientUnits="userSpaceOnUse" x1="537.3333" y1="-14.6823" x2="645.4828" y2="-14.6823" gradientTransform="matrix(-1 0 0 1 733.998 174.3128)">
							<stop  offset="0" style="stop-color:#FFFFFF;stop-opacity:0.7"/>
							<stop  offset="0.7297" style="stop-color:#FFFFFF;stop-opacity:0"/>
						</linearGradient>
						<path class="st38" d="M88.5,150.3c3.2-0.5,8.6-1.3,15.3-2c66.9-7.5,87.9,6.8,91.2,10.9c0.4,0.5,1.5,1.8,1.6,3.6
							c0.4,4.9-6.1,9-8.4,10.5c1-3,0.5-4.7,0-5.6c-0.1-0.1-0.1-0.3-0.3-0.4c-2-3-6.2-5.2-7-5.6c-3.8-1.9-6.4-2.8-6.4-2.8
							c-8.5-2.8-15.3-4-15.3-4c-18.2-3.2-33-4.2-37.4-4.4c-2.4-0.1-4.9-0.3-8.4-0.4c-9.8-0.3-18,0-23.7,0.4
							C89.3,150.3,88.9,150.3,88.5,150.3z"/>
						<linearGradient id="SVGID_43_" gradientUnits="userSpaceOnUse" x1="83.4587" y1="147.2417" x2="90.1231" y2="147.2417">
							<stop  offset="0" style="stop-color:#00C0D8"/>
							<stop  offset="0.1" style="stop-color:#00ACD1"/>
							<stop  offset="0.3995" style="stop-color:#0073BF"/>
							<stop  offset="0.657" style="stop-color:#004AB2"/>
							<stop  offset="0.8594" style="stop-color:#0031AA"/>
							<stop  offset="0.9818" style="stop-color:#0028A7"/>
						</linearGradient>
						<rect x="83.5" y="143.8" class="st39" width="6.7" height="6.8"/>
						<linearGradient id="SVGID_44_" gradientUnits="userSpaceOnUse" x1="76.0539" y1="154.1916" x2="82.7182" y2="154.1916">
							<stop  offset="0" style="stop-color:#00C0D8"/>
							<stop  offset="0.1" style="stop-color:#00ACD1"/>
							<stop  offset="0.3995" style="stop-color:#0073BF"/>
							<stop  offset="0.657" style="stop-color:#004AB2"/>
							<stop  offset="0.8594" style="stop-color:#0031AA"/>
							<stop  offset="0.9818" style="stop-color:#0028A7"/>
						</linearGradient>
						<rect x="76.1" y="150.9" class="st40" width="6.7" height="6.7"/>
						<linearGradient id="SVGID_45_" gradientUnits="userSpaceOnUse" x1="86.5053" y1="155.4822" x2="93.7409" y2="155.4822">
							<stop  offset="0" style="stop-color:#00C0D8"/>
							<stop  offset="0.1" style="stop-color:#00ACD1"/>
							<stop  offset="0.3995" style="stop-color:#0073BF"/>
							<stop  offset="0.657" style="stop-color:#004AB2"/>
							<stop  offset="0.8594" style="stop-color:#0031AA"/>
							<stop  offset="0.9818" style="stop-color:#0028A7"/>
						</linearGradient>
						<rect x="86.5" y="151.9" class="st41" width="7.2" height="7.2"/>
					</g>
				</g>
				
					<linearGradient id="SVGID_46_" gradientUnits="userSpaceOnUse" x1="644.6789" y1="-27.0712" x2="649.5026" y2="-27.0712" gradientTransform="matrix(-1 0 0 1 733.998 174.3128)">
					<stop  offset="0" style="stop-color:#FFFFFF;stop-opacity:0.7"/>
					<stop  offset="0.7297" style="stop-color:#FFFFFF;stop-opacity:0"/>
				</linearGradient>
				<polygon class="st42" points="89.3,144.6 84.5,144.6 84.5,149.9 89.3,149.9 				"/>
				
					<linearGradient id="SVGID_47_" gradientUnits="userSpaceOnUse" x1="651.9145" y1="-20.1212" x2="657.3094" y2="-20.1212" gradientTransform="matrix(-1 0 0 1 733.998 174.3128)">
					<stop  offset="0" style="stop-color:#FFFFFF;stop-opacity:0.7"/>
					<stop  offset="0.7297" style="stop-color:#FFFFFF;stop-opacity:0"/>
				</linearGradient>
				<polygon class="st43" points="82.1,151.5 76.7,151.5 76.7,156.9 82.1,156.9 				"/>
				
					<linearGradient id="SVGID_48_" gradientUnits="userSpaceOnUse" x1="641.0611" y1="-18.8306" x2="646.6888" y2="-18.8306" gradientTransform="matrix(-1 0 0 1 733.998 174.3128)">
					<stop  offset="0" style="stop-color:#FFFFFF;stop-opacity:0.7"/>
					<stop  offset="0.7297" style="stop-color:#FFFFFF;stop-opacity:0"/>
				</linearGradient>
				<polygon class="st44" points="92.9,152.5 87.3,152.5 87.3,158.5 92.9,158.5 				"/>
			</g>
		</g>
		<g>
			<path class="st21" d="M164.1,160.1c-1.8-0.5-3.6-1-5.3-1.4c-0.3-0.2-0.7-0.3-1-0.5c-2.3-0.9-4.8-1.3-7.3-1.2
				c-4.2-0.7-8.5-1.3-13.3-1.8c-10.3-1.1-24-2.3-40.7-2.6v2.6v5h-4.8h-2.4c0-6.3,0-12.5,0-18.8c0-6.1,4.9-11.1,11-11.1h72.6
				c0.9,0,4.4,0.1,7.3,2.8c3.6,3.2,3.6,7.6,3.6,8.3c0,8.6,0,17.2,0,25.8c0,0-0.1-0.1-0.1-0.1C178.9,165,172.3,162.4,164.1,160.1z"/>
			<path class="st2" d="M123,158c0.3,0.1,0.4,0.2,0.4,0.2c0.4,0.1,1.3,0.5,3.2,1.5c-1.3-0.5-5.3-1.8-9.7-0.1
				c-0.7,0.3-2.3,1.1-4.1,2.6c-3.6,3.2-4.6,7.4-4.6,11.9c-0.1,8.8,0,17.7,0.1,26.5c0,0,0,0,0,0.1v1.6h-2.2
				c-4.6-2.8-9.1-5.6-13.7-8.5V161h4.8v-5c4,0,7.5,0,10.5,0.1c5,0.1,9.6,0.4,14,0.8C122,157.4,122.4,157.8,123,158z"/>
			<path class="st2" d="M118.9,201.1c0.1-15.6,1.9-17.5,0.1-22.9c-1.2-3.7-2.7-4.7-2-6.9c0.9-2.9,4.7-4.9,8-4.8c3.3,0,5.5,2,6.5,2.8
				c3.8,3.3,4.3,8,4.4,9.5c0.1,1.1,0,2.2,0,3.4c1.6-1.5,2.9-3,4.4-4.1c1.8-1.3,3.8-2.4,5.6-3.6c1-0.7,1.1-1.3,1.2-1.5
				c1-2.1,0-4.6-0.5-5.6c-0.9-2.2-1.7-5.6-1.2-10.9c1.2,0.1,2.4,0.3,3.6,0.4c-0.1,3.4-0.1,6.9-0.2,10.3c1.3,0,2.5-0.1,3.7,0
				c1.3,0.1,2.4,0.8,2.8,2.2c0.3,1.3-0.5,2.2-1.6,2.8c-1.8,1-3.6,1.8-5.4,2.8c-2.7,1.5-5.5,2.9-7.9,4.7c-6.5,5.1-5.7,16,1.2,20.9
				c5.8,4.1,19.1,4.6,25.7-4.8c-2.2-2.4-4.4-4.8-6.5-7.1c-0.4,0.4-5.7,5.5-9.5,5.4c-1.1,0-2-0.4-2-0.4c-0.3-0.1-2.5-1.1-2.8-3
				c-0.2-1.5,0.5-2.9,1.2-3.4c2.1-1.4,4.4-2.7,6.6-3.9c3.5-1.8,6.8-3.8,9.1-7.1c3.1-4.4,2.8-10-0.1-14c0,0,0.1,0,0.1,0
				c7.6,1.9,13.8,4.2,18.1,6v32.2c-1.9,0-3.8,0-5.6,0c0,2.7,0,5.4,0,8c-2.5,0-5.9-0.2-10-0.4c-2-0.1-3.9-0.3-5.7-0.4
				c-2.5-0.3-5.2-0.7-8.5-0.9c-2.8-0.3-5.5-0.7-8.3-1.1c-10.4-1.5-18.4-2.6-24.7-3.7C118.9,201.8,118.9,201.5,118.9,201.1z"/>
		</g>
		<g>
			<g>
				<g>
					<path class="st2" d="M146.1,157.2c-0.1,0-0.2,0-0.3,0v2.4c-0.6-0.1-1.2-0.2-1.8-0.3c0-0.2-0.1-0.4-0.1-0.6h-4
						c-9.6-1.5-21.2-2.9-35.7-3.4c-0.8,0-1.6,0-2.4-0.1v-2.4c13.1,0.5,24,1.4,32.6,2.4c4.2,0.5,8.1,0.9,11.8,1.5
						C146.1,157,146.1,157.1,146.1,157.2z"/>
				</g>
				<g>
					<path class="st2" d="M175.5,202.7v5.9c-0.3,0.2-0.6,0.4-0.7,0.7c-0.2-0.1-0.4-0.1-0.7-0.1c-4.9-0.1-9.9-0.5-14.8-1
						c-0.5,0-0.9-0.1-1.4-0.1c1.6,0.1,3.2,0.2,4.9,0.4c4.1,0.3,7.6,0.4,10,0.4v-8h8v2H175.5z"/>
				</g>
				<g>
					<path class="st2" d="M117.4,204.9c-0.6-0.1-1.2-0.3-1.7-0.4c0-0.2,0-2.1,0-2.3c0.5,0.1,1.1,0.2,1.6,0.3c0,0.3,0,0.7,0,1
						C117.3,204,117.4,204.5,117.4,204.9z"/>
				</g>
				<g>
					<path class="st2" d="M178.6,168.5c-4.3-1.8-10.5-4-18.1-6c0,0-0.1,0-0.1,0c-0.5-0.7-1.2-1.4-2-2.1c-1.1-1-2.3-1.8-3.2-2.3
						c1.5,0.4,2.9,0.8,4.4,1.2c7.7,2.2,14.8,4.9,21.2,7.8c0,0,0.1,0.1,0.1,0.1v33.5c-0.8,0-1.6,0-2.4,0V168.5z"/>
				</g>
				<g>
					<path class="st2" d="M133,158.7v2.4c0,0-0.1,0-0.1,0c-1.8-0.1-3.4-1.7-5-2.4c-1.7-0.7-3.5-1-5.3-1.3c-0.5-0.1-1,0-1.4,0.2
						c-4.3-0.4-8.5,0.9-11.9,3.8c-3.6,3.2-4.6,7.4-4.6,11.9c0,7.2,0,14.3,0,21.5c0,0,0,0,0,0c-0.8-0.8-2-1.1-3-0.6v-38.8
						c0.8,0,1.6,0,2.4,0.1c14.5,0.4,26.1,1.9,35.7,3.4H133z"/>
				</g>
				<path class="st2" d="M134.3,158.5c0.1,2,0.3,4,0.4,6c-1.7-1.5-4.5-3.6-8.4-4.8c-2-0.6-11.2-3.2-17,1.7c-3,2.6-4.6,5.9-4.6,11.9
					c0,7.2,0,14.3,0,21.5c0,0,0,0,0,0c-0.8-0.8-2-1.1-3-0.6v-38.8c0.8,0,1.6,0,2.4,0.1c14.5,0.4,26.1,1.9,35.7,3.4
					C138,158.7,136.2,158.6,134.3,158.5z"/>
				<g>
					<path class="st2" d="M172.9,200.7v8c-2.5,0-5.9-0.2-10-0.4c-1.7-0.1-3.3-0.2-4.9-0.4c-0.6-0.1-1.2-0.1-1.8-0.2
						c-0.3,0-0.6-0.1-1-0.1c-1-0.1-2.1-0.3-3.1-0.6c-2.2-0.5-4.3-1.1-6.6-1.2c-1.9-0.3-3.8-0.8-5.8-1.1c-2.1-0.3-4.1-0.5-6.2-0.9
						c-2.1-0.4-4.2-0.6-6.2-1.2c-0.9-0.2-1.7-0.5-2.6-0.8c-0.3-0.1-0.9-0.5-1.2-0.4c-0.2,0-0.3,0-0.3,0c-0.7-1-2.1-1-3-0.5
						c-0.3-0.2-0.6-0.3-1-0.3c-1.2,0-1.8,0.8-1.9,1.8c-0.6-0.1-1.1-0.2-1.6-0.3c0-0.4,0-0.8,0-1.1c0-7.6,0-15.2,0.1-22.9
						c0-2,0.3-3.9,0.8-5.8c1.2-4.7,7.4-6.3,11.6-3c3.1,2.3,4.2,5.7,4.4,9.5c0.1,1.1,0,2.2,0,3.4c1.6-1.5,2.9-3,4.4-4.1
						c1.8-1.3,3.8-2.4,5.6-3.6c0.5-0.3,1.2-1,1.2-1.5c0.1-4.5,0-9,0-13.5c0,0,0-0.1,0-0.1c0.6,0.1,1.2,0.2,1.8,0.3v7.5
						c0.4,0,0.8,0,1.1,0c0,1,0.6,2,1.9,2c1.1,0,1.7-0.7,1.9-1.6c0.7,0.4,1.2,1,1.4,1.8c0.3,1.3-0.5,2.2-1.6,2.8
						c-1.8,1-3.6,1.8-5.4,2.8c-2.7,1.5-5.5,2.9-7.9,4.7c-6.5,5.1-5.7,16,1.2,20.9c5.8,4.1,19.1,4.6,25.7-4.8
						c-2.2-2.4-4.4-4.8-6.5-7.1c-2,1.3-3.9,2.7-5.9,3.9c-1.7,0.9-3.6,1.4-5.4,0.7c-0.7-0.3-1.4-0.8-2-1.3c0-0.2,0-0.4,0-0.6
						c-0.3-1.2-0.2-2.4-0.2-3.6c0.2-0.2,0.3-0.3,0.5-0.4c2.1-1.4,4.4-2.7,6.6-3.9c3.5-1.8,6.8-3.8,9.1-7.1c3.1-4.4,2.8-10-0.1-14
						c0,0,0.1,0,0.1,0c7.6,1.9,13.8,4.2,18.1,6v32.2H172.9z"/>
				</g>
				<path class="st2" d="M172.9,200.7v8c-2.5,0-5.9-0.2-10-0.4c-1.7-0.1-3.3-0.2-4.9-0.4c-0.6-0.1-1.2-0.1-1.8-0.2
					c-0.3,0-0.6-0.1-1-0.1c-1-0.1-2.1-0.3-3.1-0.6c-2.2-0.5-4.3-1.1-6.6-1.2c-1.9-0.3-3.8-0.8-5.8-1.1c-2.1-0.3-4.1-0.5-6.2-0.9
					c-2.1-0.4-4.2-0.6-6.2-1.2c-0.9-0.2-1.7-0.5-2.6-0.8c-0.3-0.1-0.9-0.5-1.2-0.4c-0.2,0-0.3,0-0.3,0c-0.7-1-2.1-1-3-0.5
					c-0.3-0.2-0.6-0.3-1-0.3c-1.2,0-1.8,0.8-1.9,1.8c-0.6-0.1-1.1-0.2-1.6-0.3c0-0.4,0-0.8,0-1.1c0-7.6,0-15.2,0.1-22.9
					c0-2,0.3-3.9,0.8-5.8c1.2-4.7,7.4-6.3,11.6-3c3.1,2.3,4.2,5.7,4.4,9.5c0.1,1.1,0,2.2,0,3.4c1.3-1.9,2.6-3.2,3.6-4
					c1.6-1.3,2.9-1.8,6-4c0.7-0.5,1.3-0.9,1.7-1.2c0.3-4.6,0.3-9.1,0-13.5c0,0,0-0.1,0-0.1c0.6,0.1,1.2,0.2,1.8,0.3v7.5
					c0.4,0,0.8,0,1.1,0c0,1,0.6,2,1.9,2c1.1,0,1.7-0.7,1.9-1.6c0.7,0.4,1.2,1,1.4,1.8c0.3,1.3-0.5,2.2-1.6,2.8
					c-1.8,1-3.6,1.8-5.4,2.8c-2.7,1.5-5.5,2.9-7.9,4.7c-6.5,5.1-5.7,16,1.2,20.9c5.8,4.1,19.1,4.6,25.7-4.8
					c-1.6-1.8-3.1-3.5-4.7-5.3c-0.3,0.3-6.1,5.1-10.5,4.4c-1.3-0.2-2.4-0.8-2.4-0.8c-0.8-0.4-2.8-1.6-3.2-3.4
					c-0.4-1.8-0.3-2.4,1.2-3.4c2.1-1.4,4.4-2.7,6.6-3.9c3.5-1.8,6.8-3.8,9.1-7.1c3.1-4.4,2.8-10-0.1-14c0,0,0.1,0,0.1,0
					c7.6,1.9,13.8,4.2,18.1,6v32.2H172.9z"/>
			</g>
		</g>
		<g>
			<path class="st21" d="M162.9,160.1c-1.8-0.5-3.6-1-5.3-1.4c-0.3-0.2-0.7-0.3-1-0.5c-2.3-0.9-4.8-1.3-7.3-1.2
				c-4.2-0.7-8.5-1.3-13.3-1.8c-10.3-1.1-24-2.3-40.7-2.6v2.6v5h-4.8h-2.4c0-6.3,0-12.5,0-18.8c0-6.1,4.9-11.1,11-11.1h72.6
				c0.9,0,4.4,0.1,7.3,2.8c3.6,3.2,3.6,7.6,3.6,8.3c0,8.6,0,17.2,0,25.8c0,0-0.1-0.1-0.1-0.1C177.7,165,171.1,162.4,162.9,160.1z"/>
			<path class="st2" d="M101.8,198.3c1.4,0.6,3,1.1,4.6,1.5c0,0.4,0,0.9,0,1.3c0,0.4,0,0.8,0,1.2c-0.5-0.1-1-0.3-1.4-0.4
				c-5.9-1.8-10-3.9-12.9-5.6c-1.7-1-3.1-1.9-4-2.5v-2.1c0.7,0.4,1.5,0.9,2.4,1.4C93.4,194.6,97.2,196.5,101.8,198.3z"/>
			<path class="st2" d="M147.5,157.3C147.5,157.3,147.4,157.3,147.5,157.3l-0.1,2.4c-0.6-0.1-1.2-0.2-1.8-0.3c0-0.2-0.1-0.4-0.1-0.6
				h-4c-9.6-1.5-21.2-2.9-35.7-3.4c-3-0.1-6.5-0.1-10.5-0.1v-2.6c16.7,0.4,30.4,1.5,40.7,2.6c4.2,0.5,7.9,0.9,11.5,1.5
				C147.5,156.9,147.5,157.1,147.5,157.3z"/>
			<path class="st2" d="M177.2,202.7v8.5c-3.3-0.1-7-0.2-11.1-0.4c-0.7,0-1.4-0.1-2.3-0.1c-10-0.6-19.3-1.8-21-2
				c-8.4-1.1-17.4-2.2-25.5-3.7v-2h0c0-0.2,0-0.5,0-0.7c6.3,1.1,14.2,2.2,24.7,3.7c2.8,0.4,5.5,0.8,8.3,1.1c2.7,0.3,5.5,0.6,8.5,0.9
				c1.8,0.2,3.7,0.3,5.7,0.4c4.1,0.3,7.6,0.4,10,0.4v-8h8v2H177.2z"/>
			<path class="st2" d="M150.3,207c3.3,0.2,6,0.5,8.5,0.9C155.8,207.7,153,207.4,150.3,207z"/>
			<path class="st2" d="M180.2,168.5c-4.3-1.8-10.5-4-18.1-6c0,0-0.1,0-0.1,0c-1.1-1.5-2.6-2.8-4.4-3.8c1.7,0.4,3.5,0.9,5.3,1.4
				c8.2,2.3,14.8,4.9,19.6,7c0,0,0.1,0.1,0.1,0.1v33.5c-0.8,0-1.6,0-2.4,0V168.5z"/>
			<path class="st2" d="M90.5,193.1c-0.9-0.5-1.7-1-2.4-1.4v-31.5h2.4V193.1z"/>
			<path class="st2" d="M105.8,155.4c14.5,0.4,26.1,1.9,35.7,3.4c-2.2,0-4.5,0-6.8,0c0,1.4,0,2.7,0,4.4c-1.2-0.9-2.2-1.6-3.2-2.3
				c-6.8-4.7-14.9-4.4-20.5,0.5c-3.6,3.2-4.6,7.4-4.6,11.9c-0.1,8.8,0,17.7,0.1,26.5c-1.7-0.5-3.2-1-4.6-1.5
				c-4.6-1.8-8.4-3.7-11.3-5.2v-32.8h4.8v-5C99.3,155.3,102.8,155.3,105.8,155.4z"/>
			
				<linearGradient id="SVGID_49_" gradientUnits="userSpaceOnUse" x1="116.0082" y1="41.9488" x2="116.0082" y2="-44.9127" gradientTransform="matrix(1 0 0 -1 0 178.9795)">
				<stop  offset="0" style="stop-color:#FFFFFF;stop-opacity:0"/>
				<stop  offset="1" style="stop-color:#FFFFFF;stop-opacity:0.25"/>
			</linearGradient>
			<path class="st45" d="M105.8,155.4c14.5,0.4,26.1,1.9,35.7,3.4c-2.2,0-4.5,0-6.8,0c0,1.4,0,2.7,0,4.4c-1.2-0.9-2.2-1.6-3.2-2.3
				c-6.8-4.7-14.9-4.4-20.5,0.5c-3.6,3.2-4.6,7.4-4.6,11.9c-0.1,8.8,0,17.7,0.1,26.5c-1.7-0.5-3.2-1-4.6-1.5
				c-4.6-1.8-8.4-3.7-11.3-5.2v-32.8h4.8v-5C99.3,155.3,102.8,155.3,105.8,155.4z"/>
			<path class="st2" d="M117.3,201.1c0-7.6,0-15.2,0.1-22.9c0-2,0.3-3.9,0.8-5.8c1.2-4.7,7.4-6.3,11.6-3c3.1,2.3,4.2,5.7,4.4,9.5
				c0.1,1.1,0,2.2,0,3.4c1.6-1.5,2.9-3,4.4-4.1c1.8-1.3,3.8-2.4,5.6-3.6c0.5-0.3,1.2-1,1.2-1.5c0.1-4.5,0-9,0-13.5c0,0,0-0.1,0-0.1
				c0.6,0.1,1.2,0.2,1.8,0.3c0,2.6,0,5.1,0,7.5c1.3,0,2.5-0.1,3.7,0c1.3,0.1,2.4,0.8,2.8,2.2c0.3,1.3-0.5,2.2-1.6,2.8
				c-1.8,1-3.6,1.8-5.4,2.8c-2.7,1.5-5.5,2.9-7.9,4.7c-6.5,5.1-5.7,16,1.2,20.9c5.8,4.1,19.1,4.6,25.7-4.8c-2.2-2.4-4.4-4.8-6.5-7.1
				c-2,1.3-3.9,2.7-5.9,3.9c-1.7,0.9-3.6,1.4-5.4,0.7c-1.2-0.5-2.4-1.5-3-2.5c-0.7-1.3,0.1-2.7,1.2-3.4c2.1-1.4,4.4-2.7,6.6-3.9
				c3.5-1.8,6.8-3.8,9.1-7.1c3.1-4.4,2.8-10-0.1-14c0,0,0.1,0,0.1,0c7.6,1.9,13.8,4.2,18.1,6v32.2c-1.9,0-3.8,0-5.6,0
				c0,2.7,0,5.4,0,8c-2.5,0-5.9-0.2-10-0.4c-2-0.1-3.9-0.3-5.7-0.4c-2.5-0.3-5.2-0.7-8.5-0.9c-2.8-0.3-5.5-0.7-8.3-1.1
				c-10.4-1.5-18.4-2.6-24.7-3.7C117.3,201.8,117.3,201.5,117.3,201.1z"/>
			
				<linearGradient id="SVGID_50_" gradientUnits="userSpaceOnUse" x1="148.7394" y1="41.9488" x2="148.7394" y2="-44.9127" gradientTransform="matrix(1 0 0 -1 0 178.9795)">
				<stop  offset="0" style="stop-color:#FFFFFF;stop-opacity:0"/>
				<stop  offset="1" style="stop-color:#FFFFFF;stop-opacity:0.25"/>
			</linearGradient>
			<path class="st46" d="M117.3,201.1c0-7.6,0-15.2,0.1-22.9c0-2,0.3-3.9,0.8-5.8c1.2-4.7,7.4-6.3,11.6-3c3.1,2.3,4.2,5.7,4.4,9.5
				c0.1,1.1,0,2.2,0,3.4c1.6-1.5,2.9-3,4.4-4.1c1.8-1.3,3.8-2.4,5.6-3.6c0.5-0.3,1.2-1,1.2-1.5c0.1-4.5,0-9,0-13.5c0,0,0-0.1,0-0.1
				c0.6,0.1,1.2,0.2,1.8,0.3c0,2.6,0,5.1,0,7.5c1.3,0,2.5-0.1,3.7,0c1.3,0.1,2.4,0.8,2.8,2.2c0.3,1.3-0.5,2.2-1.6,2.8
				c-1.8,1-3.6,1.8-5.4,2.8c-2.7,1.5-5.5,2.9-7.9,4.7c-6.5,5.1-5.7,16,1.2,20.9c5.8,4.1,19.1,4.6,25.7-4.8c-2.2-2.4-4.4-4.8-6.5-7.1
				c-2,1.3-3.9,2.7-5.9,3.9c-1.7,0.9-3.6,1.4-5.4,0.7c-1.2-0.5-2.4-1.5-3-2.5c-0.7-1.3,0.1-2.7,1.2-3.4c2.1-1.4,4.4-2.7,6.6-3.9
				c3.5-1.8,6.8-3.8,9.1-7.1c3.1-4.4,2.8-10-0.1-14c0,0,0.1,0,0.1,0c7.6,1.9,13.8,4.2,18.1,6v32.2c-1.9,0-3.8,0-5.6,0
				c0,2.7,0,5.4,0,8c-2.5,0-5.9-0.2-10-0.4c-2-0.1-3.9-0.3-5.7-0.4c-2.5-0.3-5.2-0.7-8.5-0.9c-2.8-0.3-5.5-0.7-8.3-1.1
				c-10.4-1.5-18.4-2.6-24.7-3.7C117.3,201.8,117.3,201.5,117.3,201.1z"/>
		</g>
	</g>
	<g>
		<g class="st47">
			<text transform="matrix(1 0 0 1 41.4766 173.0174)" class="st48 st49 st50">USQUARE</text>
			<text transform="matrix(1 0 0 1 85.0151 195.451)" class="st51 st49 st52 st53">SOLUTIONS</text>
		</g>
		<g class="st47">
			<rect x="152.5" y="161.2" class="st54" width="13.8" height="7.2"/>
			<rect x="47.9" y="161.2" class="st54" width="13.8" height="7.2"/>
			<path class="st54" d="M99.4,164.4c0.4,0.9,0.9,1.6,1.6,2.3c0.7,0.7,1.4,1.2,2.3,1.6c0.9,0.4,1.8,0.6,2.8,0.6c1,0,1.9-0.2,2.8-0.6
				c0.9-0.4,1.6-0.9,2.3-1.6c0.7-0.7,1.2-1.4,1.6-2.3c0.4-0.9,0.6-1.8,0.6-2.8c0-0.1,0-0.2,0-0.3H98.8c0,0.1,0,0.2,0,0.3
				C98.8,162.5,99,163.5,99.4,164.4z"/>
			<path class="st55" d="M61.7,168.4H47.9v-7.2h-4.5v7.2c0,0.7,0.1,1.3,0.3,1.8c0.2,0.6,0.5,1,0.9,1.4c0.4,0.4,0.9,0.7,1.4,1
				c0.6,0.2,1.2,0.3,1.8,0.3h13.8c1.4,0,2.5-0.4,3.3-1.3c0.8-0.8,1.3-1.9,1.3-3.3v-7.2h-4.6V168.4z"/>
			<path class="st55" d="M71,162.7c0.8,0.8,1.9,1.2,3.3,1.2h12.2v4.6H70.1v4.6h16.5c1.5,0,2.6-0.4,3.4-1.2c0.8-0.8,1.2-1.9,1.2-3.4
				v-4.6c0-1-0.2-1.9-0.7-2.6H70.1C70.3,161.8,70.6,162.3,71,162.7z"/>
			<path class="st55" d="M113.4,161.5c0,1-0.2,1.9-0.6,2.8c-0.4,0.9-0.9,1.7-1.6,2.3c-0.7,0.7-1.4,1.2-2.3,1.6
				c-0.9,0.4-1.8,0.6-2.8,0.6c-1,0-1.9-0.2-2.8-0.6c-0.9-0.4-1.7-0.9-2.3-1.6c-0.7-0.7-1.2-1.4-1.6-2.3c-0.4-0.9-0.6-1.8-0.6-2.8
				c0-0.1,0-0.2,0-0.3h-4.6c0,0.1,0,0.2,0,0.3c0,1.4,0.2,2.8,0.7,4.1c0.5,1.3,1.1,2.4,2,3.5c0.9,1,1.9,1.9,3,2.6
				c1.2,0.7,2.5,1.2,3.8,1.5v4.4h4.6v-4.4c1.4-0.3,2.7-0.8,3.8-1.5c1.2-0.7,2.2-1.6,3-2.6c0.9-1,1.5-2.2,2-3.5
				c0.5-1.3,0.7-2.6,0.7-4.1c0-0.1,0-0.2,0-0.3h-4.6C113.4,161.3,113.4,161.4,113.4,161.5z"/>
			<path class="st55" d="M174.8,173h4.6v-9.2h0.7l10.8,9.2h6.9l-11-9.2h5.6c2.3,0,3.8-0.9,4.4-2.6h-22V173z"/>
			<polygon class="st55" points="218.6,163.8 218.6,161.2 200.3,161.2 200.3,173 218.7,173 218.7,168.4 204.9,168.4 204.9,163.8 			
				"/>
			<rect x="43.3" y="150" class="st55" width="4.5" height="11.2"/>
			<linearGradient id="SVGID_51_" gradientUnits="userSpaceOnUse" x1="45.6179" y1="161.1946" x2="45.6179" y2="146.0959">
				<stop  offset="0.2703" style="stop-color:#FFFFFF;stop-opacity:0"/>
				<stop  offset="1" style="stop-color:#FFFFFF;stop-opacity:0.7"/>
			</linearGradient>
			<rect x="43.3" y="150" class="st56" width="4.5" height="11.2"/>
			<rect x="61.7" y="150" class="st55" width="4.6" height="11.2"/>
			<linearGradient id="SVGID_52_" gradientUnits="userSpaceOnUse" x1="64.0013" y1="161.1946" x2="64.0013" y2="146.0959">
				<stop  offset="0.2703" style="stop-color:#FFFFFF;stop-opacity:0"/>
				<stop  offset="1" style="stop-color:#FFFFFF;stop-opacity:0.7"/>
			</linearGradient>
			<rect x="61.7" y="150" class="st57" width="4.6" height="11.2"/>
			<path class="st55" d="M86.6,159.2H74.4v-4.6h15.7V150H74.4c-1.4,0-2.5,0.4-3.3,1.2c-0.8,0.8-1.2,1.9-1.2,3.4v4.6
				c0,0.7,0.1,1.4,0.3,2h20.4c-0.2-0.3-0.4-0.5-0.6-0.7C89.1,159.7,88,159.2,86.6,159.2z"/>
			<linearGradient id="SVGID_53_" gradientUnits="userSpaceOnUse" x1="80.1521" y1="161.1946" x2="80.1521" y2="146.0959">
				<stop  offset="0.2703" style="stop-color:#FFFFFF;stop-opacity:0"/>
				<stop  offset="1" style="stop-color:#FFFFFF;stop-opacity:0.7"/>
			</linearGradient>
			<path class="st58" d="M86.6,159.2H74.4v-4.6h15.7V150H74.4c-1.4,0-2.5,0.4-3.3,1.2c-0.8,0.8-1.2,1.9-1.2,3.4v4.6
				c0,0.7,0.1,1.4,0.3,2h20.4c-0.2-0.3-0.4-0.5-0.6-0.7C89.1,159.7,88,159.2,86.6,159.2z"/>
			<path class="st55" d="M114.5,153.1c-1.1-1.1-2.3-1.9-3.8-2.6c-1.4-0.6-3-1-4.6-1c-1.6,0-3.2,0.3-4.6,1c-1.4,0.6-2.7,1.5-3.8,2.6
				c-1.1,1.1-1.9,2.3-2.6,3.8c-0.6,1.3-0.9,2.8-0.9,4.3h4.6c0-0.9,0.2-1.7,0.6-2.5c0.4-0.9,0.9-1.7,1.6-2.3c0.7-0.7,1.4-1.2,2.3-1.6
				c0.9-0.4,1.8-0.6,2.8-0.6c1,0,1.9,0.2,2.8,0.6c0.9,0.4,1.6,0.9,2.3,1.6c0.7,0.7,1.2,1.5,1.6,2.3c0.3,0.8,0.5,1.6,0.6,2.5h4.6
				c0-1.5-0.3-2.9-0.9-4.3C116.4,155.5,115.6,154.2,114.5,153.1z"/>
			<linearGradient id="SVGID_54_" gradientUnits="userSpaceOnUse" x1="106.1196" y1="161.1946" x2="106.1196" y2="146.0959">
				<stop  offset="0.2703" style="stop-color:#FFFFFF;stop-opacity:0"/>
				<stop  offset="1" style="stop-color:#FFFFFF;stop-opacity:0.7"/>
			</linearGradient>
			<path class="st59" d="M114.5,153.1c-1.1-1.1-2.3-1.9-3.8-2.6c-1.4-0.6-3-1-4.6-1c-1.6,0-3.2,0.3-4.6,1c-1.4,0.6-2.7,1.5-3.8,2.6
				c-1.1,1.1-1.9,2.3-2.6,3.8c-0.6,1.3-0.9,2.8-0.9,4.3h4.6c0-0.9,0.2-1.7,0.6-2.5c0.4-0.9,0.9-1.7,1.6-2.3c0.7-0.7,1.4-1.2,2.3-1.6
				c0.9-0.4,1.8-0.6,2.8-0.6c1,0,1.9,0.2,2.8,0.6c0.9,0.4,1.6,0.9,2.3,1.6c0.7,0.7,1.2,1.5,1.6,2.3c0.3,0.8,0.5,1.6,0.6,2.5h4.6
				c0-1.5-0.3-2.9-0.9-4.3C116.4,155.5,115.6,154.2,114.5,153.1z"/>
			<g class="st60">
				<polygon class="st61" points="147.9,173 152.5,173 152.5,163.8 166.3,163.8 166.3,173 170.9,173 170.9,161.2 147.9,161.2 				
					"/>
				<path class="st61" d="M170.5,152.8c-0.2-0.6-0.5-1.1-1-1.5c-0.4-0.4-0.9-0.7-1.5-1c-0.6-0.2-1.2-0.3-1.9-0.3h-13.8
					c-1.4,0-2.5,0.4-3.3,1.2c-0.8,0.8-1.3,1.9-1.3,3.4v6.6h23v-6.6C170.9,154,170.8,153.3,170.5,152.8z M166.3,159.2h-13.8v-4.6
					h13.8V159.2z"/>
				<linearGradient id="SVGID_55_" gradientUnits="userSpaceOnUse" x1="159.4059" y1="161.1946" x2="159.4059" y2="146.0959">
					<stop  offset="0.2703" style="stop-color:#FFFFFF;stop-opacity:0"/>
					<stop  offset="1" style="stop-color:#FFFFFF;stop-opacity:0.7"/>
				</linearGradient>
				<path class="st62" d="M170.5,152.8c-0.2-0.6-0.5-1.1-1-1.5c-0.4-0.4-0.9-0.7-1.5-1c-0.6-0.2-1.2-0.3-1.9-0.3h-13.8
					c-1.4,0-2.5,0.4-3.3,1.2c-0.8,0.8-1.3,1.9-1.3,3.4v6.6h23v-6.6C170.9,154,170.8,153.3,170.5,152.8z M166.3,159.2h-13.8v-4.6
					h13.8V159.2z"/>
			</g>
			<g class="st60">
				<path class="st61" d="M139.7,168.4h-13.8v-7.2h-4.5v7.2c0,0.7,0.1,1.3,0.3,1.8c0.2,0.6,0.5,1,0.9,1.4c0.4,0.4,0.9,0.7,1.4,1
					c0.6,0.2,1.2,0.3,1.8,0.3h13.8c1.4,0,2.5-0.4,3.3-1.3c0.8-0.8,1.3-1.9,1.3-3.3v-7.2h-4.6V168.4z"/>
				<rect x="139.7" y="150" class="st61" width="4.6" height="11.2"/>
				<linearGradient id="SVGID_56_" gradientUnits="userSpaceOnUse" x1="141.9463" y1="161.1946" x2="141.9463" y2="146.0959">
					<stop  offset="0.2703" style="stop-color:#FFFFFF;stop-opacity:0"/>
					<stop  offset="1" style="stop-color:#FFFFFF;stop-opacity:0.7"/>
				</linearGradient>
				<rect x="139.7" y="150" class="st63" width="4.6" height="11.2"/>
				<rect x="121.3" y="150" class="st61" width="4.5" height="11.2"/>
				<linearGradient id="SVGID_57_" gradientUnits="userSpaceOnUse" x1="123.563" y1="161.1946" x2="123.563" y2="146.0959">
					<stop  offset="0.2703" style="stop-color:#FFFFFF;stop-opacity:0"/>
					<stop  offset="1" style="stop-color:#FFFFFF;stop-opacity:0.7"/>
				</linearGradient>
				<rect x="121.3" y="150" class="st64" width="4.5" height="11.2"/>
			</g>
			<path class="st55" d="M197,154.6c0-0.6-0.1-1.2-0.4-1.8c-0.2-0.6-0.6-1.1-1-1.5c-0.4-0.4-0.9-0.7-1.5-1c-0.6-0.2-1.2-0.4-1.8-0.4
				h-17.6v11.2h22c0.2-0.6,0.3-1.2,0.3-2V154.6z M192.4,159.4h-13v-4.8h13V159.4z"/>
			<linearGradient id="SVGID_58_" gradientUnits="userSpaceOnUse" x1="185.9216" y1="161.1946" x2="185.9216" y2="146.0959">
				<stop  offset="0.2703" style="stop-color:#FFFFFF;stop-opacity:0"/>
				<stop  offset="1" style="stop-color:#FFFFFF;stop-opacity:0.7"/>
			</linearGradient>
			<path class="st65" d="M197,154.6c0-0.6-0.1-1.2-0.4-1.8c-0.2-0.6-0.6-1.1-1-1.5c-0.4-0.4-0.9-0.7-1.5-1c-0.6-0.2-1.2-0.4-1.8-0.4
				h-17.6v11.2h22c0.2-0.6,0.3-1.2,0.3-2V154.6z M192.4,159.4h-13v-4.8h13V159.4z"/>
			<polygon class="st55" points="218.6,159.2 204.9,159.2 204.9,154.6 218.7,154.6 218.7,150 200.3,150 200.3,161.2 218.6,161.2 			
				"/>
			<linearGradient id="SVGID_59_" gradientUnits="userSpaceOnUse" x1="209.5284" y1="161.1946" x2="209.5284" y2="146.0959">
				<stop  offset="0.2703" style="stop-color:#FFFFFF;stop-opacity:0"/>
				<stop  offset="1" style="stop-color:#FFFFFF;stop-opacity:0.7"/>
			</linearGradient>
			<polygon class="st66" points="218.6,159.2 204.9,159.2 204.9,154.6 218.7,154.6 218.7,150 200.3,150 200.3,161.2 218.6,161.2 			
				"/>
		</g>
		<g>
			<linearGradient id="SVGID_60_" gradientUnits="userSpaceOnUse" x1="56.6533" y1="173.0191" x2="56.6533" y2="149.9985">
				<stop  offset="1.818196e-02" style="stop-color:#0028A7"/>
				<stop  offset="0.1406" style="stop-color:#0031AA"/>
				<stop  offset="0.343" style="stop-color:#004AB2"/>
				<stop  offset="0.6005" style="stop-color:#0073BF"/>
				<stop  offset="0.9" style="stop-color:#00ACD1"/>
				<stop  offset="1" style="stop-color:#00C0D8"/>
			</linearGradient>
			<path class="st67" d="M68.1,168.4c0,1.4-0.4,2.5-1.3,3.3s-1.9,1.3-3.3,1.3H49.7c-0.7,0-1.3-0.1-1.8-0.3c-0.6-0.2-1-0.5-1.4-1
				c-0.4-0.4-0.7-0.9-0.9-1.4c-0.2-0.6-0.3-1.2-0.3-1.8V150h4.5v18.4h13.8V150h4.6V168.4z"/>
			<linearGradient id="SVGID_61_" gradientUnits="userSpaceOnUse" x1="82.3316" y1="173.0191" x2="82.3316" y2="149.9985">
				<stop  offset="1.818196e-02" style="stop-color:#0028A7"/>
				<stop  offset="0.1406" style="stop-color:#0031AA"/>
				<stop  offset="0.343" style="stop-color:#004AB2"/>
				<stop  offset="0.6005" style="stop-color:#0073BF"/>
				<stop  offset="0.9" style="stop-color:#00ACD1"/>
				<stop  offset="1" style="stop-color:#00C0D8"/>
			</linearGradient>
			<path class="st68" d="M93.1,168.4c0,1.5-0.4,2.6-1.2,3.4c-0.8,0.8-2,1.2-3.4,1.2H71.9v-4.6h16.5v-4.6H76.2
				c-1.4,0-2.5-0.4-3.3-1.2c-0.8-0.8-1.3-1.9-1.3-3.4v-4.6c0-1.5,0.4-2.6,1.2-3.4c0.8-0.8,1.9-1.2,3.3-1.2h15.7v4.6H76.2v4.6h12.2
				c1.4,0,2.5,0.4,3.4,1.2c0.8,0.8,1.3,1.9,1.3,3.3V168.4z"/>
			<linearGradient id="SVGID_62_" gradientUnits="userSpaceOnUse" x1="107.9544" y1="177.6009" x2="107.9544" y2="149.6317">
				<stop  offset="1.818196e-02" style="stop-color:#0028A7"/>
				<stop  offset="0.1406" style="stop-color:#0031AA"/>
				<stop  offset="0.343" style="stop-color:#004AB2"/>
				<stop  offset="0.6005" style="stop-color:#0073BF"/>
				<stop  offset="0.9" style="stop-color:#00ACD1"/>
				<stop  offset="1" style="stop-color:#00C0D8"/>
			</linearGradient>
			<path class="st69" d="M119.8,161.5c0,1.4-0.2,2.8-0.7,4.1c-0.5,1.3-1.1,2.4-2,3.5c-0.9,1-1.9,1.9-3,2.6c-1.2,0.7-2.5,1.2-3.8,1.5
				v4.4h-4.6v-4.4c-1.4-0.3-2.7-0.8-3.8-1.5c-1.2-0.7-2.2-1.6-3-2.6c-0.9-1-1.5-2.2-2-3.5c-0.5-1.3-0.7-2.6-0.7-4.1
				c0-1.6,0.3-3.2,0.9-4.6s1.5-2.7,2.6-3.8c1.1-1.1,2.4-1.9,3.8-2.6c1.4-0.6,3-1,4.6-1c1.6,0,3.1,0.3,4.6,1c1.4,0.6,2.7,1.5,3.8,2.6
				c1.1,1.1,1.9,2.3,2.6,3.8C119.5,158.4,119.8,159.9,119.8,161.5z M115.2,161.5c0-1-0.2-1.9-0.6-2.8c-0.4-0.9-0.9-1.7-1.6-2.3
				c-0.7-0.7-1.4-1.2-2.3-1.6c-0.9-0.4-1.8-0.6-2.8-0.6c-1,0-1.9,0.2-2.8,0.6c-0.9,0.4-1.7,0.9-2.3,1.6c-0.7,0.7-1.2,1.4-1.6,2.3
				c-0.4,0.9-0.6,1.8-0.6,2.8c0,1,0.2,1.9,0.6,2.8c0.4,0.9,0.9,1.6,1.6,2.3c0.7,0.7,1.4,1.2,2.3,1.6c0.9,0.4,1.8,0.6,2.8,0.6
				c1,0,1.9-0.2,2.8-0.6c0.9-0.4,1.6-0.9,2.3-1.6c0.7-0.7,1.2-1.4,1.6-2.3C115,163.5,115.2,162.5,115.2,161.5z"/>
			<linearGradient id="SVGID_63_" gradientUnits="userSpaceOnUse" x1="134.5491" y1="173.0191" x2="134.5491" y2="149.9985">
				<stop  offset="1.818196e-02" style="stop-color:#0028A7"/>
				<stop  offset="0.1406" style="stop-color:#0031AA"/>
				<stop  offset="0.343" style="stop-color:#004AB2"/>
				<stop  offset="0.6005" style="stop-color:#0073BF"/>
				<stop  offset="0.9" style="stop-color:#00ACD1"/>
				<stop  offset="1" style="stop-color:#00C0D8"/>
			</linearGradient>
			<path class="st70" d="M146,168.4c0,1.4-0.4,2.5-1.3,3.3s-1.9,1.3-3.3,1.3h-13.8c-0.7,0-1.3-0.1-1.8-0.3c-0.6-0.2-1-0.5-1.4-1
				c-0.4-0.4-0.7-0.9-0.9-1.4c-0.2-0.6-0.3-1.2-0.3-1.8V150h4.5v18.4h13.8V150h4.6V168.4z"/>
			<linearGradient id="SVGID_64_" gradientUnits="userSpaceOnUse" x1="161.2537" y1="173.0191" x2="161.2537" y2="149.9985">
				<stop  offset="1.818196e-02" style="stop-color:#0028A7"/>
				<stop  offset="0.1406" style="stop-color:#0031AA"/>
				<stop  offset="0.343" style="stop-color:#004AB2"/>
				<stop  offset="0.6005" style="stop-color:#0073BF"/>
				<stop  offset="0.9" style="stop-color:#00ACD1"/>
				<stop  offset="1" style="stop-color:#00C0D8"/>
			</linearGradient>
			<path class="st71" d="M172.7,173h-4.6v-9.2h-13.8v9.2h-4.6v-18.4c0-1.4,0.4-2.6,1.3-3.4c0.8-0.8,1.9-1.2,3.3-1.2h13.8
				c0.7,0,1.3,0.1,1.9,0.3c0.6,0.2,1.1,0.6,1.5,1c0.4,0.4,0.7,0.9,1,1.5c0.2,0.6,0.3,1.2,0.3,1.8V173z M168.1,159.2v-4.6h-13.8v4.6
				H168.1z"/>
			<linearGradient id="SVGID_65_" gradientUnits="userSpaceOnUse" x1="188.1411" y1="173.0191" x2="188.1411" y2="149.9985">
				<stop  offset="1.818196e-02" style="stop-color:#0028A7"/>
				<stop  offset="0.1406" style="stop-color:#0031AA"/>
				<stop  offset="0.343" style="stop-color:#004AB2"/>
				<stop  offset="0.6005" style="stop-color:#0073BF"/>
				<stop  offset="0.9" style="stop-color:#00ACD1"/>
				<stop  offset="1" style="stop-color:#00C0D8"/>
			</linearGradient>
			<path class="st72" d="M199.7,173h-6.9l-10.8-9.2h-0.7v9.2h-4.6v-23h17.6c0.6,0,1.2,0.1,1.8,0.4c0.6,0.2,1.1,0.6,1.5,1
				c0.4,0.4,0.8,0.9,1,1.5c0.2,0.6,0.4,1.2,0.4,1.8v4.6c0,3.1-1.6,4.6-4.7,4.6h-5.6L199.7,173z M194.2,159.4v-4.8h-13v4.8H194.2z"/>
			<linearGradient id="SVGID_66_" gradientUnits="userSpaceOnUse" x1="211.3811" y1="173.0191" x2="211.3811" y2="149.9985">
				<stop  offset="1.818196e-02" style="stop-color:#0028A7"/>
				<stop  offset="0.1406" style="stop-color:#0031AA"/>
				<stop  offset="0.343" style="stop-color:#004AB2"/>
				<stop  offset="0.6005" style="stop-color:#0073BF"/>
				<stop  offset="0.9" style="stop-color:#00ACD1"/>
				<stop  offset="1" style="stop-color:#00C0D8"/>
			</linearGradient>
			<path class="st73" d="M220.6,173h-18.4v-23h18.4v4.6h-13.8v4.6h13.7v4.6h-13.7v4.6h13.8V173z"/>
		</g>
		<g>
			<rect x="137.4" y="186.9" class="st21" width="6.6" height="3.5"/>
			<polygon class="st21" points="202.6,186.9 200.8,186.9 202.6,188.8 			"/>
			<path class="st21" d="M179,188.5c0.2,0.4,0.4,0.8,0.8,1.1c0.3,0.3,0.7,0.6,1.1,0.8s0.9,0.3,1.4,0.3c0.5,0,0.9-0.1,1.3-0.3
				c0.4-0.2,0.8-0.4,1.1-0.8c0.3-0.3,0.6-0.7,0.8-1.1c0.2-0.4,0.3-0.9,0.3-1.3c0-0.1,0-0.2,0-0.3h-6.9c0,0.1,0,0.2,0,0.3
				C178.7,187.6,178.8,188.1,179,188.5z"/>
			<path class="st21" d="M106.1,188.5c0.2,0.4,0.4,0.8,0.8,1.1c0.3,0.3,0.7,0.6,1.1,0.8s0.9,0.3,1.4,0.3c0.5,0,0.9-0.1,1.3-0.3
				c0.4-0.2,0.8-0.4,1.1-0.8c0.3-0.3,0.6-0.7,0.8-1.1c0.2-0.4,0.3-0.9,0.3-1.3c0-0.1,0-0.2,0-0.3h-6.9c0,0.1,0,0.2,0,0.3
				C105.8,187.6,105.9,188.1,106.1,188.5z"/>
			<path class="st74" d="M88.2,187.7c0.4,0.4,0.9,0.6,1.6,0.6h5.8v2.2h-7.8v2.2h7.8c0.7,0,1.3-0.2,1.6-0.6c0.4-0.4,0.6-0.9,0.6-1.6
				v-2.2c0-0.5-0.1-1-0.4-1.3h-9.7C87.8,187.2,88,187.5,88.2,187.7z"/>
			<path class="st74" d="M112.8,187.1c0,0.5-0.1,0.9-0.3,1.3c-0.2,0.4-0.4,0.8-0.8,1.1c-0.3,0.3-0.7,0.6-1.1,0.8
				c-0.4,0.2-0.9,0.3-1.3,0.3c-0.5,0-0.9-0.1-1.4-0.3s-0.8-0.4-1.1-0.8c-0.3-0.3-0.6-0.7-0.8-1.1c-0.2-0.4-0.3-0.9-0.3-1.3
				c0-0.1,0-0.2,0-0.3h-2.2c0,0.1,0,0.2,0,0.3c0,0.8,0.1,1.5,0.4,2.2c0.3,0.7,0.7,1.3,1.2,1.8c0.5,0.5,1.1,0.9,1.8,1.2
				c0.7,0.3,1.4,0.4,2.2,0.4c0.8,0,1.5-0.1,2.2-0.4c0.7-0.3,1.3-0.7,1.8-1.2c0.5-0.5,0.9-1.1,1.2-1.8c0.3-0.7,0.5-1.4,0.5-2.2
				c0-0.1,0-0.2,0-0.3h-2.2C112.7,187,112.8,187,112.8,187.1z"/>
			<polygon class="st74" points="120.9,192.6 129.7,192.6 129.7,190.4 123.1,190.4 123.1,186.9 120.9,186.9 			"/>
			<path class="st74" d="M144,190.4h-6.6v-3.5h-2.2v3.5c0,0.3,0.1,0.6,0.2,0.9c0.1,0.3,0.3,0.5,0.4,0.7c0.2,0.2,0.4,0.3,0.7,0.5
				c0.3,0.1,0.6,0.2,0.9,0.2h6.6c0.7,0,1.2-0.2,1.6-0.6c0.4-0.4,0.6-0.9,0.6-1.6v-3.5H144V190.4z"/>
			<rect x="156.1" y="186.9" class="st74" width="2.2" height="5.7"/>
			<rect x="168.4" y="186.9" class="st74" width="2.2" height="5.7"/>
			<path class="st74" d="M185.7,187.1c0,0.5-0.1,0.9-0.3,1.3c-0.2,0.4-0.4,0.8-0.8,1.1c-0.3,0.3-0.7,0.6-1.1,0.8
				c-0.4,0.2-0.9,0.3-1.3,0.3c-0.5,0-0.9-0.1-1.4-0.3s-0.8-0.4-1.1-0.8c-0.3-0.3-0.6-0.7-0.8-1.1c-0.2-0.4-0.3-0.9-0.3-1.3
				c0-0.1,0-0.2,0-0.3h-2.2c0,0.1,0,0.2,0,0.3c0,0.8,0.1,1.5,0.4,2.2c0.3,0.7,0.7,1.3,1.2,1.8c0.5,0.5,1.1,0.9,1.8,1.2
				c0.7,0.3,1.4,0.4,2.2,0.4c0.8,0,1.5-0.1,2.2-0.4c0.7-0.3,1.3-0.7,1.8-1.2c0.5-0.5,0.9-1.1,1.2-1.8c0.3-0.7,0.5-1.4,0.5-2.2
				c0-0.1,0-0.2,0-0.3h-2.2C185.6,187,185.7,187,185.7,187.1z"/>
			<rect x="193.8" y="186.9" class="st74" width="2.2" height="5.7"/>
			<polygon class="st74" points="202.6,188.8 200.8,186.9 197.8,186.9 203.4,192.6 204.8,192.6 204.8,186.9 202.6,186.9 			"/>
			<path class="st74" d="M211.5,187.7c0.4,0.4,0.9,0.6,1.6,0.6h5.8v2.2H211v2.2h7.8c0.7,0,1.3-0.2,1.6-0.6c0.4-0.4,0.6-0.9,0.6-1.6
				v-2.2c0-0.5-0.1-1-0.4-1.3H211C211.1,187.2,211.3,187.5,211.5,187.7z"/>
			<linearGradient id="SVGID_67_" gradientUnits="userSpaceOnUse" x1="196.9082" y1="186.8776" x2="196.9082" y2="179.7437">
				<stop  offset="0.2703" style="stop-color:#FFFFFF;stop-opacity:0"/>
				<stop  offset="1" style="stop-color:#FFFFFF;stop-opacity:0.7"/>
			</linearGradient>
			<polygon class="st75" points="196.1,186.9 197.8,186.9 196.1,185.2 			"/>
			<path class="st74" d="M95.6,186h-5.8v-2.2h7.5v-2.2h-7.5c-0.7,0-1.2,0.2-1.6,0.6c-0.4,0.4-0.6,0.9-0.6,1.6v2.2
				c0,0.3,0,0.6,0.1,0.8h9.7c-0.1-0.1-0.1-0.2-0.2-0.3C96.8,186.2,96.3,186,95.6,186z"/>
			<linearGradient id="SVGID_68_" gradientUnits="userSpaceOnUse" x1="92.5289" y1="186.8776" x2="92.5289" y2="179.7437">
				<stop  offset="0.2703" style="stop-color:#FFFFFF;stop-opacity:0"/>
				<stop  offset="1" style="stop-color:#FFFFFF;stop-opacity:0.7"/>
			</linearGradient>
			<path class="st76" d="M95.6,186h-5.8v-2.2h7.5v-2.2h-7.5c-0.7,0-1.2,0.2-1.6,0.6c-0.4,0.4-0.6,0.9-0.6,1.6v2.2
				c0,0.3,0,0.6,0.1,0.8h9.7c-0.1-0.1-0.1-0.2-0.2-0.3C96.8,186.2,96.3,186,95.6,186z"/>
			<path class="st74" d="M113.3,183.1c-0.5-0.5-1.1-0.9-1.8-1.2c-0.7-0.3-1.4-0.5-2.2-0.5c-0.8,0-1.5,0.2-2.2,0.5
				c-0.7,0.3-1.3,0.7-1.8,1.2c-0.5,0.5-0.9,1.1-1.2,1.8c-0.3,0.6-0.4,1.3-0.4,1.9h2.2c0-0.4,0.1-0.8,0.3-1.1
				c0.2-0.4,0.4-0.8,0.8-1.1c0.3-0.3,0.7-0.6,1.1-0.8s0.9-0.3,1.4-0.3c0.5,0,0.9,0.1,1.3,0.3c0.4,0.2,0.8,0.4,1.1,0.8
				c0.3,0.3,0.6,0.7,0.7,1.1c0.1,0.3,0.2,0.7,0.2,1.1h2.2c0-0.7-0.2-1.3-0.4-1.9C114.2,184.2,113.8,183.6,113.3,183.1z"/>
			<linearGradient id="SVGID_69_" gradientUnits="userSpaceOnUse" x1="109.3003" y1="186.8776" x2="109.3003" y2="179.7437">
				<stop  offset="0.2703" style="stop-color:#FFFFFF;stop-opacity:0"/>
				<stop  offset="1" style="stop-color:#FFFFFF;stop-opacity:0.7"/>
			</linearGradient>
			<path class="st77" d="M113.3,183.1c-0.5-0.5-1.1-0.9-1.8-1.2c-0.7-0.3-1.4-0.5-2.2-0.5c-0.8,0-1.5,0.2-2.2,0.5
				c-0.7,0.3-1.3,0.7-1.8,1.2c-0.5,0.5-0.9,1.1-1.2,1.8c-0.3,0.6-0.4,1.3-0.4,1.9h2.2c0-0.4,0.1-0.8,0.3-1.1
				c0.2-0.4,0.4-0.8,0.8-1.1c0.3-0.3,0.7-0.6,1.1-0.8s0.9-0.3,1.4-0.3c0.5,0,0.9,0.1,1.3,0.3c0.4,0.2,0.8,0.4,1.1,0.8
				c0.3,0.3,0.6,0.7,0.7,1.1c0.1,0.3,0.2,0.7,0.2,1.1h2.2c0-0.7-0.2-1.3-0.4-1.9C114.2,184.2,113.8,183.6,113.3,183.1z"/>
			<rect x="120.9" y="181.6" class="st74" width="2.2" height="5.2"/>
			<linearGradient id="SVGID_70_" gradientUnits="userSpaceOnUse" x1="122.0406" y1="186.8776" x2="122.0406" y2="179.7437">
				<stop  offset="0.2703" style="stop-color:#FFFFFF;stop-opacity:0"/>
				<stop  offset="1" style="stop-color:#FFFFFF;stop-opacity:0.7"/>
			</linearGradient>
			<rect x="120.9" y="181.6" class="st78" width="2.2" height="5.2"/>
			<rect x="135.2" y="181.6" class="st74" width="2.2" height="5.2"/>
			<linearGradient id="SVGID_71_" gradientUnits="userSpaceOnUse" x1="136.3263" y1="186.8776" x2="136.3263" y2="179.7437">
				<stop  offset="0.2703" style="stop-color:#FFFFFF;stop-opacity:0"/>
				<stop  offset="1" style="stop-color:#FFFFFF;stop-opacity:0.7"/>
			</linearGradient>
			<rect x="135.2" y="181.6" class="st79" width="2.2" height="5.2"/>
			<rect x="144" y="181.6" class="st74" width="2.2" height="5.2"/>
			<linearGradient id="SVGID_72_" gradientUnits="userSpaceOnUse" x1="145.0847" y1="186.8776" x2="145.0847" y2="179.7437">
				<stop  offset="0.2703" style="stop-color:#FFFFFF;stop-opacity:0"/>
				<stop  offset="1" style="stop-color:#FFFFFF;stop-opacity:0.7"/>
			</linearGradient>
			<rect x="144" y="181.6" class="st80" width="2.2" height="5.2"/>
			<polygon class="st74" points="162.7,183.8 162.7,181.6 151.7,181.6 151.7,183.8 156.1,183.8 156.1,186.9 158.3,186.9 
				158.3,183.8 			"/>
			<linearGradient id="SVGID_73_" gradientUnits="userSpaceOnUse" x1="157.2315" y1="186.8776" x2="157.2315" y2="179.7437">
				<stop  offset="0.2703" style="stop-color:#FFFFFF;stop-opacity:0"/>
				<stop  offset="1" style="stop-color:#FFFFFF;stop-opacity:0.7"/>
			</linearGradient>
			<polygon class="st81" points="162.7,183.8 162.7,181.6 151.7,181.6 151.7,183.8 156.1,183.8 156.1,186.9 158.3,186.9 
				158.3,183.8 			"/>
			<rect x="168.4" y="181.6" class="st74" width="2.2" height="5.2"/>
			<linearGradient id="SVGID_74_" gradientUnits="userSpaceOnUse" x1="169.4654" y1="186.8776" x2="169.4654" y2="179.7437">
				<stop  offset="0.2703" style="stop-color:#FFFFFF;stop-opacity:0"/>
				<stop  offset="1" style="stop-color:#FFFFFF;stop-opacity:0.7"/>
			</linearGradient>
			<rect x="168.4" y="181.6" class="st82" width="2.2" height="5.2"/>
			<path class="st74" d="M186.2,183.1c-0.5-0.5-1.1-0.9-1.8-1.2c-0.7-0.3-1.4-0.5-2.2-0.5c-0.8,0-1.5,0.2-2.2,0.5
				c-0.7,0.3-1.3,0.7-1.8,1.2c-0.5,0.5-0.9,1.1-1.2,1.8c-0.3,0.6-0.4,1.3-0.4,1.9h2.2c0-0.4,0.1-0.8,0.3-1.1
				c0.2-0.4,0.4-0.8,0.8-1.1c0.3-0.3,0.7-0.6,1.1-0.8s0.9-0.3,1.4-0.3s0.9,0.1,1.3,0.3c0.4,0.2,0.8,0.4,1.1,0.8
				c0.3,0.3,0.6,0.7,0.7,1.1c0.1,0.3,0.2,0.7,0.2,1.1h2.2c0-0.7-0.2-1.3-0.4-1.9C187.1,184.2,186.7,183.6,186.2,183.1z"/>
			<linearGradient id="SVGID_75_" gradientUnits="userSpaceOnUse" x1="182.1966" y1="186.8776" x2="182.1966" y2="179.7437">
				<stop  offset="0.2703" style="stop-color:#FFFFFF;stop-opacity:0"/>
				<stop  offset="1" style="stop-color:#FFFFFF;stop-opacity:0.7"/>
			</linearGradient>
			<path class="st83" d="M186.2,183.1c-0.5-0.5-1.1-0.9-1.8-1.2c-0.7-0.3-1.4-0.5-2.2-0.5c-0.8,0-1.5,0.2-2.2,0.5
				c-0.7,0.3-1.3,0.7-1.8,1.2c-0.5,0.5-0.9,1.1-1.2,1.8c-0.3,0.6-0.4,1.3-0.4,1.9h2.2c0-0.4,0.1-0.8,0.3-1.1
				c0.2-0.4,0.4-0.8,0.8-1.1c0.3-0.3,0.7-0.6,1.1-0.8s0.9-0.3,1.4-0.3s0.9,0.1,1.3,0.3c0.4,0.2,0.8,0.4,1.1,0.8
				c0.3,0.3,0.6,0.7,0.7,1.1c0.1,0.3,0.2,0.7,0.2,1.1h2.2c0-0.7-0.2-1.3-0.4-1.9C187.1,184.2,186.7,183.6,186.2,183.1z"/>
			<rect x="202.6" y="181.6" class="st74" width="2.2" height="5.2"/>
			<linearGradient id="SVGID_76_" gradientUnits="userSpaceOnUse" x1="203.7037" y1="186.8776" x2="203.7037" y2="179.7437">
				<stop  offset="0.2703" style="stop-color:#FFFFFF;stop-opacity:0"/>
				<stop  offset="1" style="stop-color:#FFFFFF;stop-opacity:0.7"/>
			</linearGradient>
			<rect x="202.6" y="181.6" class="st84" width="2.2" height="5.2"/>
			<polygon class="st74" points="195.7,181.6 193.8,181.6 193.8,186.9 196.1,186.9 196.1,185.2 197.8,186.9 200.8,186.9 			"/>
			<linearGradient id="SVGID_77_" gradientUnits="userSpaceOnUse" x1="197.3088" y1="186.8776" x2="197.3088" y2="179.7437">
				<stop  offset="0.2703" style="stop-color:#FFFFFF;stop-opacity:0"/>
				<stop  offset="1" style="stop-color:#FFFFFF;stop-opacity:0.7"/>
			</linearGradient>
			<polygon class="st85" points="195.7,181.6 193.8,181.6 193.8,186.9 196.1,186.9 196.1,185.2 197.8,186.9 200.8,186.9 			"/>
			<path class="st74" d="M218.9,186h-5.8v-2.2h7.5v-2.2h-7.5c-0.7,0-1.2,0.2-1.6,0.6c-0.4,0.4-0.6,0.9-0.6,1.6v2.2
				c0,0.3,0,0.6,0.1,0.8h9.7c-0.1-0.1-0.1-0.2-0.2-0.3C220.1,186.2,219.6,186,218.9,186z"/>
			<linearGradient id="SVGID_78_" gradientUnits="userSpaceOnUse" x1="215.7922" y1="186.8776" x2="215.7922" y2="179.7437">
				<stop  offset="0.2703" style="stop-color:#FFFFFF;stop-opacity:0"/>
				<stop  offset="1" style="stop-color:#FFFFFF;stop-opacity:0.7"/>
			</linearGradient>
			<path class="st86" d="M218.9,186h-5.8v-2.2h7.5v-2.2h-7.5c-0.7,0-1.2,0.2-1.6,0.6c-0.4,0.4-0.6,0.9-0.6,1.6v2.2
				c0,0.3,0,0.6,0.1,0.8h9.7c-0.1-0.1-0.1-0.2-0.2-0.3C220.1,186.2,219.6,186,218.9,186z"/>
		</g>
		<g>
			<rect x="127.6" y="161" class="st21" width="13.8" height="7.4"/>
			<path class="st21" d="M101.2,164.4c0.4,0.9,0.9,1.6,1.6,2.3c0.7,0.7,1.4,1.2,2.3,1.6c0.9,0.4,1.8,0.6,2.8,0.6
				c1,0,1.9-0.2,2.8-0.6c0.9-0.4,1.6-0.9,2.3-1.6c0.7-0.7,1.2-1.4,1.6-2.3c0.4-0.9,0.6-1.8,0.6-2.8c0-0.2,0-0.3,0-0.5h-14.5
				c0,0.2,0,0.3,0,0.5C100.6,162.5,100.8,163.5,101.2,164.4z"/>
			<rect x="49.7" y="161" class="st21" width="13.8" height="7.4"/>
			<linearGradient id="SVGID_79_" gradientUnits="userSpaceOnUse" x1="56.6533" y1="173.0191" x2="56.6533" y2="149.9985">
				<stop  offset="1.818196e-02" style="stop-color:#0028A7"/>
				<stop  offset="0.1406" style="stop-color:#0031AA"/>
				<stop  offset="0.343" style="stop-color:#004AB2"/>
				<stop  offset="0.6005" style="stop-color:#0073BF"/>
				<stop  offset="0.9" style="stop-color:#00ACD1"/>
				<stop  offset="1" style="stop-color:#00C0D8"/>
			</linearGradient>
			<path class="st87" d="M63.5,168.4H49.7V161h-4.5v7.4c0,0.7,0.1,1.3,0.3,1.8c0.2,0.6,0.5,1,0.9,1.4c0.4,0.4,0.9,0.7,1.4,1
				c0.6,0.2,1.2,0.3,1.8,0.3h13.8c1.4,0,2.5-0.4,3.3-1.3s1.3-1.9,1.3-3.3V161h-4.6V168.4z"/>
			<linearGradient id="SVGID_80_" gradientUnits="userSpaceOnUse" x1="82.4634" y1="173.0191" x2="82.4634" y2="149.9985">
				<stop  offset="1.818196e-02" style="stop-color:#0028A7"/>
				<stop  offset="0.1406" style="stop-color:#0031AA"/>
				<stop  offset="0.343" style="stop-color:#004AB2"/>
				<stop  offset="0.6005" style="stop-color:#0073BF"/>
				<stop  offset="0.9" style="stop-color:#00ACD1"/>
				<stop  offset="1" style="stop-color:#00C0D8"/>
			</linearGradient>
			<path class="st88" d="M72.9,162.7c0.8,0.8,1.9,1.2,3.3,1.2h12.2v4.6H71.9v4.6h16.5c1.5,0,2.6-0.4,3.4-1.2
				c0.8-0.8,1.2-1.9,1.2-3.4v-4.6c0-1.1-0.3-2-0.8-2.8H71.9C72.1,161.7,72.4,162.2,72.9,162.7z"/>
			<linearGradient id="SVGID_81_" gradientUnits="userSpaceOnUse" x1="107.9544" y1="177.6009" x2="107.9544" y2="149.6317">
				<stop  offset="1.818196e-02" style="stop-color:#0028A7"/>
				<stop  offset="0.1406" style="stop-color:#0031AA"/>
				<stop  offset="0.343" style="stop-color:#004AB2"/>
				<stop  offset="0.6005" style="stop-color:#0073BF"/>
				<stop  offset="0.9" style="stop-color:#00ACD1"/>
				<stop  offset="1" style="stop-color:#00C0D8"/>
			</linearGradient>
			<path class="st89" d="M115.2,161.5c0,1-0.2,1.9-0.6,2.8c-0.4,0.9-0.9,1.7-1.6,2.3c-0.7,0.7-1.4,1.2-2.3,1.6
				c-0.9,0.4-1.8,0.6-2.8,0.6c-1,0-1.9-0.2-2.8-0.6c-0.9-0.4-1.7-0.9-2.3-1.6c-0.7-0.7-1.2-1.4-1.6-2.3c-0.4-0.9-0.6-1.8-0.6-2.8
				c0-0.2,0-0.3,0-0.5h-4.6c0,0.2,0,0.3,0,0.5c0,1.4,0.2,2.8,0.7,4.1c0.5,1.3,1.1,2.4,2,3.5c0.9,1,1.9,1.9,3,2.6
				c1.2,0.7,2.5,1.2,3.8,1.5v4.4h4.6v-4.4c1.4-0.3,2.7-0.8,3.8-1.5c1.2-0.7,2.2-1.6,3-2.6c0.9-1,1.5-2.2,2-3.5
				c0.5-1.3,0.7-2.6,0.7-4.1c0-0.2,0-0.3,0-0.5h-4.6C115.2,161.2,115.2,161.4,115.2,161.5z"/>
			<linearGradient id="SVGID_82_" gradientUnits="userSpaceOnUse" x1="134.5491" y1="173.0191" x2="134.5491" y2="149.9985">
				<stop  offset="1.818196e-02" style="stop-color:#0028A7"/>
				<stop  offset="0.1406" style="stop-color:#0031AA"/>
				<stop  offset="0.343" style="stop-color:#004AB2"/>
				<stop  offset="0.6005" style="stop-color:#0073BF"/>
				<stop  offset="0.9" style="stop-color:#00ACD1"/>
				<stop  offset="1" style="stop-color:#00C0D8"/>
			</linearGradient>
			<path class="st90" d="M141.4,168.4h-13.8V161h-4.5v7.4c0,0.7,0.1,1.3,0.3,1.8c0.2,0.6,0.5,1,0.9,1.4c0.4,0.4,0.9,0.7,1.4,1
				c0.6,0.2,1.2,0.3,1.8,0.3h13.8c1.4,0,2.5-0.4,3.3-1.3s1.3-1.9,1.3-3.3V161h-4.6V168.4z"/>
			<linearGradient id="SVGID_83_" gradientUnits="userSpaceOnUse" x1="161.2537" y1="173.0191" x2="161.2537" y2="149.9985">
				<stop  offset="1.818196e-02" style="stop-color:#0028A7"/>
				<stop  offset="0.1406" style="stop-color:#0031AA"/>
				<stop  offset="0.343" style="stop-color:#004AB2"/>
				<stop  offset="0.6005" style="stop-color:#0073BF"/>
				<stop  offset="0.9" style="stop-color:#00ACD1"/>
				<stop  offset="1" style="stop-color:#00C0D8"/>
			</linearGradient>
			<polygon class="st91" points="149.8,173 154.3,173 154.3,163.8 168.1,163.8 168.1,173 172.7,173 172.7,161 149.8,161 			"/>
			<linearGradient id="SVGID_84_" gradientUnits="userSpaceOnUse" x1="188.1411" y1="173.0191" x2="188.1411" y2="149.9985">
				<stop  offset="1.818196e-02" style="stop-color:#0028A7"/>
				<stop  offset="0.1406" style="stop-color:#0031AA"/>
				<stop  offset="0.343" style="stop-color:#004AB2"/>
				<stop  offset="0.6005" style="stop-color:#0073BF"/>
				<stop  offset="0.9" style="stop-color:#00ACD1"/>
				<stop  offset="1" style="stop-color:#00C0D8"/>
			</linearGradient>
			<path class="st92" d="M176.6,173h4.6v-9.2h0.7l10.8,9.2h6.9l-11-9.2h5.6c2.4,0,3.9-0.9,4.4-2.8h-22V173z"/>
			<linearGradient id="SVGID_85_" gradientUnits="userSpaceOnUse" x1="211.3811" y1="173.0191" x2="211.3811" y2="149.9985">
				<stop  offset="1.818196e-02" style="stop-color:#0028A7"/>
				<stop  offset="0.1406" style="stop-color:#0031AA"/>
				<stop  offset="0.343" style="stop-color:#004AB2"/>
				<stop  offset="0.6005" style="stop-color:#0073BF"/>
				<stop  offset="0.9" style="stop-color:#00ACD1"/>
				<stop  offset="1" style="stop-color:#00C0D8"/>
			</linearGradient>
			<polygon class="st93" points="220.5,163.8 220.5,161 202.2,161 202.2,173 220.6,173 220.6,168.4 206.8,168.4 206.8,163.8 			"/>
			<linearGradient id="SVGID_86_" gradientUnits="userSpaceOnUse" x1="65.836" y1="173.0191" x2="65.836" y2="149.9985">
				<stop  offset="1.818196e-02" style="stop-color:#0028A7"/>
				<stop  offset="0.1406" style="stop-color:#0031AA"/>
				<stop  offset="0.343" style="stop-color:#004AB2"/>
				<stop  offset="0.6005" style="stop-color:#0073BF"/>
				<stop  offset="0.9" style="stop-color:#00ACD1"/>
				<stop  offset="1" style="stop-color:#00C0D8"/>
			</linearGradient>
			<rect x="63.5" y="150" class="st94" width="4.6" height="11"/>
			<linearGradient id="SVGID_87_" gradientUnits="userSpaceOnUse" x1="65.836" y1="161.024" x2="65.836" y2="149.6131">
				<stop  offset="0.2703" style="stop-color:#FFFFFF;stop-opacity:0"/>
				<stop  offset="1" style="stop-color:#FFFFFF;stop-opacity:0.7"/>
			</linearGradient>
			<rect x="63.5" y="150" class="st95" width="4.6" height="11"/>
			<linearGradient id="SVGID_88_" gradientUnits="userSpaceOnUse" x1="47.4523" y1="173.0191" x2="47.4523" y2="149.9985">
				<stop  offset="1.818196e-02" style="stop-color:#0028A7"/>
				<stop  offset="0.1406" style="stop-color:#0031AA"/>
				<stop  offset="0.343" style="stop-color:#004AB2"/>
				<stop  offset="0.6005" style="stop-color:#0073BF"/>
				<stop  offset="0.9" style="stop-color:#00ACD1"/>
				<stop  offset="1" style="stop-color:#00C0D8"/>
			</linearGradient>
			<rect x="45.2" y="150" class="st96" width="4.5" height="11"/>
			<linearGradient id="SVGID_89_" gradientUnits="userSpaceOnUse" x1="47.4523" y1="161.024" x2="47.4523" y2="149.6131">
				<stop  offset="0.2703" style="stop-color:#FFFFFF;stop-opacity:0"/>
				<stop  offset="1" style="stop-color:#FFFFFF;stop-opacity:0.7"/>
			</linearGradient>
			<rect x="45.2" y="150" class="st97" width="4.5" height="11"/>
			<linearGradient id="SVGID_90_" gradientUnits="userSpaceOnUse" x1="81.9208" y1="173.0191" x2="81.9208" y2="149.9985">
				<stop  offset="1.818196e-02" style="stop-color:#0028A7"/>
				<stop  offset="0.1406" style="stop-color:#0031AA"/>
				<stop  offset="0.343" style="stop-color:#004AB2"/>
				<stop  offset="0.6005" style="stop-color:#0073BF"/>
				<stop  offset="0.9" style="stop-color:#00ACD1"/>
				<stop  offset="1" style="stop-color:#00C0D8"/>
			</linearGradient>
			<path class="st98" d="M88.4,159.2H76.2v-4.6h15.7V150H76.2c-1.4,0-2.5,0.4-3.3,1.2c-0.8,0.8-1.2,1.9-1.2,3.4v4.6
				c0,0.7,0.1,1.3,0.3,1.8h20.4c-0.1-0.2-0.3-0.4-0.4-0.5C90.9,159.7,89.8,159.2,88.4,159.2z"/>
			<linearGradient id="SVGID_91_" gradientUnits="userSpaceOnUse" x1="81.9208" y1="161.024" x2="81.9208" y2="149.6131">
				<stop  offset="0.2703" style="stop-color:#FFFFFF;stop-opacity:0"/>
				<stop  offset="1" style="stop-color:#FFFFFF;stop-opacity:0.7"/>
			</linearGradient>
			<path class="st99" d="M88.4,159.2H76.2v-4.6h15.7V150H76.2c-1.4,0-2.5,0.4-3.3,1.2c-0.8,0.8-1.2,1.9-1.2,3.4v4.6
				c0,0.7,0.1,1.3,0.3,1.8h20.4c-0.1-0.2-0.3-0.4-0.4-0.5C90.9,159.7,89.8,159.2,88.4,159.2z"/>
			<linearGradient id="SVGID_92_" gradientUnits="userSpaceOnUse" x1="107.954" y1="177.6009" x2="107.954" y2="149.6317">
				<stop  offset="1.818196e-02" style="stop-color:#0028A7"/>
				<stop  offset="0.1406" style="stop-color:#0031AA"/>
				<stop  offset="0.343" style="stop-color:#004AB2"/>
				<stop  offset="0.6005" style="stop-color:#0073BF"/>
				<stop  offset="0.9" style="stop-color:#00ACD1"/>
				<stop  offset="1" style="stop-color:#00C0D8"/>
			</linearGradient>
			<path class="st100" d="M116.3,153.2c-1.1-1.1-2.3-1.9-3.8-2.6c-1.4-0.6-3-1-4.6-1c-1.6,0-3.2,0.3-4.6,1c-1.4,0.6-2.7,1.5-3.8,2.6
				c-1.1,1.1-1.9,2.3-2.6,3.8c-0.6,1.3-0.8,2.7-0.9,4.1h4.6c0.1-0.8,0.2-1.6,0.6-2.3c0.4-0.9,0.9-1.7,1.6-2.3
				c0.7-0.7,1.4-1.2,2.3-1.6c0.9-0.4,1.8-0.6,2.8-0.6c1,0,1.9,0.2,2.8,0.6c0.9,0.4,1.6,0.9,2.3,1.6c0.7,0.7,1.2,1.5,1.6,2.3
				c0.3,0.7,0.5,1.5,0.5,2.3h4.6c-0.1-1.4-0.4-2.8-0.9-4.1C118.3,155.5,117.4,154.2,116.3,153.2z"/>
			<linearGradient id="SVGID_93_" gradientUnits="userSpaceOnUse" x1="107.954" y1="161.024" x2="107.954" y2="149.6131">
				<stop  offset="0.2703" style="stop-color:#FFFFFF;stop-opacity:0"/>
				<stop  offset="1" style="stop-color:#FFFFFF;stop-opacity:0.7"/>
			</linearGradient>
			<path class="st101" d="M116.3,153.2c-1.1-1.1-2.3-1.9-3.8-2.6c-1.4-0.6-3-1-4.6-1c-1.6,0-3.2,0.3-4.6,1c-1.4,0.6-2.7,1.5-3.8,2.6
				c-1.1,1.1-1.9,2.3-2.6,3.8c-0.6,1.3-0.8,2.7-0.9,4.1h4.6c0.1-0.8,0.2-1.6,0.6-2.3c0.4-0.9,0.9-1.7,1.6-2.3
				c0.7-0.7,1.4-1.2,2.3-1.6c0.9-0.4,1.8-0.6,2.8-0.6c1,0,1.9,0.2,2.8,0.6c0.9,0.4,1.6,0.9,2.3,1.6c0.7,0.7,1.2,1.5,1.6,2.3
				c0.3,0.7,0.5,1.5,0.5,2.3h4.6c-0.1-1.4-0.4-2.8-0.9-4.1C118.3,155.5,117.4,154.2,116.3,153.2z"/>
			<linearGradient id="SVGID_94_" gradientUnits="userSpaceOnUse" x1="125.348" y1="173.0191" x2="125.348" y2="149.9985">
				<stop  offset="1.818196e-02" style="stop-color:#0028A7"/>
				<stop  offset="0.1406" style="stop-color:#0031AA"/>
				<stop  offset="0.343" style="stop-color:#004AB2"/>
				<stop  offset="0.6005" style="stop-color:#0073BF"/>
				<stop  offset="0.9" style="stop-color:#00ACD1"/>
				<stop  offset="1" style="stop-color:#00C0D8"/>
			</linearGradient>
			<rect x="123.1" y="150" class="st102" width="4.5" height="11"/>
			<linearGradient id="SVGID_95_" gradientUnits="userSpaceOnUse" x1="125.348" y1="161.024" x2="125.348" y2="149.6131">
				<stop  offset="0.2703" style="stop-color:#FFFFFF;stop-opacity:0"/>
				<stop  offset="1" style="stop-color:#FFFFFF;stop-opacity:0.7"/>
			</linearGradient>
			<rect x="123.1" y="150" class="st103" width="4.5" height="11"/>
			<linearGradient id="SVGID_96_" gradientUnits="userSpaceOnUse" x1="143.7318" y1="173.0191" x2="143.7318" y2="149.9985">
				<stop  offset="1.818196e-02" style="stop-color:#0028A7"/>
				<stop  offset="0.1406" style="stop-color:#0031AA"/>
				<stop  offset="0.343" style="stop-color:#004AB2"/>
				<stop  offset="0.6005" style="stop-color:#0073BF"/>
				<stop  offset="0.9" style="stop-color:#00ACD1"/>
				<stop  offset="1" style="stop-color:#00C0D8"/>
			</linearGradient>
			<rect x="141.4" y="150" class="st104" width="4.6" height="11"/>
			<linearGradient id="SVGID_97_" gradientUnits="userSpaceOnUse" x1="143.7318" y1="161.024" x2="143.7318" y2="149.6131">
				<stop  offset="0.2703" style="stop-color:#FFFFFF;stop-opacity:0"/>
				<stop  offset="1" style="stop-color:#FFFFFF;stop-opacity:0.7"/>
			</linearGradient>
			<rect x="141.4" y="150" class="st105" width="4.6" height="11"/>
			<linearGradient id="SVGID_98_" gradientUnits="userSpaceOnUse" x1="161.2537" y1="173.0191" x2="161.2537" y2="149.9985">
				<stop  offset="1.818196e-02" style="stop-color:#0028A7"/>
				<stop  offset="0.1406" style="stop-color:#0031AA"/>
				<stop  offset="0.343" style="stop-color:#004AB2"/>
				<stop  offset="0.6005" style="stop-color:#0073BF"/>
				<stop  offset="0.9" style="stop-color:#00ACD1"/>
				<stop  offset="1" style="stop-color:#00C0D8"/>
			</linearGradient>
			<path class="st106" d="M172.4,152.8c-0.2-0.6-0.6-1.1-1-1.5c-0.4-0.4-0.9-0.7-1.5-1c-0.6-0.2-1.2-0.3-1.9-0.3h-13.8
				c-1.4,0-2.5,0.4-3.3,1.2c-0.8,0.8-1.3,1.9-1.3,3.4v6.4h23v-6.4C172.7,154,172.6,153.3,172.4,152.8z M168.1,159.2h-13.8v-4.6h13.8
				V159.2z"/>
			<linearGradient id="SVGID_99_" gradientUnits="userSpaceOnUse" x1="161.2537" y1="161.024" x2="161.2537" y2="149.6131">
				<stop  offset="0.2703" style="stop-color:#FFFFFF;stop-opacity:0"/>
				<stop  offset="1" style="stop-color:#FFFFFF;stop-opacity:0.7"/>
			</linearGradient>
			<path class="st107" d="M172.4,152.8c-0.2-0.6-0.6-1.1-1-1.5c-0.4-0.4-0.9-0.7-1.5-1c-0.6-0.2-1.2-0.3-1.9-0.3h-13.8
				c-1.4,0-2.5,0.4-3.3,1.2c-0.8,0.8-1.3,1.9-1.3,3.4v6.4h23v-6.4C172.7,154,172.6,153.3,172.4,152.8z M168.1,159.2h-13.8v-4.6h13.8
				V159.2z"/>
			<linearGradient id="SVGID_100_" gradientUnits="userSpaceOnUse" x1="187.7562" y1="173.0191" x2="187.7562" y2="149.9985">
				<stop  offset="1.818196e-02" style="stop-color:#0028A7"/>
				<stop  offset="0.1406" style="stop-color:#0031AA"/>
				<stop  offset="0.343" style="stop-color:#004AB2"/>
				<stop  offset="0.6005" style="stop-color:#0073BF"/>
				<stop  offset="0.9" style="stop-color:#00ACD1"/>
				<stop  offset="1" style="stop-color:#00C0D8"/>
			</linearGradient>
			<path class="st108" d="M198.9,154.6c0-0.6-0.1-1.2-0.4-1.8c-0.2-0.6-0.6-1.1-1-1.5c-0.4-0.4-0.9-0.7-1.5-1
				c-0.6-0.2-1.2-0.4-1.8-0.4h-17.6v11h22c0.2-0.5,0.2-1.1,0.2-1.8V154.6z M194.2,159.4h-13v-4.8h13V159.4z"/>
			<linearGradient id="SVGID_101_" gradientUnits="userSpaceOnUse" x1="187.7562" y1="161.024" x2="187.7562" y2="149.6131">
				<stop  offset="0.2703" style="stop-color:#FFFFFF;stop-opacity:0"/>
				<stop  offset="1" style="stop-color:#FFFFFF;stop-opacity:0.7"/>
			</linearGradient>
			<path class="st109" d="M198.9,154.6c0-0.6-0.1-1.2-0.4-1.8c-0.2-0.6-0.6-1.1-1-1.5c-0.4-0.4-0.9-0.7-1.5-1
				c-0.6-0.2-1.2-0.4-1.8-0.4h-17.6v11h22c0.2-0.5,0.2-1.1,0.2-1.8V154.6z M194.2,159.4h-13v-4.8h13V159.4z"/>
			<linearGradient id="SVGID_102_" gradientUnits="userSpaceOnUse" x1="211.3627" y1="173.0191" x2="211.3627" y2="149.9985">
				<stop  offset="1.818196e-02" style="stop-color:#0028A7"/>
				<stop  offset="0.1406" style="stop-color:#0031AA"/>
				<stop  offset="0.343" style="stop-color:#004AB2"/>
				<stop  offset="0.6005" style="stop-color:#0073BF"/>
				<stop  offset="0.9" style="stop-color:#00ACD1"/>
				<stop  offset="1" style="stop-color:#00C0D8"/>
			</linearGradient>
			<polygon class="st110" points="220.5,159.2 206.8,159.2 206.8,154.6 220.5,154.6 220.5,150 202.2,150 202.2,161 220.5,161 			"/>
			<linearGradient id="SVGID_103_" gradientUnits="userSpaceOnUse" x1="211.3627" y1="161.024" x2="211.3627" y2="149.6131">
				<stop  offset="0.2703" style="stop-color:#FFFFFF;stop-opacity:0"/>
				<stop  offset="1" style="stop-color:#FFFFFF;stop-opacity:0.7"/>
			</linearGradient>
			<polygon class="st111" points="220.5,159.2 206.8,159.2 206.8,154.6 220.5,154.6 220.5,150 202.2,150 202.2,161 220.5,161 			"/>
		</g>
	</g>
</g>
</svg>
